<?xml version="1.0" encoding="UTF-8" standalone="no"?>
<!DOCTYPE svg PUBLIC "-//W3C//DTD SVG 1.1//EN"
 "http://www.w3.org/Graphics/SVG/1.1/DTD/svg11.dtd">
<!-- Generated by graphviz version 2.40.1 (20161225.0304)
 -->
<!-- Title: G Pages: 1 -->
<svg width="2195pt" height="1388pt"
 viewBox="0.00 0.00 2195.00 1388.00" xmlns="http://www.w3.org/2000/svg" xmlns:xlink="http://www.w3.org/1999/xlink">
<g id="graph0" class="graph" transform="scale(1 1) rotate(0) translate(4 1384)">
<title>G</title>
<polygon fill="#ffffff" stroke="transparent" points="-4,4 -4,-1384 2191,-1384 2191,4 -4,4"/>
<g id="clust1" class="cluster">
<title>cluster_G</title>
<path fill="#808080" fill-opacity="0.094118" stroke="#000000" d="M20,-8C20,-8 2167,-8 2167,-8 2173,-8 2179,-14 2179,-20 2179,-20 2179,-1360 2179,-1360 2179,-1366 2173,-1372 2167,-1372 2167,-1372 20,-1372 20,-1372 14,-1372 8,-1366 8,-1360 8,-1360 8,-20 8,-20 8,-14 14,-8 20,-8"/>
</g>
<g id="clust2" class="cluster">
<title>cluster_backupy</title>
<path fill="#808080" fill-opacity="0.094118" stroke="#000000" d="M28,-16C28,-16 2159,-16 2159,-16 2165,-16 2171,-22 2171,-28 2171,-28 2171,-1270 2171,-1270 2171,-1276 2165,-1282 2159,-1282 2159,-1282 28,-1282 28,-1282 22,-1282 16,-1276 16,-1270 16,-1270 16,-28 16,-28 16,-22 22,-16 28,-16"/>
<text text-anchor="middle" x="1093.5" y="-1266.8" font-family="Times,serif" font-size="14.00" fill="#000000">backupy</text>
</g>
<g id="clust3" class="cluster">
<title>cluster_backupy__ArgparseCustomFormatter</title>
<path fill="#808080" fill-opacity="0.094118" stroke="#000000" d="M474,-1176C474,-1176 662,-1176 662,-1176 668,-1176 674,-1182 674,-1188 674,-1188 674,-1239 674,-1239 674,-1245 668,-1251 662,-1251 662,-1251 474,-1251 474,-1251 468,-1251 462,-1245 462,-1239 462,-1239 462,-1188 462,-1188 462,-1182 468,-1176 474,-1176"/>
<text text-anchor="middle" x="568" y="-1235.8" font-family="Times,serif" font-size="14.00" fill="#000000">backupy.ArgparseCustomFormatter</text>
</g>
<g id="clust4" class="cluster">
<title>cluster_backupy__BackupManager</title>
<path fill="#808080" fill-opacity="0.094118" stroke="#000000" d="M424,-456C424,-456 1839,-456 1839,-456 1845,-456 1851,-462 1851,-468 1851,-468 1851,-1095 1851,-1095 1851,-1101 1845,-1107 1839,-1107 1839,-1107 424,-1107 424,-1107 418,-1107 412,-1101 412,-1095 412,-1095 412,-468 412,-468 412,-462 418,-456 424,-456"/>
<text text-anchor="middle" x="1131.5" y="-1091.8" font-family="Times,serif" font-size="14.00" fill="#000000">backupy.BackupManager</text>
</g>
<g id="clust5" class="cluster">
<title>cluster_backupy__ConfigObject</title>
<path fill="#808080" fill-opacity="0.094118" stroke="#000000" d="M1871,-744C1871,-744 1987,-744 1987,-744 1993,-744 1999,-750 1999,-756 1999,-756 1999,-807 1999,-807 1999,-813 1993,-819 1987,-819 1987,-819 1871,-819 1871,-819 1865,-819 1859,-813 1859,-807 1859,-807 1859,-756 1859,-756 1859,-750 1865,-744 1871,-744"/>
<text text-anchor="middle" x="1929" y="-803.8" font-family="Times,serif" font-size="14.00" fill="#000000">backupy.ConfigObject</text>
</g>
<g id="clust6" class="cluster">
<title>cluster_backupy__DirInfo</title>
<path fill="#808080" fill-opacity="0.094118" stroke="#000000" d="M736,-24C736,-24 2151,-24 2151,-24 2157,-24 2163,-30 2163,-36 2163,-36 2163,-375 2163,-375 2163,-381 2157,-387 2151,-387 2151,-387 736,-387 736,-387 730,-387 724,-381 724,-375 724,-375 724,-36 724,-36 724,-30 730,-24 736,-24"/>
<text text-anchor="middle" x="1443.5" y="-371.8" font-family="Times,serif" font-size="14.00" fill="#000000">backupy.DirInfo</text>
</g>
<!-- backupy -->
<g id="node1" class="node">
<title>backupy</title>
<ellipse fill="#ffffff" fill-opacity="0.698039" stroke="#000000" cx="403" cy="-1346" rx="40.0939" ry="18"/>
<text text-anchor="middle" x="403" y="-1342.3" font-family="Times,serif" font-size="14.00" fill="#000000">backupy</text>
</g>
<!-- backupy__main -->
<g id="node6" class="node">
<title>backupy__main</title>
<ellipse fill="#fecccc" fill-opacity="0.698039" stroke="#000000" cx="403" cy="-1202" rx="28.6953" ry="18"/>
<text text-anchor="middle" x="403" y="-1198.3" font-family="Times,serif" font-size="14.00" fill="#000000">main</text>
</g>
<!-- backupy&#45;&gt;backupy__main -->
<g id="edge1" class="edge">
<title>backupy&#45;&gt;backupy__main</title>
<path fill="none" stroke="#000000" d="M403,-1327.7623C403,-1303.201 403,-1259.2474 403,-1230.3541"/>
<polygon fill="#000000" stroke="#000000" points="406.5001,-1230.0896 403,-1220.0896 399.5001,-1230.0897 406.5001,-1230.0896"/>
</g>
<!-- backupy__ArgparseCustomFormatter -->
<g id="node2" class="node">
<title>backupy__ArgparseCustomFormatter</title>
<ellipse fill="#fecccc" fill-opacity="0.698039" stroke="#000000" cx="130" cy="-1058" rx="105.8812" ry="18"/>
<text text-anchor="middle" x="130" y="-1054.3" font-family="Times,serif" font-size="14.00" fill="#000000">ArgparseCustomFormatter</text>
</g>
<!-- backupy__BackupManager -->
<g id="node3" class="node">
<title>backupy__BackupManager</title>
<ellipse fill="#fecccc" fill-opacity="0.698039" stroke="#000000" cx="334" cy="-1058" rx="69.5877" ry="18"/>
<text text-anchor="middle" x="334" y="-1054.3" font-family="Times,serif" font-size="14.00" fill="#000000">BackupManager</text>
</g>
<!-- backupy__ConfigObject -->
<g id="node4" class="node">
<title>backupy__ConfigObject</title>
<ellipse fill="#fecccc" fill-opacity="0.698039" stroke="#000000" cx="346" cy="-770" rx="58.4896" ry="18"/>
<text text-anchor="middle" x="346" y="-766.3" font-family="Times,serif" font-size="14.00" fill="#000000">ConfigObject</text>
</g>
<!-- backupy__DirInfo -->
<g id="node5" class="node">
<title>backupy__DirInfo</title>
<ellipse fill="#fecccc" fill-opacity="0.698039" stroke="#000000" cx="666" cy="-338" rx="37.0935" ry="18"/>
<text text-anchor="middle" x="666" y="-334.3" font-family="Times,serif" font-size="14.00" fill="#000000">DirInfo</text>
</g>
<!-- backupy__main&#45;&gt;backupy__ArgparseCustomFormatter -->
<g id="edge56" class="edge">
<title>backupy__main&#45;&gt;backupy__ArgparseCustomFormatter</title>
<path fill="none" stroke="#000000" d="M380.6593,-1190.2159C334.9675,-1166.1147 230.2158,-1110.8611 171.6211,-1079.954"/>
<polygon fill="#000000" stroke="#000000" points="173.1073,-1076.7809 162.6294,-1075.2111 169.8414,-1082.9724 173.1073,-1076.7809"/>
</g>
<!-- backupy__main&#45;&gt;backupy__BackupManager -->
<g id="edge57" class="edge">
<title>backupy__main&#45;&gt;backupy__BackupManager</title>
<path fill="none" stroke="#000000" d="M394.677,-1184.6302C382.8262,-1159.8982 360.9787,-1114.3034 346.987,-1085.1034"/>
<polygon fill="#000000" stroke="#000000" points="350.0466,-1083.3888 342.569,-1075.8831 343.7339,-1086.4137 350.0466,-1083.3888"/>
</g>
<!-- backupy__BackupManager____init__ -->
<g id="node8" class="node">
<title>backupy__BackupManager____init__</title>
<ellipse fill="#ff9999" fill-opacity="0.698039" stroke="#000000" cx="473" cy="-1058" rx="40.0939" ry="18"/>
<text text-anchor="middle" x="473" y="-1054.3" font-family="Times,serif" font-size="14.00" fill="#000000">__init__</text>
</g>
<!-- backupy__main&#45;&gt;backupy__BackupManager____init__ -->
<g id="edge58" class="edge">
<title>backupy__main&#45;&gt;backupy__BackupManager____init__</title>
<path fill="none" stroke="#000000" d="M411.4436,-1184.6302C423.4662,-1159.8982 445.6303,-1114.3034 459.8247,-1085.1034"/>
<polygon fill="#000000" stroke="#000000" points="463.0826,-1086.407 464.3068,-1075.8831 456.7871,-1083.3466 463.0826,-1086.407"/>
</g>
<!-- backupy__BackupManager__backup -->
<g id="node15" class="node">
<title>backupy__BackupManager__backup</title>
<ellipse fill="#ff9999" fill-opacity="0.698039" stroke="#000000" cx="1083" cy="-1058" rx="36.2938" ry="18"/>
<text text-anchor="middle" x="1083" y="-1054.3" font-family="Times,serif" font-size="14.00" fill="#000000">backup</text>
</g>
<!-- backupy__main&#45;&gt;backupy__BackupManager__backup -->
<g id="edge59" class="edge">
<title>backupy__main&#45;&gt;backupy__BackupManager__backup</title>
<path fill="none" stroke="#000000" d="M424.1806,-1189.732C433.3969,-1184.8404 444.4774,-1179.5419 455,-1176 665.879,-1105.0176 931.8115,-1072.8285 1037.0844,-1062.2171"/>
<polygon fill="#000000" stroke="#000000" points="1037.4528,-1065.6978 1047.0587,-1061.2282 1036.7621,-1058.732 1037.4528,-1065.6978"/>
</g>
<!-- backupy__ArgparseCustomFormatter___split_lines -->
<g id="node7" class="node">
<title>backupy__ArgparseCustomFormatter___split_lines</title>
<ellipse fill="#ff9999" fill-opacity="0.698039" stroke="#000000" cx="543" cy="-1202" rx="51.1914" ry="18"/>
<text text-anchor="middle" x="543" y="-1198.3" font-family="Times,serif" font-size="14.00" fill="#000000">_split_lines</text>
</g>
<!-- backupy__ArgparseCustomFormatter___split_lines&#45;&gt;backupy__ArgparseCustomFormatter___split_lines -->
<g id="edge2" class="edge">
<title>backupy__ArgparseCustomFormatter___split_lines&#45;&gt;backupy__ArgparseCustomFormatter___split_lines</title>
<path fill="none" stroke="#000000" d="M561.1588,-1218.9739C588.6618,-1236.6267 623.3454,-1230.9688 623.3454,-1202 623.3454,-1176.0865 595.5921,-1168.8261 570.0514,-1180.2186"/>
<polygon fill="#000000" stroke="#000000" points="568.291,-1177.1915 561.1588,-1185.0261 571.6201,-1183.3492 568.291,-1177.1915"/>
</g>
<!-- backupy__BackupManager____init__&#45;&gt;backupy__ConfigObject -->
<g id="edge14" class="edge">
<title>backupy__BackupManager____init__&#45;&gt;backupy__ConfigObject</title>
<path fill="none" stroke="#000000" d="M462.4791,-1040.4686C448.3419,-1016.4981 422.922,-971.9095 405,-932 384.4201,-886.1718 365.4654,-830.803 354.8506,-798.1014"/>
<polygon fill="#000000" stroke="#000000" points="358.099,-796.7699 351.7058,-788.3214 351.435,-798.9127 358.099,-796.7699"/>
</g>
<!-- backupy__BackupManager__loadJson -->
<g id="node21" class="node">
<title>backupy__BackupManager__loadJson</title>
<ellipse fill="#ff9999" fill-opacity="0.698039" stroke="#000000" cx="575" cy="-914" rx="41.6928" ry="18"/>
<text text-anchor="middle" x="575" y="-910.3" font-family="Times,serif" font-size="14.00" fill="#000000">loadJson</text>
</g>
<!-- backupy__BackupManager____init__&#45;&gt;backupy__BackupManager__loadJson -->
<g id="edge12" class="edge">
<title>backupy__BackupManager____init__&#45;&gt;backupy__BackupManager__loadJson</title>
<path fill="none" stroke="#000000" d="M485.3036,-1040.6302C503.0705,-1015.5475 536.0371,-969.0064 556.6744,-939.8714"/>
<polygon fill="#000000" stroke="#000000" points="559.7287,-941.6147 562.6528,-931.4314 554.0165,-937.5686 559.7287,-941.6147"/>
</g>
<!-- backupy__BackupManager__saveJson -->
<g id="node26" class="node">
<title>backupy__BackupManager__saveJson</title>
<ellipse fill="#ff9999" fill-opacity="0.698039" stroke="#000000" cx="462" cy="-914" rx="42.4939" ry="18"/>
<text text-anchor="middle" x="462" y="-910.3" font-family="Times,serif" font-size="14.00" fill="#000000">saveJson</text>
</g>
<!-- backupy__BackupManager____init__&#45;&gt;backupy__BackupManager__saveJson -->
<g id="edge13" class="edge">
<title>backupy__BackupManager____init__&#45;&gt;backupy__BackupManager__saveJson</title>
<path fill="none" stroke="#000000" d="M471.6068,-1039.7623C469.7306,-1015.201 466.3731,-971.2474 464.1659,-942.3541"/>
<polygon fill="#000000" stroke="#000000" points="467.6334,-941.794 463.3818,-932.0896 460.6538,-942.3272 467.6334,-941.794"/>
</g>
<!-- backupy__ConfigObject____init__ -->
<g id="node28" class="node">
<title>backupy__ConfigObject____init__</title>
<ellipse fill="#ff9999" fill-opacity="0.698039" stroke="#000000" cx="1907" cy="-770" rx="40.0939" ry="18"/>
<text text-anchor="middle" x="1907" y="-766.3" font-family="Times,serif" font-size="14.00" fill="#000000">__init__</text>
</g>
<!-- backupy__BackupManager____init__&#45;&gt;backupy__ConfigObject____init__ -->
<g id="edge11" class="edge">
<title>backupy__BackupManager____init__&#45;&gt;backupy__ConfigObject____init__</title>
<path fill="none" stroke="#000000" d="M513.4175,-1056.9645C730.2544,-1051.0637 1749.8677,-1018.8306 1857,-932 1897.1675,-899.4443 1905.753,-835.2913 1907.1857,-798.2318"/>
<polygon fill="#000000" stroke="#000000" points="1910.6877,-798.1852 1907.4244,-788.1055 1903.6896,-798.0202 1910.6877,-798.1852"/>
</g>
<!-- backupy__BackupManager___databaseAndCorruptionCheck -->
<g id="node9" class="node">
<title>backupy__BackupManager___databaseAndCorruptionCheck</title>
<ellipse fill="#ff9999" fill-opacity="0.698039" stroke="#000000" cx="1405" cy="-914" rx="121.5784" ry="18"/>
<text text-anchor="middle" x="1405" y="-910.3" font-family="Times,serif" font-size="14.00" fill="#000000">_databaseAndCorruptionCheck</text>
</g>
<!-- backupy__DirInfo__getDicts -->
<g id="node34" class="node">
<title>backupy__DirInfo__getDicts</title>
<ellipse fill="#ff9999" fill-opacity="0.698039" stroke="#000000" cx="1651" cy="-338" rx="40.0939" ry="18"/>
<text text-anchor="middle" x="1651" y="-334.3" font-family="Times,serif" font-size="14.00" fill="#000000">getDicts</text>
</g>
<!-- backupy__BackupManager___databaseAndCorruptionCheck&#45;&gt;backupy__DirInfo__getDicts -->
<g id="edge37" class="edge">
<title>backupy__BackupManager___databaseAndCorruptionCheck&#45;&gt;backupy__DirInfo__getDicts</title>
<path fill="none" stroke="#000000" d="M1407.6511,-895.8283C1411.3189,-868.5295 1417.2491,-815.3032 1415,-770"/>
</g>
<!-- backupy__BackupManager___performBackup -->
<g id="node10" class="node">
<title>backupy__BackupManager___performBackup</title>
<ellipse fill="#ff9999" fill-opacity="0.698039" stroke="#000000" cx="1184" cy="-914" rx="70.6878" ry="18"/>
<text text-anchor="middle" x="1184" y="-910.3" font-family="Times,serif" font-size="14.00" fill="#000000">_performBackup</text>
</g>
<!-- backupy__BackupManager__copyFiles -->
<g id="node17" class="node">
<title>backupy__BackupManager__copyFiles</title>
<ellipse fill="#ff9999" fill-opacity="0.698039" stroke="#000000" cx="1340" cy="-770" rx="44.6926" ry="18"/>
<text text-anchor="middle" x="1340" y="-766.3" font-family="Times,serif" font-size="14.00" fill="#000000">copyFiles</text>
</g>
<!-- backupy__BackupManager___performBackup&#45;&gt;backupy__BackupManager__copyFiles -->
<g id="edge41" class="edge">
<title>backupy__BackupManager___performBackup&#45;&gt;backupy__BackupManager__copyFiles</title>
<path fill="none" stroke="#000000" d="M1202.8172,-896.6302C1230.7575,-870.8392 1283.2759,-822.3608 1314.6005,-793.4457"/>
<polygon fill="#000000" stroke="#000000" points="1317.1058,-795.8963 1322.0798,-786.5417 1312.3578,-790.7527 1317.1058,-795.8963"/>
</g>
<!-- backupy__BackupManager__handleChangedFiles -->
<g id="node18" class="node">
<title>backupy__BackupManager__handleChangedFiles</title>
<ellipse fill="#ff9999" fill-opacity="0.698039" stroke="#000000" cx="1184" cy="-770" rx="82.5854" ry="18"/>
<text text-anchor="middle" x="1184" y="-766.3" font-family="Times,serif" font-size="14.00" fill="#000000">handleChangedFiles</text>
</g>
<!-- backupy__BackupManager___performBackup&#45;&gt;backupy__BackupManager__handleChangedFiles -->
<g id="edge42" class="edge">
<title>backupy__BackupManager___performBackup&#45;&gt;backupy__BackupManager__handleChangedFiles</title>
<path fill="none" stroke="#000000" d="M1184,-895.7623C1184,-871.201 1184,-827.2474 1184,-798.3541"/>
<polygon fill="#000000" stroke="#000000" points="1187.5001,-798.0896 1184,-788.0896 1180.5001,-798.0897 1187.5001,-798.0896"/>
</g>
<!-- backupy__BackupManager__handleDeletedFiles -->
<g id="node19" class="node">
<title>backupy__BackupManager__handleDeletedFiles</title>
<ellipse fill="#ff9999" fill-opacity="0.698039" stroke="#000000" cx="962" cy="-770" rx="78.7863" ry="18"/>
<text text-anchor="middle" x="962" y="-766.3" font-family="Times,serif" font-size="14.00" fill="#000000">handleDeletedFiles</text>
</g>
<!-- backupy__BackupManager___performBackup&#45;&gt;backupy__BackupManager__handleDeletedFiles -->
<g id="edge43" class="edge">
<title>backupy__BackupManager___performBackup&#45;&gt;backupy__BackupManager__handleDeletedFiles</title>
<path fill="none" stroke="#000000" d="M1158.0993,-897.1995C1118.2102,-871.3256 1041.6783,-821.6832 996.9296,-792.657"/>
<polygon fill="#000000" stroke="#000000" points="998.7182,-789.6454 988.4239,-787.1398 994.9088,-795.5181 998.7182,-789.6454"/>
</g>
<!-- backupy__BackupManager__handleMovedFiles -->
<g id="node20" class="node">
<title>backupy__BackupManager__handleMovedFiles</title>
<ellipse fill="#ff9999" fill-opacity="0.698039" stroke="#000000" cx="1035" cy="-626" rx="76.8869" ry="18"/>
<text text-anchor="middle" x="1035" y="-622.3" font-family="Times,serif" font-size="14.00" fill="#000000">handleMovedFiles</text>
</g>
<!-- backupy__BackupManager___performBackup&#45;&gt;backupy__BackupManager__handleMovedFiles -->
<g id="edge44" class="edge">
<title>backupy__BackupManager___performBackup&#45;&gt;backupy__BackupManager__handleMovedFiles</title>
<path fill="none" stroke="#000000" d="M1160.0868,-896.6962C1137.9404,-879.434 1105.6924,-850.9395 1087,-819 1055.9181,-765.8906 1042.9459,-693.7531 1037.9082,-654.4313"/>
<polygon fill="#000000" stroke="#000000" points="1041.3537,-653.7666 1036.6893,-644.2538 1034.4034,-654.5991 1041.3537,-653.7666"/>
</g>
<!-- backupy__BackupManager___performBackup&#45;&gt;backupy__DirInfo__getDicts -->
<g id="edge40" class="edge">
<title>backupy__BackupManager___performBackup&#45;&gt;backupy__DirInfo__getDicts</title>
<path fill="none" stroke="#000000" d="M1240.0692,-902.729C1288.5057,-890.1981 1357.1232,-865.3097 1399,-819 1414.3657,-802.0078 1416.136,-792.8812 1415,-770"/>
<path fill="none" stroke="#000000" d="M1415,-770C1414.6033,-762.0098 1407.7977,-485.4824 1415,-482"/>
</g>
<!-- backupy__BackupManager___printAndLogCompareDiffSummary -->
<g id="node11" class="node">
<title>backupy__BackupManager___printAndLogCompareDiffSummary</title>
<ellipse fill="#ff9999" fill-opacity="0.698039" stroke="#000000" cx="1699" cy="-914" rx="143.7746" ry="18"/>
<text text-anchor="middle" x="1699" y="-910.3" font-family="Times,serif" font-size="14.00" fill="#000000">_printAndLogCompareDiffSummary</text>
</g>
<!-- backupy__BackupManager___printAndLogCompareDiffSummary&#45;&gt;backupy__DirInfo__getDicts -->
<g id="edge39" class="edge">
<title>backupy__BackupManager___printAndLogCompareDiffSummary&#45;&gt;backupy__DirInfo__getDicts</title>
<path fill="none" stroke="#000000" d="M1590.9769,-902.1347C1512.3906,-886.7171 1419.0363,-851.3018 1415,-770"/>
</g>
<!-- backupy__BackupManager___printAndLogScanOnlyDiffSummary -->
<g id="node12" class="node">
<title>backupy__BackupManager___printAndLogScanOnlyDiffSummary</title>
<ellipse fill="#ff9999" fill-opacity="0.698039" stroke="#000000" cx="791" cy="-914" rx="145.6742" ry="18"/>
<text text-anchor="middle" x="791" y="-910.3" font-family="Times,serif" font-size="14.00" fill="#000000">_printAndLogScanOnlyDiffSummary</text>
</g>
<!-- backupy__BackupManager___printAndLogScanOnlyDiffSummary&#45;&gt;backupy__DirInfo__getDicts -->
<g id="edge38" class="edge">
<title>backupy__BackupManager___printAndLogScanOnlyDiffSummary&#45;&gt;backupy__DirInfo__getDicts</title>
<path fill="none" stroke="#000000" d="M773.4162,-895.9461C725.9024,-845.0047 603.5235,-698.008 680,-608 787.301,-481.7135 1265.7634,-554.0431 1415,-482"/>
<path fill="none" stroke="#000000" d="M1415,-482C1496.5005,-441.8541 1521.303,-438.7144 1596,-387 1606.8431,-379.4931 1617.8753,-370.0828 1627.1848,-361.5209"/>
<polygon fill="#000000" stroke="#000000" points="1629.6696,-363.9886 1634.5576,-354.5887 1624.8746,-358.8888 1629.6696,-363.9886"/>
</g>
<!-- backupy__BackupManager__abortRun -->
<g id="node13" class="node">
<title>backupy__BackupManager__abortRun</title>
<ellipse fill="#ff9999" fill-opacity="0.698039" stroke="#000000" cx="1009" cy="-914" rx="43.5923" ry="18"/>
<text text-anchor="middle" x="1009" y="-910.3" font-family="Times,serif" font-size="14.00" fill="#000000">abortRun</text>
</g>
<!-- backupy__BackupManager__writeLog -->
<g id="node27" class="node">
<title>backupy__BackupManager__writeLog</title>
<ellipse fill="#ff9999" fill-opacity="0.698039" stroke="#000000" cx="811" cy="-770" rx="42.7926" ry="18"/>
<text text-anchor="middle" x="811" y="-766.3" font-family="Times,serif" font-size="14.00" fill="#000000">writeLog</text>
</g>
<!-- backupy__BackupManager__abortRun&#45;&gt;backupy__BackupManager__writeLog -->
<g id="edge20" class="edge">
<title>backupy__BackupManager__abortRun&#45;&gt;backupy__BackupManager__writeLog</title>
<path fill="none" stroke="#000000" d="M984.9353,-898.7734C956.6105,-880.6014 908.4358,-848.9073 869,-819 858.3328,-810.9102 847.0007,-801.527 837.2103,-793.15"/>
<polygon fill="#000000" stroke="#000000" points="839.2527,-790.2893 829.3973,-786.4004 834.6765,-795.5863 839.2527,-790.2893"/>
</g>
<!-- backupy__BackupManager__archiveFile -->
<g id="node14" class="node">
<title>backupy__BackupManager__archiveFile</title>
<ellipse fill="#ff9999" fill-opacity="0.698039" stroke="#000000" cx="1191" cy="-626" rx="50.0912" ry="18"/>
<text text-anchor="middle" x="1191" y="-622.3" font-family="Times,serif" font-size="14.00" fill="#000000">archiveFile</text>
</g>
<!-- backupy__BackupManager__moveFile -->
<g id="node22" class="node">
<title>backupy__BackupManager__moveFile</title>
<ellipse fill="#ff9999" fill-opacity="0.698039" stroke="#000000" cx="1022" cy="-482" rx="44.393" ry="18"/>
<text text-anchor="middle" x="1022" y="-478.3" font-family="Times,serif" font-size="14.00" fill="#000000">moveFile</text>
</g>
<!-- backupy__BackupManager__archiveFile&#45;&gt;backupy__BackupManager__moveFile -->
<g id="edge34" class="edge">
<title>backupy__BackupManager__archiveFile&#45;&gt;backupy__BackupManager__moveFile</title>
<path fill="none" stroke="#000000" d="M1171.2828,-609.1995C1140.9739,-583.3742 1082.8752,-533.87 1048.7831,-504.8211"/>
<polygon fill="#000000" stroke="#000000" points="1050.9549,-502.0734 1041.0733,-498.2518 1046.4149,-507.4015 1050.9549,-502.0734"/>
</g>
<!-- backupy__BackupManager__backup&#45;&gt;backupy__DirInfo -->
<g id="edge53" class="edge">
<title>backupy__BackupManager__backup&#45;&gt;backupy__DirInfo</title>
<path fill="none" stroke="#000000" d="M1047.4847,-1053.8677C925.0661,-1039.2453 521.7954,-987.8253 405,-932 317.2814,-890.0727 258,-867.2237 258,-770 258,-770 258,-770 258,-626 258,-449.5822 515.7506,-371.6642 621.5202,-347.1169"/>
<polygon fill="#000000" stroke="#000000" points="622.5866,-350.4641 631.5658,-344.8406 621.0395,-343.6372 622.5866,-350.4641"/>
</g>
<!-- backupy__BackupManager__backup&#45;&gt;backupy__BackupManager___databaseAndCorruptionCheck -->
<g id="edge45" class="edge">
<title>backupy__BackupManager__backup&#45;&gt;backupy__BackupManager___databaseAndCorruptionCheck</title>
<path fill="none" stroke="#000000" d="M1110.176,-1045.8467C1164.9141,-1021.3676 1289.042,-965.857 1357.4888,-935.2473"/>
<polygon fill="#000000" stroke="#000000" points="1359.0644,-938.3767 1366.7643,-931.0992 1356.2067,-931.9866 1359.0644,-938.3767"/>
</g>
<!-- backupy__BackupManager__backup&#45;&gt;backupy__BackupManager___performBackup -->
<g id="edge50" class="edge">
<title>backupy__BackupManager__backup&#45;&gt;backupy__BackupManager___performBackup</title>
<path fill="none" stroke="#000000" d="M1094.9826,-1040.9158C1112.4092,-1016.07 1144.9018,-969.7439 1165.4397,-940.4623"/>
<polygon fill="#000000" stroke="#000000" points="1168.5229,-942.1615 1171.3998,-931.9647 1162.792,-938.1419 1168.5229,-942.1615"/>
</g>
<!-- backupy__BackupManager__backup&#45;&gt;backupy__BackupManager___printAndLogCompareDiffSummary -->
<g id="edge49" class="edge">
<title>backupy__BackupManager__backup&#45;&gt;backupy__BackupManager___printAndLogCompareDiffSummary</title>
<path fill="none" stroke="#000000" d="M1116.1188,-1050.2579C1210.9572,-1028.0879 1485.4401,-963.9231 1621.1522,-932.1982"/>
<polygon fill="#000000" stroke="#000000" points="1622.1343,-935.563 1631.0751,-929.8786 1620.5409,-928.7468 1622.1343,-935.563"/>
</g>
<!-- backupy__BackupManager__backup&#45;&gt;backupy__BackupManager___printAndLogScanOnlyDiffSummary -->
<g id="edge47" class="edge">
<title>backupy__BackupManager__backup&#45;&gt;backupy__BackupManager___printAndLogScanOnlyDiffSummary</title>
<path fill="none" stroke="#000000" d="M1057.0869,-1045.221C1007.3014,-1020.6692 897.7419,-966.6399 835.8553,-936.1204"/>
<polygon fill="#000000" stroke="#000000" points="837.2326,-932.8972 826.7159,-931.6133 834.1366,-939.1753 837.2326,-932.8972"/>
</g>
<!-- backupy__BackupManager__backup&#45;&gt;backupy__BackupManager__abortRun -->
<g id="edge55" class="edge">
<title>backupy__BackupManager__backup&#45;&gt;backupy__BackupManager__abortRun</title>
<path fill="none" stroke="#000000" d="M1073.9261,-1040.3428C1061.166,-1015.5122 1037.8117,-970.066 1022.8666,-940.9836"/>
<polygon fill="#000000" stroke="#000000" points="1025.8318,-939.0962 1018.1481,-931.8017 1019.6058,-942.2957 1025.8318,-939.0962"/>
</g>
<!-- backupy__BackupManager__backup&#45;&gt;backupy__BackupManager__writeLog -->
<g id="edge52" class="edge">
<title>backupy__BackupManager__backup&#45;&gt;backupy__BackupManager__writeLog</title>
<path fill="none" stroke="#000000" d="M1086.7857,-1040.034C1092.5149,-1007.6528 1099.5472,-938.887 1067,-896 1009.9202,-820.7866 950.1695,-867.2357 869,-819 857.0182,-811.8797 845.0398,-802.2823 835.1059,-793.4685"/>
<polygon fill="#000000" stroke="#000000" points="837.3613,-790.7884 827.6165,-786.6304 832.6414,-795.9578 837.3613,-790.7884"/>
</g>
<!-- backupy__DirInfo____init__ -->
<g id="node29" class="node">
<title>backupy__DirInfo____init__</title>
<ellipse fill="#ff9999" fill-opacity="0.698039" stroke="#000000" cx="1761" cy="-338" rx="40.0939" ry="18"/>
<text text-anchor="middle" x="1761" y="-334.3" font-family="Times,serif" font-size="14.00" fill="#000000">__init__</text>
</g>
<!-- backupy__BackupManager__backup&#45;&gt;backupy__DirInfo____init__ -->
<g id="edge54" class="edge">
<title>backupy__BackupManager__backup&#45;&gt;backupy__DirInfo____init__</title>
<path fill="none" stroke="#000000" d="M1118.902,-1055.042C1255.1896,-1043.3976 1739.7983,-998.0958 1878,-932 2065.8052,-842.1809 2052.0979,-685.4543 2008,-482"/>
<path fill="none" stroke="#000000" d="M2008,-482C1980.2265,-390.9334 1894.9196,-440.2559 1816,-387 1805.0681,-379.623 1794.0186,-370.238 1784.7202,-361.6599"/>
<polygon fill="#000000" stroke="#000000" points="1787.0342,-359.031 1777.3624,-354.7058 1782.226,-364.1183 1787.0342,-359.031"/>
</g>
<!-- backupy__DirInfo__dirCompare -->
<g id="node31" class="node">
<title>backupy__DirInfo__dirCompare</title>
<ellipse fill="#ff9999" fill-opacity="0.698039" stroke="#000000" cx="1884" cy="-338" rx="53.0913" ry="18"/>
<text text-anchor="middle" x="1884" y="-334.3" font-family="Times,serif" font-size="14.00" fill="#000000">dirCompare</text>
</g>
<!-- backupy__BackupManager__backup&#45;&gt;backupy__DirInfo__dirCompare -->
<g id="edge51" class="edge">
<title>backupy__BackupManager__backup&#45;&gt;backupy__DirInfo__dirCompare</title>
<path fill="none" stroke="#000000" d="M2008,-482C1992.2743,-430.4369 1946.1063,-386.0318 1914.7636,-360.6537"/>
<polygon fill="#000000" stroke="#000000" points="1916.7631,-357.7728 1906.7486,-354.3145 1912.4207,-363.2631 1916.7631,-357.7728"/>
</g>
<!-- backupy__DirInfo__loadJson -->
<g id="node35" class="node">
<title>backupy__DirInfo__loadJson</title>
<ellipse fill="#ff9999" fill-opacity="0.698039" stroke="#000000" cx="2008" cy="-338" rx="41.6928" ry="18"/>
<text text-anchor="middle" x="2008" y="-334.3" font-family="Times,serif" font-size="14.00" fill="#000000">loadJson</text>
</g>
<!-- backupy__BackupManager__backup&#45;&gt;backupy__DirInfo__loadJson -->
<g id="edge46" class="edge">
<title>backupy__BackupManager__backup&#45;&gt;backupy__DirInfo__loadJson</title>
<path fill="none" stroke="#000000" d="M2008,-482C1996.1787,-443.2391 1999.3274,-395.8316 2003.2281,-366.2669"/>
<polygon fill="#000000" stroke="#000000" points="2006.7121,-366.6278 2004.6728,-356.2311 1999.7835,-365.6303 2006.7121,-366.6278"/>
</g>
<!-- backupy__DirInfo__scanDir -->
<g id="node38" class="node">
<title>backupy__DirInfo__scanDir</title>
<ellipse fill="#ff9999" fill-opacity="0.698039" stroke="#000000" cx="2117" cy="-338" rx="38.1938" ry="18"/>
<text text-anchor="middle" x="2117" y="-334.3" font-family="Times,serif" font-size="14.00" fill="#000000">scanDir</text>
</g>
<!-- backupy__BackupManager__backup&#45;&gt;backupy__DirInfo__scanDir -->
<g id="edge48" class="edge">
<title>backupy__BackupManager__backup&#45;&gt;backupy__DirInfo__scanDir</title>
<path fill="none" stroke="#000000" d="M2008,-482C1999.7517,-454.9545 2057.229,-394.5417 2091.915,-361.2024"/>
<polygon fill="#000000" stroke="#000000" points="2094.5195,-363.5555 2099.3555,-354.1287 2089.6964,-358.4823 2094.5195,-363.5555"/>
</g>
<!-- backupy__BackupManager__copyFile -->
<g id="node16" class="node">
<title>backupy__BackupManager__copyFile</title>
<ellipse fill="#ff9999" fill-opacity="0.698039" stroke="#000000" cx="1312" cy="-626" rx="41.6928" ry="18"/>
<text text-anchor="middle" x="1312" y="-622.3" font-family="Times,serif" font-size="14.00" fill="#000000">copyFile</text>
</g>
<!-- backupy__BackupManager__copyFile&#45;&gt;backupy__DirInfo -->
<g id="edge24" class="edge">
<title>backupy__BackupManager__copyFile&#45;&gt;backupy__DirInfo</title>
<path fill="none" stroke="#000000" d="M1279.3298,-614.744C1271.7245,-612.3346 1263.6215,-609.9351 1256,-608 1004.8191,-544.2248 858.607,-690.5815 683,-500 649.7435,-463.9076 653.7646,-402.2999 659.8048,-366.3584"/>
<polygon fill="#000000" stroke="#000000" points="663.3278,-366.5547 661.7051,-356.0849 656.4445,-365.2814 663.3278,-366.5547"/>
</g>
<!-- backupy__DirInfo__updateDictOnCopy -->
<g id="node41" class="node">
<title>backupy__DirInfo__updateDictOnCopy</title>
<ellipse fill="#ff9999" fill-opacity="0.698039" stroke="#000000" cx="1388" cy="-338" rx="79.0865" ry="18"/>
<text text-anchor="middle" x="1388" y="-334.3" font-family="Times,serif" font-size="14.00" fill="#000000">updateDictOnCopy</text>
</g>
<!-- backupy__BackupManager__copyFile&#45;&gt;backupy__DirInfo__updateDictOnCopy -->
<g id="edge25" class="edge">
<title>backupy__BackupManager__copyFile&#45;&gt;backupy__DirInfo__updateDictOnCopy</title>
<path fill="none" stroke="#000000" d="M1332,-482C1329.8227,-438.6754 1352.7438,-392.6233 1369.9221,-364.5789"/>
<polygon fill="#000000" stroke="#000000" points="1373.0946,-366.1107 1375.4831,-355.7885 1367.179,-362.3683 1373.0946,-366.1107"/>
</g>
<!-- backupy__DirInfo__verifyCrcOnCopy -->
<g id="node44" class="node">
<title>backupy__DirInfo__verifyCrcOnCopy</title>
<ellipse fill="#ff9999" fill-opacity="0.698039" stroke="#000000" cx="1206" cy="-338" rx="74.187" ry="18"/>
<text text-anchor="middle" x="1206" y="-334.3" font-family="Times,serif" font-size="14.00" fill="#000000">verifyCrcOnCopy</text>
</g>
<!-- backupy__BackupManager__copyFile&#45;&gt;backupy__DirInfo__verifyCrcOnCopy -->
<g id="edge23" class="edge">
<title>backupy__BackupManager__copyFile&#45;&gt;backupy__DirInfo__verifyCrcOnCopy</title>
<path fill="none" stroke="#000000" d="M1316.7344,-607.9116C1323.3457,-580.7191 1334.293,-527.6268 1332,-482"/>
<path fill="none" stroke="#000000" d="M1332,-482C1329.2987,-428.2488 1279.5523,-384.858 1243.3884,-360.2422"/>
<polygon fill="#000000" stroke="#000000" points="1245.2565,-357.2815 1234.9839,-354.6882 1241.3972,-363.1215 1245.2565,-357.2815"/>
</g>
<!-- backupy__BackupManager__copyFiles&#45;&gt;backupy__BackupManager__copyFile -->
<g id="edge29" class="edge">
<title>backupy__BackupManager__copyFiles&#45;&gt;backupy__BackupManager__copyFile</title>
<path fill="none" stroke="#000000" d="M1336.5104,-752.0535C1331.7317,-727.4774 1323.1029,-683.1008 1317.4634,-654.0974"/>
<polygon fill="#000000" stroke="#000000" points="1320.878,-653.3208 1315.5336,-644.1727 1314.0067,-654.6569 1320.878,-653.3208"/>
</g>
<!-- backupy__BackupManager__handleChangedFiles&#45;&gt;backupy__BackupManager__archiveFile -->
<g id="edge36" class="edge">
<title>backupy__BackupManager__handleChangedFiles&#45;&gt;backupy__BackupManager__archiveFile</title>
<path fill="none" stroke="#000000" d="M1184.8866,-751.7623C1186.0805,-727.201 1188.2171,-683.2474 1189.6217,-654.3541"/>
<polygon fill="#000000" stroke="#000000" points="1193.1309,-654.2478 1190.1206,-644.0896 1186.1391,-653.9079 1193.1309,-654.2478"/>
</g>
<!-- backupy__BackupManager__handleChangedFiles&#45;&gt;backupy__BackupManager__copyFile -->
<g id="edge35" class="edge">
<title>backupy__BackupManager__handleChangedFiles&#45;&gt;backupy__BackupManager__copyFile</title>
<path fill="none" stroke="#000000" d="M1199.9525,-752.0535C1222.7403,-726.4171 1264.68,-679.235 1290.2823,-650.4324"/>
<polygon fill="#000000" stroke="#000000" points="1293.013,-652.6286 1297.0407,-642.8292 1287.7811,-647.978 1293.013,-652.6286"/>
</g>
<!-- backupy__BackupManager__moveFiles -->
<g id="node23" class="node">
<title>backupy__BackupManager__moveFiles</title>
<ellipse fill="#ff9999" fill-opacity="0.698039" stroke="#000000" cx="881" cy="-626" rx="48.1917" ry="18"/>
<text text-anchor="middle" x="881" y="-622.3" font-family="Times,serif" font-size="14.00" fill="#000000">moveFiles</text>
</g>
<!-- backupy__BackupManager__handleDeletedFiles&#45;&gt;backupy__BackupManager__moveFiles -->
<g id="edge32" class="edge">
<title>backupy__BackupManager__handleDeletedFiles&#45;&gt;backupy__BackupManager__moveFiles</title>
<path fill="none" stroke="#000000" d="M951.9051,-752.0535C937.8226,-727.0179 912.182,-681.4347 895.899,-652.4872"/>
<polygon fill="#000000" stroke="#000000" points="898.9209,-650.7202 890.9677,-643.7204 892.8198,-654.1521 898.9209,-650.7202"/>
</g>
<!-- backupy__BackupManager__removeFiles -->
<g id="node25" class="node">
<title>backupy__BackupManager__removeFiles</title>
<ellipse fill="#ff9999" fill-opacity="0.698039" stroke="#000000" cx="749" cy="-626" rx="54.6905" ry="18"/>
<text text-anchor="middle" x="749" y="-622.3" font-family="Times,serif" font-size="14.00" fill="#000000">removeFiles</text>
</g>
<!-- backupy__BackupManager__handleDeletedFiles&#45;&gt;backupy__BackupManager__removeFiles -->
<g id="edge31" class="edge">
<title>backupy__BackupManager__handleDeletedFiles&#45;&gt;backupy__BackupManager__removeFiles</title>
<path fill="none" stroke="#000000" d="M936.7297,-752.9158C898.0688,-726.7789 824.2472,-676.8713 781.6022,-648.0409"/>
<polygon fill="#000000" stroke="#000000" points="783.4987,-645.0983 773.2539,-642.397 779.5781,-650.8974 783.4987,-645.0983"/>
</g>
<!-- backupy__BackupManager__handleMovedFiles&#45;&gt;backupy__BackupManager__moveFile -->
<g id="edge33" class="edge">
<title>backupy__BackupManager__handleMovedFiles&#45;&gt;backupy__BackupManager__moveFile</title>
<path fill="none" stroke="#000000" d="M1033.3535,-607.7623C1031.1362,-583.201 1027.1682,-539.2474 1024.5597,-510.3541"/>
<polygon fill="#000000" stroke="#000000" points="1028.0181,-509.7344 1023.6331,-500.0896 1021.0465,-510.3638 1028.0181,-509.7344"/>
</g>
<!-- backupy__BackupManager__loadJson&#45;&gt;backupy__ConfigObject -->
<g id="edge17" class="edge">
<title>backupy__BackupManager__loadJson&#45;&gt;backupy__ConfigObject</title>
<path fill="none" stroke="#000000" d="M547.9322,-900.2312C514.2655,-882.7406 455.4383,-850.9698 408,-819 396.509,-811.2559 384.4345,-801.9953 374.0256,-793.6202"/>
<polygon fill="#000000" stroke="#000000" points="376.0398,-790.7465 366.0779,-787.1393 371.616,-796.1715 376.0398,-790.7465"/>
</g>
<!-- backupy__BackupManager__loadJson&#45;&gt;backupy__ConfigObject____init__ -->
<g id="edge16" class="edge">
<title>backupy__BackupManager__loadJson&#45;&gt;backupy__ConfigObject____init__</title>
<path fill="none" stroke="#000000" d="M606.9242,-902.2336C614.7053,-899.7864 623.0728,-897.4986 631,-896 899.4485,-845.2525 1608.9929,-931.4071 1858,-819 1869.7036,-813.7167 1880.1657,-804.3213 1888.3872,-795.161"/>
<polygon fill="#000000" stroke="#000000" points="1891.2555,-797.188 1895.0102,-787.2808 1885.8968,-792.6842 1891.2555,-797.188"/>
</g>
<!-- backupy__BackupManager__moveFile&#45;&gt;backupy__DirInfo -->
<g id="edge26" class="edge">
<title>backupy__BackupManager__moveFile&#45;&gt;backupy__DirInfo</title>
<path fill="none" stroke="#000000" d="M980.8046,-475.419C919.7845,-464.3381 803.3051,-437.9947 717,-387 706.044,-380.5265 695.6,-371.2634 687.0492,-362.5304"/>
<polygon fill="#000000" stroke="#000000" points="689.4511,-359.9751 680.057,-355.0759 684.3456,-364.764 689.4511,-359.9751"/>
</g>
<!-- backupy__DirInfo__updateDictOnMove -->
<g id="node42" class="node">
<title>backupy__DirInfo__updateDictOnMove</title>
<ellipse fill="#ff9999" fill-opacity="0.698039" stroke="#000000" cx="1022" cy="-338" rx="81.4863" ry="18"/>
<text text-anchor="middle" x="1022" y="-334.3" font-family="Times,serif" font-size="14.00" fill="#000000">updateDictOnMove</text>
</g>
<!-- backupy__BackupManager__moveFile&#45;&gt;backupy__DirInfo__updateDictOnMove -->
<g id="edge27" class="edge">
<title>backupy__BackupManager__moveFile&#45;&gt;backupy__DirInfo__updateDictOnMove</title>
<path fill="none" stroke="#000000" d="M1022,-463.7623C1022,-439.201 1022,-395.2474 1022,-366.3541"/>
<polygon fill="#000000" stroke="#000000" points="1025.5001,-366.0896 1022,-356.0896 1018.5001,-366.0897 1025.5001,-366.0896"/>
</g>
<!-- backupy__BackupManager__moveFiles&#45;&gt;backupy__BackupManager__moveFile -->
<g id="edge30" class="edge">
<title>backupy__BackupManager__moveFiles&#45;&gt;backupy__BackupManager__moveFile</title>
<path fill="none" stroke="#000000" d="M897.7282,-608.9158C922.6389,-583.4752 969.6014,-535.5134 998.1191,-506.389"/>
<polygon fill="#000000" stroke="#000000" points="1000.798,-508.6558 1005.2935,-499.0619 995.7964,-503.7584 1000.798,-508.6558"/>
</g>
<!-- backupy__BackupManager__removeFile -->
<g id="node24" class="node">
<title>backupy__BackupManager__removeFile</title>
<ellipse fill="#ff9999" fill-opacity="0.698039" stroke="#000000" cx="749" cy="-482" rx="51.1914" ry="18"/>
<text text-anchor="middle" x="749" y="-478.3" font-family="Times,serif" font-size="14.00" fill="#000000">removeFile</text>
</g>
<!-- backupy__BackupManager__removeFile&#45;&gt;backupy__DirInfo -->
<g id="edge21" class="edge">
<title>backupy__BackupManager__removeFile&#45;&gt;backupy__DirInfo</title>
<path fill="none" stroke="#000000" d="M738.8226,-464.3428C724.3702,-439.2687 697.801,-393.1728 681.0627,-364.1328"/>
<polygon fill="#000000" stroke="#000000" points="684.0276,-362.2679 676.0014,-355.3519 677.9629,-365.7636 684.0276,-362.2679"/>
</g>
<!-- backupy__DirInfo__updateDictOnRemove -->
<g id="node43" class="node">
<title>backupy__DirInfo__updateDictOnRemove</title>
<ellipse fill="#ff9999" fill-opacity="0.698039" stroke="#000000" cx="822" cy="-338" rx="89.8845" ry="18"/>
<text text-anchor="middle" x="822" y="-334.3" font-family="Times,serif" font-size="14.00" fill="#000000">updateDictOnRemove</text>
</g>
<!-- backupy__BackupManager__removeFile&#45;&gt;backupy__DirInfo__updateDictOnRemove -->
<g id="edge22" class="edge">
<title>backupy__BackupManager__removeFile&#45;&gt;backupy__DirInfo__updateDictOnRemove</title>
<path fill="none" stroke="#000000" d="M758.0979,-464.0535C770.6659,-439.2618 793.4485,-394.3207 808.1413,-365.3378"/>
<polygon fill="#000000" stroke="#000000" points="811.3876,-366.6747 812.7874,-356.1727 805.144,-363.5095 811.3876,-366.6747"/>
</g>
<!-- backupy__BackupManager__removeFiles&#45;&gt;backupy__BackupManager__removeFile -->
<g id="edge28" class="edge">
<title>backupy__BackupManager__removeFiles&#45;&gt;backupy__BackupManager__removeFile</title>
<path fill="none" stroke="#000000" d="M749,-607.7623C749,-583.201 749,-539.2474 749,-510.3541"/>
<polygon fill="#000000" stroke="#000000" points="752.5001,-510.0896 749,-500.0896 745.5001,-510.0897 752.5001,-510.0896"/>
</g>
<!-- backupy__BackupManager__saveJson&#45;&gt;backupy__ConfigObject -->
<g id="edge15" class="edge">
<title>backupy__BackupManager__saveJson&#45;&gt;backupy__ConfigObject</title>
<path fill="none" stroke="#000000" d="M448.2378,-896.9158C428.0276,-871.8273 390.1741,-824.8368 366.6295,-795.6091"/>
<polygon fill="#000000" stroke="#000000" points="369.1051,-793.1029 360.1061,-787.511 363.6538,-797.4942 369.1051,-793.1029"/>
</g>
<!-- backupy__DirInfo__calcCrc -->
<g id="node30" class="node">
<title>backupy__DirInfo__calcCrc</title>
<ellipse fill="#ff9999" fill-opacity="0.698039" stroke="#000000" cx="1206" cy="-50" rx="37.8943" ry="18"/>
<text text-anchor="middle" x="1206" y="-46.3" font-family="Times,serif" font-size="14.00" fill="#000000">calcCrc</text>
</g>
<!-- backupy__BackupManager__writeLog&#45;&gt;backupy__DirInfo__calcCrc -->
<g id="edge18" class="edge">
<title>backupy__BackupManager__writeLog&#45;&gt;backupy__DirInfo__calcCrc</title>
<path fill="none" stroke="#000000" d="M789.6811,-754.2886C761.2553,-732.3807 710.9398,-690.1216 680,-644 597.6013,-521.1692 523.6127,-444.1564 604,-320 731.5079,-123.0669 1040.3339,-68.424 1158.7234,-54.4464"/>
<polygon fill="#000000" stroke="#000000" points="1159.3711,-57.8954 1168.9122,-53.2891 1158.581,-50.9401 1159.3711,-57.8954"/>
</g>
<!-- backupy__DirInfo__saveJson -->
<g id="node37" class="node">
<title>backupy__DirInfo__saveJson</title>
<ellipse fill="#ff9999" fill-opacity="0.698039" stroke="#000000" cx="1539" cy="-338" rx="42.4939" ry="18"/>
<text text-anchor="middle" x="1539" y="-334.3" font-family="Times,serif" font-size="14.00" fill="#000000">saveJson</text>
</g>
<!-- backupy__BackupManager__writeLog&#45;&gt;backupy__DirInfo__saveJson -->
<g id="edge19" class="edge">
<title>backupy__BackupManager__writeLog&#45;&gt;backupy__DirInfo__saveJson</title>
<path fill="none" stroke="#000000" d="M838.5309,-756.1438C848.0089,-751.7839 858.8051,-747.2612 869,-744 1084.4333,-675.0858 1207.5214,-803.3967 1368,-644 1398.2722,-613.9319 1385.6906,-492.9649 1407,-456 1410.4756,-449.971 1475.1047,-393.4091 1512.6167,-360.835"/>
<polygon fill="#000000" stroke="#000000" points="1514.9182,-363.472 1520.178,-354.275 1510.3309,-358.1845 1514.9182,-363.472"/>
</g>
<!-- backupy__DirInfo__fileMatch -->
<g id="node32" class="node">
<title>backupy__DirInfo__fileMatch</title>
<ellipse fill="#ff9999" fill-opacity="0.698039" stroke="#000000" cx="1874" cy="-194" rx="45.4919" ry="18"/>
<text text-anchor="middle" x="1874" y="-190.3" font-family="Times,serif" font-size="14.00" fill="#000000">fileMatch</text>
</g>
<!-- backupy__DirInfo__dirCompare&#45;&gt;backupy__DirInfo__fileMatch -->
<g id="edge10" class="edge">
<title>backupy__DirInfo__dirCompare&#45;&gt;backupy__DirInfo__fileMatch</title>
<path fill="none" stroke="#000000" d="M1882.7335,-319.7623C1881.0279,-295.201 1877.9755,-251.2474 1875.969,-222.3541"/>
<polygon fill="#000000" stroke="#000000" points="1879.4407,-221.8231 1875.2562,-212.0896 1872.4575,-222.3081 1879.4407,-221.8231"/>
</g>
<!-- backupy__DirInfo__timeMatch -->
<g id="node40" class="node">
<title>backupy__DirInfo__timeMatch</title>
<ellipse fill="#ff9999" fill-opacity="0.698039" stroke="#000000" cx="1989" cy="-50" rx="50.0912" ry="18"/>
<text text-anchor="middle" x="1989" y="-46.3" font-family="Times,serif" font-size="14.00" fill="#000000">timeMatch</text>
</g>
<!-- backupy__DirInfo__fileMatch&#45;&gt;backupy__DirInfo__timeMatch -->
<g id="edge5" class="edge">
<title>backupy__DirInfo__fileMatch&#45;&gt;backupy__DirInfo__timeMatch</title>
<path fill="none" stroke="#000000" d="M1887.8717,-176.6302C1907.9893,-151.4394 1945.392,-104.6048 1968.6389,-75.4956"/>
<polygon fill="#000000" stroke="#000000" points="1971.5736,-77.4295 1975.0791,-67.4314 1966.1038,-73.0612 1971.5736,-77.4295"/>
</g>
<!-- backupy__DirInfo__getCrc -->
<g id="node33" class="node">
<title>backupy__DirInfo__getCrc</title>
<ellipse fill="#ff9999" fill-opacity="0.698039" stroke="#000000" cx="1206" cy="-194" rx="34.394" ry="18"/>
<text text-anchor="middle" x="1206" y="-190.3" font-family="Times,serif" font-size="14.00" fill="#000000">getCrc</text>
</g>
<!-- backupy__DirInfo__getCrc&#45;&gt;backupy__DirInfo__calcCrc -->
<g id="edge4" class="edge">
<title>backupy__DirInfo__getCrc&#45;&gt;backupy__DirInfo__calcCrc</title>
<path fill="none" stroke="#000000" d="M1206,-175.7623C1206,-151.201 1206,-107.2474 1206,-78.3541"/>
<polygon fill="#000000" stroke="#000000" points="1209.5001,-78.0896 1206,-68.0896 1202.5001,-78.0897 1209.5001,-78.0896"/>
</g>
<!-- backupy__DirInfo__pathMatch -->
<g id="node36" class="node">
<title>backupy__DirInfo__pathMatch</title>
<ellipse fill="#ff9999" fill-opacity="0.698039" stroke="#000000" cx="1997" cy="-194" rx="48.9926" ry="18"/>
<text text-anchor="middle" x="1997" y="-190.3" font-family="Times,serif" font-size="14.00" fill="#000000">pathMatch</text>
</g>
<!-- backupy__DirInfo__scanDir&#45;&gt;backupy__DirInfo__pathMatch -->
<g id="edge6" class="edge">
<title>backupy__DirInfo__scanDir&#45;&gt;backupy__DirInfo__pathMatch</title>
<path fill="none" stroke="#000000" d="M2102.9996,-321.1995C2082.09,-296.108 2042.5534,-248.6641 2018.1215,-219.3458"/>
<polygon fill="#000000" stroke="#000000" points="2020.7497,-217.0324 2011.659,-211.5908 2015.3721,-221.5137 2020.7497,-217.0324"/>
</g>
<!-- backupy__DirInfo__scanFile -->
<g id="node39" class="node">
<title>backupy__DirInfo__scanFile</title>
<ellipse fill="#ff9999" fill-opacity="0.698039" stroke="#000000" cx="2115" cy="-194" rx="40.0939" ry="18"/>
<text text-anchor="middle" x="2115" y="-190.3" font-family="Times,serif" font-size="14.00" fill="#000000">scanFile</text>
</g>
<!-- backupy__DirInfo__scanDir&#45;&gt;backupy__DirInfo__scanFile -->
<g id="edge7" class="edge">
<title>backupy__DirInfo__scanDir&#45;&gt;backupy__DirInfo__scanFile</title>
<path fill="none" stroke="#000000" d="M2116.7467,-319.7623C2116.4056,-295.201 2115.7951,-251.2474 2115.3938,-222.3541"/>
<polygon fill="#000000" stroke="#000000" points="2118.8899,-222.04 2115.2512,-212.0896 2111.8906,-222.1373 2118.8899,-222.04"/>
</g>
<!-- backupy__DirInfo__scanFile&#45;&gt;backupy__DirInfo__calcCrc -->
<g id="edge8" class="edge">
<title>backupy__DirInfo__scanFile&#45;&gt;backupy__DirInfo__calcCrc</title>
<path fill="none" stroke="#000000" d="M2083.5598,-182.6949C2075.9207,-180.2311 2067.7256,-177.8202 2060,-176 1757.1241,-104.6409 1383.7851,-66.1507 1253.5096,-54.1526"/>
<polygon fill="#000000" stroke="#000000" points="1253.7433,-50.6595 1243.4666,-53.236 1253.107,-57.6305 1253.7433,-50.6595"/>
</g>
<!-- backupy__DirInfo__scanFile&#45;&gt;backupy__DirInfo__timeMatch -->
<g id="edge9" class="edge">
<title>backupy__DirInfo__scanFile&#45;&gt;backupy__DirInfo__timeMatch</title>
<path fill="none" stroke="#000000" d="M2100.2996,-177.1995C2078.3445,-152.108 2036.8311,-104.6641 2011.1776,-75.3458"/>
<polygon fill="#000000" stroke="#000000" points="2013.6111,-72.8118 2004.392,-67.5908 2008.343,-77.4214 2013.6111,-72.8118"/>
</g>
<!-- backupy__DirInfo__verifyCrcOnCopy&#45;&gt;backupy__DirInfo__getCrc -->
<g id="edge3" class="edge">
<title>backupy__DirInfo__verifyCrcOnCopy&#45;&gt;backupy__DirInfo__getCrc</title>
<path fill="none" stroke="#000000" d="M1206,-319.7623C1206,-295.201 1206,-251.2474 1206,-222.3541"/>
<polygon fill="#000000" stroke="#000000" points="1209.5001,-222.0896 1206,-212.0896 1202.5001,-222.0897 1209.5001,-222.0896"/>
</g>
</g>
</svg>
