<?xml version="1.0" encoding="UTF-8" standalone="no"?>
<!DOCTYPE svg PUBLIC "-//W3C//DTD SVG 1.1//EN"
 "http://www.w3.org/Graphics/SVG/1.1/DTD/svg11.dtd">
<!-- Generated by graphviz version 2.40.1 (20161225.0304)
 -->
<!-- Title: G Pages: 1 -->
<svg width="2224pt" height="1388pt"
 viewBox="0.00 0.00 2224.00 1388.00" xmlns="http://www.w3.org/2000/svg" xmlns:xlink="http://www.w3.org/1999/xlink">
<g id="graph0" class="graph" transform="scale(1 1) rotate(0) translate(4 1384)">
<title>G</title>
<polygon fill="#ffffff" stroke="transparent" points="-4,4 -4,-1384 2220,-1384 2220,4 -4,4"/>
<g id="clust1" class="cluster">
<title>cluster_G</title>
<path fill="#808080" fill-opacity="0.094118" stroke="#000000" d="M20,-8C20,-8 2196,-8 2196,-8 2202,-8 2208,-14 2208,-20 2208,-20 2208,-1360 2208,-1360 2208,-1366 2202,-1372 2196,-1372 2196,-1372 20,-1372 20,-1372 14,-1372 8,-1366 8,-1360 8,-1360 8,-20 8,-20 8,-14 14,-8 20,-8"/>
</g>
<g id="clust2" class="cluster">
<title>cluster_backupy</title>
<path fill="#808080" fill-opacity="0.094118" stroke="#000000" d="M28,-16C28,-16 2188,-16 2188,-16 2194,-16 2200,-22 2200,-28 2200,-28 2200,-1270 2200,-1270 2200,-1276 2194,-1282 2188,-1282 2188,-1282 28,-1282 28,-1282 22,-1282 16,-1276 16,-1270 16,-1270 16,-28 16,-28 16,-22 22,-16 28,-16"/>
<text text-anchor="middle" x="1108" y="-1266.8" font-family="Times,serif" font-size="14.00" fill="#000000">backupy</text>
</g>
<g id="clust3" class="cluster">
<title>cluster_backupy__ArgparseCustomFormatter</title>
<path fill="#808080" fill-opacity="0.094118" stroke="#000000" d="M474,-1176C474,-1176 662,-1176 662,-1176 668,-1176 674,-1182 674,-1188 674,-1188 674,-1239 674,-1239 674,-1245 668,-1251 662,-1251 662,-1251 474,-1251 474,-1251 468,-1251 462,-1245 462,-1239 462,-1239 462,-1188 462,-1188 462,-1182 468,-1176 474,-1176"/>
<text text-anchor="middle" x="568" y="-1235.8" font-family="Times,serif" font-size="14.00" fill="#000000">backupy.ArgparseCustomFormatter</text>
</g>
<g id="clust4" class="cluster">
<title>cluster_backupy__BackupManager</title>
<path fill="#808080" fill-opacity="0.094118" stroke="#000000" d="M424,-456C424,-456 1839,-456 1839,-456 1845,-456 1851,-462 1851,-468 1851,-468 1851,-1095 1851,-1095 1851,-1101 1845,-1107 1839,-1107 1839,-1107 424,-1107 424,-1107 418,-1107 412,-1101 412,-1095 412,-1095 412,-468 412,-468 412,-462 418,-456 424,-456"/>
<text text-anchor="middle" x="1131.5" y="-1091.8" font-family="Times,serif" font-size="14.00" fill="#000000">backupy.BackupManager</text>
</g>
<g id="clust5" class="cluster">
<title>cluster_backupy__ConfigObject</title>
<path fill="#808080" fill-opacity="0.094118" stroke="#000000" d="M1871,-744C1871,-744 1987,-744 1987,-744 1993,-744 1999,-750 1999,-756 1999,-756 1999,-807 1999,-807 1999,-813 1993,-819 1987,-819 1987,-819 1871,-819 1871,-819 1865,-819 1859,-813 1859,-807 1859,-807 1859,-756 1859,-756 1859,-750 1865,-744 1871,-744"/>
<text text-anchor="middle" x="1929" y="-803.8" font-family="Times,serif" font-size="14.00" fill="#000000">backupy.ConfigObject</text>
</g>
<g id="clust6" class="cluster">
<title>cluster_backupy__DirInfo</title>
<path fill="#808080" fill-opacity="0.094118" stroke="#000000" d="M765,-24C765,-24 2180,-24 2180,-24 2186,-24 2192,-30 2192,-36 2192,-36 2192,-375 2192,-375 2192,-381 2186,-387 2180,-387 2180,-387 765,-387 765,-387 759,-387 753,-381 753,-375 753,-375 753,-36 753,-36 753,-30 759,-24 765,-24"/>
<text text-anchor="middle" x="1472.5" y="-371.8" font-family="Times,serif" font-size="14.00" fill="#000000">backupy.DirInfo</text>
</g>
<!-- backupy -->
<g id="node1" class="node">
<title>backupy</title>
<ellipse fill="#ffffff" fill-opacity="0.698039" stroke="#000000" cx="403" cy="-1346" rx="40.0939" ry="18"/>
<text text-anchor="middle" x="403" y="-1342.3" font-family="Times,serif" font-size="14.00" fill="#000000">backupy</text>
</g>
<!-- backupy__main -->
<g id="node6" class="node">
<title>backupy__main</title>
<ellipse fill="#fecccc" fill-opacity="0.698039" stroke="#000000" cx="403" cy="-1202" rx="28.6953" ry="18"/>
<text text-anchor="middle" x="403" y="-1198.3" font-family="Times,serif" font-size="14.00" fill="#000000">main</text>
</g>
<!-- backupy&#45;&gt;backupy__main -->
<g id="edge1" class="edge">
<title>backupy&#45;&gt;backupy__main</title>
<path fill="none" stroke="#000000" d="M403,-1327.7623C403,-1303.201 403,-1259.2474 403,-1230.3541"/>
<polygon fill="#000000" stroke="#000000" points="406.5001,-1230.0896 403,-1220.0896 399.5001,-1230.0897 406.5001,-1230.0896"/>
</g>
<!-- backupy__ArgparseCustomFormatter -->
<g id="node2" class="node">
<title>backupy__ArgparseCustomFormatter</title>
<ellipse fill="#fecccc" fill-opacity="0.698039" stroke="#000000" cx="130" cy="-1058" rx="105.8812" ry="18"/>
<text text-anchor="middle" x="130" y="-1054.3" font-family="Times,serif" font-size="14.00" fill="#000000">ArgparseCustomFormatter</text>
</g>
<!-- backupy__BackupManager -->
<g id="node3" class="node">
<title>backupy__BackupManager</title>
<ellipse fill="#fecccc" fill-opacity="0.698039" stroke="#000000" cx="334" cy="-1058" rx="69.5877" ry="18"/>
<text text-anchor="middle" x="334" y="-1054.3" font-family="Times,serif" font-size="14.00" fill="#000000">BackupManager</text>
</g>
<!-- backupy__ConfigObject -->
<g id="node4" class="node">
<title>backupy__ConfigObject</title>
<ellipse fill="#fecccc" fill-opacity="0.698039" stroke="#000000" cx="346" cy="-770" rx="58.4896" ry="18"/>
<text text-anchor="middle" x="346" y="-766.3" font-family="Times,serif" font-size="14.00" fill="#000000">ConfigObject</text>
</g>
<!-- backupy__DirInfo -->
<g id="node5" class="node">
<title>backupy__DirInfo</title>
<ellipse fill="#fecccc" fill-opacity="0.698039" stroke="#000000" cx="695" cy="-338" rx="37.0935" ry="18"/>
<text text-anchor="middle" x="695" y="-334.3" font-family="Times,serif" font-size="14.00" fill="#000000">DirInfo</text>
</g>
<!-- backupy__main&#45;&gt;backupy__ArgparseCustomFormatter -->
<g id="edge59" class="edge">
<title>backupy__main&#45;&gt;backupy__ArgparseCustomFormatter</title>
<path fill="none" stroke="#000000" d="M380.6593,-1190.2159C334.9675,-1166.1147 230.2158,-1110.8611 171.6211,-1079.954"/>
<polygon fill="#000000" stroke="#000000" points="173.1073,-1076.7809 162.6294,-1075.2111 169.8414,-1082.9724 173.1073,-1076.7809"/>
</g>
<!-- backupy__main&#45;&gt;backupy__BackupManager -->
<g id="edge57" class="edge">
<title>backupy__main&#45;&gt;backupy__BackupManager</title>
<path fill="none" stroke="#000000" d="M394.677,-1184.6302C382.8262,-1159.8982 360.9787,-1114.3034 346.987,-1085.1034"/>
<polygon fill="#000000" stroke="#000000" points="350.0466,-1083.3888 342.569,-1075.8831 343.7339,-1086.4137 350.0466,-1083.3888"/>
</g>
<!-- backupy__BackupManager____init__ -->
<g id="node8" class="node">
<title>backupy__BackupManager____init__</title>
<ellipse fill="#ff9999" fill-opacity="0.698039" stroke="#000000" cx="473" cy="-1058" rx="40.0939" ry="18"/>
<text text-anchor="middle" x="473" y="-1054.3" font-family="Times,serif" font-size="14.00" fill="#000000">__init__</text>
</g>
<!-- backupy__main&#45;&gt;backupy__BackupManager____init__ -->
<g id="edge58" class="edge">
<title>backupy__main&#45;&gt;backupy__BackupManager____init__</title>
<path fill="none" stroke="#000000" d="M411.4436,-1184.6302C423.4662,-1159.8982 445.6303,-1114.3034 459.8247,-1085.1034"/>
<polygon fill="#000000" stroke="#000000" points="463.0826,-1086.407 464.3068,-1075.8831 456.7871,-1083.3466 463.0826,-1086.407"/>
</g>
<!-- backupy__BackupManager__backup -->
<g id="node15" class="node">
<title>backupy__BackupManager__backup</title>
<ellipse fill="#ff9999" fill-opacity="0.698039" stroke="#000000" cx="1083" cy="-1058" rx="36.2938" ry="18"/>
<text text-anchor="middle" x="1083" y="-1054.3" font-family="Times,serif" font-size="14.00" fill="#000000">backup</text>
</g>
<!-- backupy__main&#45;&gt;backupy__BackupManager__backup -->
<g id="edge56" class="edge">
<title>backupy__main&#45;&gt;backupy__BackupManager__backup</title>
<path fill="none" stroke="#000000" d="M424.1806,-1189.732C433.3969,-1184.8404 444.4774,-1179.5419 455,-1176 665.879,-1105.0176 931.8115,-1072.8285 1037.0844,-1062.2171"/>
<polygon fill="#000000" stroke="#000000" points="1037.4528,-1065.6978 1047.0587,-1061.2282 1036.7621,-1058.732 1037.4528,-1065.6978"/>
</g>
<!-- backupy__ArgparseCustomFormatter___split_lines -->
<g id="node7" class="node">
<title>backupy__ArgparseCustomFormatter___split_lines</title>
<ellipse fill="#ff9999" fill-opacity="0.698039" stroke="#000000" cx="543" cy="-1202" rx="51.1914" ry="18"/>
<text text-anchor="middle" x="543" y="-1198.3" font-family="Times,serif" font-size="14.00" fill="#000000">_split_lines</text>
</g>
<!-- backupy__ArgparseCustomFormatter___split_lines&#45;&gt;backupy__ArgparseCustomFormatter___split_lines -->
<g id="edge2" class="edge">
<title>backupy__ArgparseCustomFormatter___split_lines&#45;&gt;backupy__ArgparseCustomFormatter___split_lines</title>
<path fill="none" stroke="#000000" d="M561.1588,-1218.9739C588.6618,-1236.6267 623.3454,-1230.9688 623.3454,-1202 623.3454,-1176.0865 595.5921,-1168.8261 570.0514,-1180.2186"/>
<polygon fill="#000000" stroke="#000000" points="568.291,-1177.1915 561.1588,-1185.0261 571.6201,-1183.3492 568.291,-1177.1915"/>
</g>
<!-- backupy__BackupManager____init__&#45;&gt;backupy__ConfigObject -->
<g id="edge14" class="edge">
<title>backupy__BackupManager____init__&#45;&gt;backupy__ConfigObject</title>
<path fill="none" stroke="#000000" d="M462.4791,-1040.4686C448.3419,-1016.4981 422.922,-971.9095 405,-932 384.4201,-886.1718 365.4654,-830.803 354.8506,-798.1014"/>
<polygon fill="#000000" stroke="#000000" points="358.099,-796.7699 351.7058,-788.3214 351.435,-798.9127 358.099,-796.7699"/>
</g>
<!-- backupy__BackupManager__loadJson -->
<g id="node21" class="node">
<title>backupy__BackupManager__loadJson</title>
<ellipse fill="#ff9999" fill-opacity="0.698039" stroke="#000000" cx="575" cy="-914" rx="41.6928" ry="18"/>
<text text-anchor="middle" x="575" y="-910.3" font-family="Times,serif" font-size="14.00" fill="#000000">loadJson</text>
</g>
<!-- backupy__BackupManager____init__&#45;&gt;backupy__BackupManager__loadJson -->
<g id="edge13" class="edge">
<title>backupy__BackupManager____init__&#45;&gt;backupy__BackupManager__loadJson</title>
<path fill="none" stroke="#000000" d="M485.3036,-1040.6302C503.0705,-1015.5475 536.0371,-969.0064 556.6744,-939.8714"/>
<polygon fill="#000000" stroke="#000000" points="559.7287,-941.6147 562.6528,-931.4314 554.0165,-937.5686 559.7287,-941.6147"/>
</g>
<!-- backupy__BackupManager__saveJson -->
<g id="node26" class="node">
<title>backupy__BackupManager__saveJson</title>
<ellipse fill="#ff9999" fill-opacity="0.698039" stroke="#000000" cx="462" cy="-914" rx="42.4939" ry="18"/>
<text text-anchor="middle" x="462" y="-910.3" font-family="Times,serif" font-size="14.00" fill="#000000">saveJson</text>
</g>
<!-- backupy__BackupManager____init__&#45;&gt;backupy__BackupManager__saveJson -->
<g id="edge15" class="edge">
<title>backupy__BackupManager____init__&#45;&gt;backupy__BackupManager__saveJson</title>
<path fill="none" stroke="#000000" d="M471.6068,-1039.7623C469.7306,-1015.201 466.3731,-971.2474 464.1659,-942.3541"/>
<polygon fill="#000000" stroke="#000000" points="467.6334,-941.794 463.3818,-932.0896 460.6538,-942.3272 467.6334,-941.794"/>
</g>
<!-- backupy__ConfigObject____init__ -->
<g id="node28" class="node">
<title>backupy__ConfigObject____init__</title>
<ellipse fill="#ff9999" fill-opacity="0.698039" stroke="#000000" cx="1907" cy="-770" rx="40.0939" ry="18"/>
<text text-anchor="middle" x="1907" y="-766.3" font-family="Times,serif" font-size="14.00" fill="#000000">__init__</text>
</g>
<!-- backupy__BackupManager____init__&#45;&gt;backupy__ConfigObject____init__ -->
<g id="edge12" class="edge">
<title>backupy__BackupManager____init__&#45;&gt;backupy__ConfigObject____init__</title>
<path fill="none" stroke="#000000" d="M513.4175,-1056.9645C730.2544,-1051.0637 1749.8677,-1018.8306 1857,-932 1897.1675,-899.4443 1905.753,-835.2913 1907.1857,-798.2318"/>
<polygon fill="#000000" stroke="#000000" points="1910.6877,-798.1852 1907.4244,-788.1055 1903.6896,-798.0202 1910.6877,-798.1852"/>
</g>
<!-- backupy__BackupManager___databaseAndCorruptionCheck -->
<g id="node9" class="node">
<title>backupy__BackupManager___databaseAndCorruptionCheck</title>
<ellipse fill="#ff9999" fill-opacity="0.698039" stroke="#000000" cx="1721" cy="-914" rx="121.5784" ry="18"/>
<text text-anchor="middle" x="1721" y="-910.3" font-family="Times,serif" font-size="14.00" fill="#000000">_databaseAndCorruptionCheck</text>
</g>
<!-- backupy__DirInfo__getDicts -->
<g id="node34" class="node">
<title>backupy__DirInfo__getDicts</title>
<ellipse fill="#ff9999" fill-opacity="0.698039" stroke="#000000" cx="1680" cy="-338" rx="40.0939" ry="18"/>
<text text-anchor="middle" x="1680" y="-334.3" font-family="Times,serif" font-size="14.00" fill="#000000">getDicts</text>
</g>
<!-- backupy__BackupManager___databaseAndCorruptionCheck&#45;&gt;backupy__DirInfo__getDicts -->
<g id="edge38" class="edge">
<title>backupy__BackupManager___databaseAndCorruptionCheck&#45;&gt;backupy__DirInfo__getDicts</title>
<path fill="none" stroke="#000000" d="M1693.2615,-896.326C1656.1405,-870.2841 1597.5354,-819.3389 1621,-770"/>
</g>
<!-- backupy__BackupManager___performBackup -->
<g id="node10" class="node">
<title>backupy__BackupManager___performBackup</title>
<ellipse fill="#ff9999" fill-opacity="0.698039" stroke="#000000" cx="1184" cy="-914" rx="70.6878" ry="18"/>
<text text-anchor="middle" x="1184" y="-910.3" font-family="Times,serif" font-size="14.00" fill="#000000">_performBackup</text>
</g>
<!-- backupy__BackupManager__copyFiles -->
<g id="node17" class="node">
<title>backupy__BackupManager__copyFiles</title>
<ellipse fill="#ff9999" fill-opacity="0.698039" stroke="#000000" cx="1437" cy="-770" rx="44.6926" ry="18"/>
<text text-anchor="middle" x="1437" y="-766.3" font-family="Times,serif" font-size="14.00" fill="#000000">copyFiles</text>
</g>
<!-- backupy__BackupManager___performBackup&#45;&gt;backupy__BackupManager__copyFiles -->
<g id="edge43" class="edge">
<title>backupy__BackupManager___performBackup&#45;&gt;backupy__BackupManager__copyFiles</title>
<path fill="none" stroke="#000000" d="M1221.8861,-898.6428C1262.0599,-881.6385 1326.6756,-852.2035 1378,-819 1389.6441,-811.467 1401.5798,-801.9525 1411.6422,-793.3159"/>
<polygon fill="#000000" stroke="#000000" points="1414.055,-795.8554 1419.2691,-786.6324 1409.4415,-790.5907 1414.055,-795.8554"/>
</g>
<!-- backupy__BackupManager__handleChangedFiles -->
<g id="node18" class="node">
<title>backupy__BackupManager__handleChangedFiles</title>
<ellipse fill="#ff9999" fill-opacity="0.698039" stroke="#000000" cx="1281" cy="-770" rx="82.5854" ry="18"/>
<text text-anchor="middle" x="1281" y="-766.3" font-family="Times,serif" font-size="14.00" fill="#000000">handleChangedFiles</text>
</g>
<!-- backupy__BackupManager___performBackup&#45;&gt;backupy__BackupManager__handleChangedFiles -->
<g id="edge44" class="edge">
<title>backupy__BackupManager___performBackup&#45;&gt;backupy__BackupManager__handleChangedFiles</title>
<path fill="none" stroke="#000000" d="M1196.089,-896.0535C1212.9342,-871.0462 1243.5893,-825.5376 1263.0918,-796.5853"/>
<polygon fill="#000000" stroke="#000000" points="1266.0746,-798.422 1268.7587,-788.1727 1260.269,-794.5112 1266.0746,-798.422"/>
</g>
<!-- backupy__BackupManager__handleDeletedFiles -->
<g id="node19" class="node">
<title>backupy__BackupManager__handleDeletedFiles</title>
<ellipse fill="#ff9999" fill-opacity="0.698039" stroke="#000000" cx="1059" cy="-770" rx="78.7863" ry="18"/>
<text text-anchor="middle" x="1059" y="-766.3" font-family="Times,serif" font-size="14.00" fill="#000000">handleDeletedFiles</text>
</g>
<!-- backupy__BackupManager___performBackup&#45;&gt;backupy__BackupManager__handleDeletedFiles -->
<g id="edge40" class="edge">
<title>backupy__BackupManager___performBackup&#45;&gt;backupy__BackupManager__handleDeletedFiles</title>
<path fill="none" stroke="#000000" d="M1168.6725,-896.3428C1146.7434,-871.0804 1106.2909,-824.4791 1081.1192,-795.4813"/>
<polygon fill="#000000" stroke="#000000" points="1083.6513,-793.059 1074.4528,-787.8017 1078.365,-797.6477 1083.6513,-793.059"/>
</g>
<!-- backupy__BackupManager__handleMovedFiles -->
<g id="node20" class="node">
<title>backupy__BackupManager__handleMovedFiles</title>
<ellipse fill="#ff9999" fill-opacity="0.698039" stroke="#000000" cx="1143" cy="-626" rx="76.8869" ry="18"/>
<text text-anchor="middle" x="1143" y="-622.3" font-family="Times,serif" font-size="14.00" fill="#000000">handleMovedFiles</text>
</g>
<!-- backupy__BackupManager___performBackup&#45;&gt;backupy__BackupManager__handleMovedFiles -->
<g id="edge41" class="edge">
<title>backupy__BackupManager___performBackup&#45;&gt;backupy__BackupManager__handleMovedFiles</title>
<path fill="none" stroke="#000000" d="M1181.4353,-895.9843C1174.5037,-847.2939 1155.3564,-712.7961 1146.9943,-654.0573"/>
<polygon fill="#000000" stroke="#000000" points="1150.4383,-653.4157 1145.5638,-644.0089 1143.5082,-654.4024 1150.4383,-653.4157"/>
</g>
<!-- backupy__BackupManager___performBackup&#45;&gt;backupy__DirInfo__getDicts -->
<g id="edge42" class="edge">
<title>backupy__BackupManager___performBackup&#45;&gt;backupy__DirInfo__getDicts</title>
<path fill="none" stroke="#000000" d="M1235.1223,-901.5207C1346.7716,-873.6709 1603.8462,-806.0692 1621,-770"/>
<path fill="none" stroke="#000000" d="M1621,-770C1687.4842,-630.2038 1685.3987,-438.0801 1681.8692,-366.4405"/>
<polygon fill="#000000" stroke="#000000" points="1685.3602,-366.1791 1681.3233,-356.3836 1678.3705,-366.5586 1685.3602,-366.1791"/>
</g>
<!-- backupy__BackupManager___printAndLogCompareDiffSummary -->
<g id="node11" class="node">
<title>backupy__BackupManager___printAndLogCompareDiffSummary</title>
<ellipse fill="#ff9999" fill-opacity="0.698039" stroke="#000000" cx="1427" cy="-914" rx="143.7746" ry="18"/>
<text text-anchor="middle" x="1427" y="-910.3" font-family="Times,serif" font-size="14.00" fill="#000000">_printAndLogCompareDiffSummary</text>
</g>
<!-- backupy__BackupManager___printAndLogCompareDiffSummary&#45;&gt;backupy__DirInfo__getDicts -->
<g id="edge39" class="edge">
<title>backupy__BackupManager___printAndLogCompareDiffSummary&#45;&gt;backupy__DirInfo__getDicts</title>
<path fill="none" stroke="#000000" d="M1470.1313,-896.8252C1517.5247,-875.2641 1590.9155,-833.2586 1621,-770"/>
</g>
<!-- backupy__BackupManager___printAndLogScanOnlyDiffSummary -->
<g id="node12" class="node">
<title>backupy__BackupManager___printAndLogScanOnlyDiffSummary</title>
<ellipse fill="#ff9999" fill-opacity="0.698039" stroke="#000000" cx="791" cy="-914" rx="145.6742" ry="18"/>
<text text-anchor="middle" x="791" y="-910.3" font-family="Times,serif" font-size="14.00" fill="#000000">_printAndLogScanOnlyDiffSummary</text>
</g>
<!-- backupy__BackupManager__abortRun -->
<g id="node13" class="node">
<title>backupy__BackupManager__abortRun</title>
<ellipse fill="#ff9999" fill-opacity="0.698039" stroke="#000000" cx="1009" cy="-914" rx="43.5923" ry="18"/>
<text text-anchor="middle" x="1009" y="-910.3" font-family="Times,serif" font-size="14.00" fill="#000000">abortRun</text>
</g>
<!-- backupy__BackupManager__writeLog -->
<g id="node27" class="node">
<title>backupy__BackupManager__writeLog</title>
<ellipse fill="#ff9999" fill-opacity="0.698039" stroke="#000000" cx="908" cy="-770" rx="42.7926" ry="18"/>
<text text-anchor="middle" x="908" y="-766.3" font-family="Times,serif" font-size="14.00" fill="#000000">writeLog</text>
</g>
<!-- backupy__BackupManager__abortRun&#45;&gt;backupy__BackupManager__writeLog -->
<g id="edge21" class="edge">
<title>backupy__BackupManager__abortRun&#45;&gt;backupy__BackupManager__writeLog</title>
<path fill="none" stroke="#000000" d="M996.817,-896.6302C979.2243,-871.5475 946.5809,-825.0064 926.1459,-795.8714"/>
<polygon fill="#000000" stroke="#000000" points="928.8339,-793.6086 920.2262,-787.4314 923.103,-797.6282 928.8339,-793.6086"/>
</g>
<!-- backupy__BackupManager__archiveFile -->
<g id="node14" class="node">
<title>backupy__BackupManager__archiveFile</title>
<ellipse fill="#ff9999" fill-opacity="0.698039" stroke="#000000" cx="1299" cy="-626" rx="50.0912" ry="18"/>
<text text-anchor="middle" x="1299" y="-622.3" font-family="Times,serif" font-size="14.00" fill="#000000">archiveFile</text>
</g>
<!-- backupy__BackupManager__moveFile -->
<g id="node22" class="node">
<title>backupy__BackupManager__moveFile</title>
<ellipse fill="#ff9999" fill-opacity="0.698039" stroke="#000000" cx="1051" cy="-482" rx="44.393" ry="18"/>
<text text-anchor="middle" x="1051" y="-478.3" font-family="Times,serif" font-size="14.00" fill="#000000">moveFile</text>
</g>
<!-- backupy__BackupManager__archiveFile&#45;&gt;backupy__BackupManager__moveFile -->
<g id="edge35" class="edge">
<title>backupy__BackupManager__archiveFile&#45;&gt;backupy__BackupManager__moveFile</title>
<path fill="none" stroke="#000000" d="M1272.4597,-610.5895C1227.2882,-584.3609 1135.5032,-531.0664 1085.4467,-502.0013"/>
<polygon fill="#000000" stroke="#000000" points="1087.0117,-498.8628 1076.6063,-496.8682 1083.4967,-504.9163 1087.0117,-498.8628"/>
</g>
<!-- backupy__BackupManager__backup&#45;&gt;backupy__DirInfo -->
<g id="edge53" class="edge">
<title>backupy__BackupManager__backup&#45;&gt;backupy__DirInfo</title>
<path fill="none" stroke="#000000" d="M1047.4847,-1053.8677C925.0661,-1039.2453 521.7954,-987.8253 405,-932 317.2814,-890.0727 258,-867.2237 258,-770 258,-770 258,-770 258,-626 258,-439.8642 537.8295,-367.2067 649.6417,-345.6043"/>
<polygon fill="#000000" stroke="#000000" points="650.4285,-349.0178 659.6086,-343.7285 649.1338,-342.1386 650.4285,-349.0178"/>
</g>
<!-- backupy__BackupManager__backup&#45;&gt;backupy__BackupManager___databaseAndCorruptionCheck -->
<g id="edge46" class="edge">
<title>backupy__BackupManager__backup&#45;&gt;backupy__BackupManager___databaseAndCorruptionCheck</title>
<path fill="none" stroke="#000000" d="M1116.4034,-1050.4607C1214.7416,-1028.2652 1505.0273,-962.7462 1644.4963,-931.2673"/>
<polygon fill="#000000" stroke="#000000" points="1645.2887,-934.6766 1654.2727,-929.0607 1643.7475,-927.8483 1645.2887,-934.6766"/>
</g>
<!-- backupy__BackupManager__backup&#45;&gt;backupy__BackupManager___performBackup -->
<g id="edge52" class="edge">
<title>backupy__BackupManager__backup&#45;&gt;backupy__BackupManager___performBackup</title>
<path fill="none" stroke="#000000" d="M1094.9826,-1040.9158C1112.4092,-1016.07 1144.9018,-969.7439 1165.4397,-940.4623"/>
<polygon fill="#000000" stroke="#000000" points="1168.5229,-942.1615 1171.3998,-931.9647 1162.792,-938.1419 1168.5229,-942.1615"/>
</g>
<!-- backupy__BackupManager__backup&#45;&gt;backupy__BackupManager___printAndLogCompareDiffSummary -->
<g id="edge49" class="edge">
<title>backupy__BackupManager__backup&#45;&gt;backupy__BackupManager___printAndLogCompareDiffSummary</title>
<path fill="none" stroke="#000000" d="M1110.8596,-1046.3379C1168.7228,-1022.116 1302.6436,-966.0562 1376.257,-935.2412"/>
<polygon fill="#000000" stroke="#000000" points="1377.9224,-938.3385 1385.7953,-931.2485 1375.2193,-931.8814 1377.9224,-938.3385"/>
</g>
<!-- backupy__BackupManager__backup&#45;&gt;backupy__BackupManager___printAndLogScanOnlyDiffSummary -->
<g id="edge47" class="edge">
<title>backupy__BackupManager__backup&#45;&gt;backupy__BackupManager___printAndLogScanOnlyDiffSummary</title>
<path fill="none" stroke="#000000" d="M1057.0869,-1045.221C1007.3014,-1020.6692 897.7419,-966.6399 835.8553,-936.1204"/>
<polygon fill="#000000" stroke="#000000" points="837.2326,-932.8972 826.7159,-931.6133 834.1366,-939.1753 837.2326,-932.8972"/>
</g>
<!-- backupy__BackupManager__backup&#45;&gt;backupy__BackupManager__abortRun -->
<g id="edge55" class="edge">
<title>backupy__BackupManager__backup&#45;&gt;backupy__BackupManager__abortRun</title>
<path fill="none" stroke="#000000" d="M1073.9261,-1040.3428C1061.166,-1015.5122 1037.8117,-970.066 1022.8666,-940.9836"/>
<polygon fill="#000000" stroke="#000000" points="1025.8318,-939.0962 1018.1481,-931.8017 1019.6058,-942.2957 1025.8318,-939.0962"/>
</g>
<!-- backupy__BackupManager__backup&#45;&gt;backupy__BackupManager__writeLog -->
<g id="edge50" class="edge">
<title>backupy__BackupManager__backup&#45;&gt;backupy__BackupManager__writeLog</title>
<path fill="none" stroke="#000000" d="M1085.6928,-1039.6029C1089.3822,-1008.0169 1092.8885,-942.3985 1067,-896 1039.4968,-846.7075 1010.0175,-854.336 966,-819 955.6403,-810.6835 944.4484,-801.321 934.6851,-793.0249"/>
<polygon fill="#000000" stroke="#000000" points="936.7478,-790.1838 926.8696,-786.3533 932.203,-795.5079 936.7478,-790.1838"/>
</g>
<!-- backupy__DirInfo____init__ -->
<g id="node29" class="node">
<title>backupy__DirInfo____init__</title>
<ellipse fill="#ff9999" fill-opacity="0.698039" stroke="#000000" cx="2008" cy="-338" rx="40.0939" ry="18"/>
<text text-anchor="middle" x="2008" y="-334.3" font-family="Times,serif" font-size="14.00" fill="#000000">__init__</text>
</g>
<!-- backupy__BackupManager__backup&#45;&gt;backupy__DirInfo____init__ -->
<g id="edge54" class="edge">
<title>backupy__BackupManager__backup&#45;&gt;backupy__DirInfo____init__</title>
<path fill="none" stroke="#000000" d="M2008,-482C1998.46,-442.6155 2001.0011,-395.3741 2004.149,-366.0152"/>
<polygon fill="#000000" stroke="#000000" points="2007.6283,-366.3947 2005.3149,-356.0556 2000.6758,-365.5807 2007.6283,-366.3947"/>
</g>
<!-- backupy__DirInfo__dirCompare -->
<g id="node31" class="node">
<title>backupy__DirInfo__dirCompare</title>
<ellipse fill="#ff9999" fill-opacity="0.698039" stroke="#000000" cx="2131" cy="-338" rx="53.0913" ry="18"/>
<text text-anchor="middle" x="2131" y="-334.3" font-family="Times,serif" font-size="14.00" fill="#000000">dirCompare</text>
</g>
<!-- backupy__BackupManager__backup&#45;&gt;backupy__DirInfo__dirCompare -->
<g id="edge51" class="edge">
<title>backupy__BackupManager__backup&#45;&gt;backupy__DirInfo__dirCompare</title>
<path fill="none" stroke="#000000" d="M2008,-482C2001.0628,-453.3608 2064.144,-394.2283 2102.5917,-361.346"/>
<polygon fill="#000000" stroke="#000000" points="2105.0156,-363.8799 2110.388,-354.7482 2100.4936,-358.5365 2105.0156,-363.8799"/>
</g>
<!-- backupy__DirInfo__loadJson -->
<g id="node36" class="node">
<title>backupy__DirInfo__loadJson</title>
<ellipse fill="#ff9999" fill-opacity="0.698039" stroke="#000000" cx="1791" cy="-338" rx="41.6928" ry="18"/>
<text text-anchor="middle" x="1791" y="-334.3" font-family="Times,serif" font-size="14.00" fill="#000000">loadJson</text>
</g>
<!-- backupy__BackupManager__backup&#45;&gt;backupy__DirInfo__loadJson -->
<g id="edge45" class="edge">
<title>backupy__BackupManager__backup&#45;&gt;backupy__DirInfo__loadJson</title>
<path fill="none" stroke="#000000" d="M1118.902,-1055.042C1255.1896,-1043.3976 1739.7983,-998.0958 1878,-932 2065.8052,-842.1809 2042.9424,-687.225 2008,-482"/>
<path fill="none" stroke="#000000" d="M2008,-482C1988.4405,-401.2514 1914.3314,-435.6764 1847,-387 1836.3671,-379.3131 1825.357,-370.0132 1815.9424,-361.5899"/>
<polygon fill="#000000" stroke="#000000" points="1818.2048,-358.9164 1808.4528,-354.7752 1813.4938,-364.094 1818.2048,-358.9164"/>
</g>
<!-- backupy__DirInfo__scanDir -->
<g id="node39" class="node">
<title>backupy__DirInfo__scanDir</title>
<ellipse fill="#ff9999" fill-opacity="0.698039" stroke="#000000" cx="1900" cy="-338" rx="38.1938" ry="18"/>
<text text-anchor="middle" x="1900" y="-334.3" font-family="Times,serif" font-size="14.00" fill="#000000">scanDir</text>
</g>
<!-- backupy__BackupManager__backup&#45;&gt;backupy__DirInfo__scanDir -->
<g id="edge48" class="edge">
<title>backupy__BackupManager__backup&#45;&gt;backupy__DirInfo__scanDir</title>
<path fill="none" stroke="#000000" d="M2008,-482C1995.8284,-431.7515 1954.2812,-386.3074 1926.4112,-360.4449"/>
<polygon fill="#000000" stroke="#000000" points="1928.7091,-357.8038 1918.9489,-353.6818 1924.0083,-362.9906 1928.7091,-357.8038"/>
</g>
<!-- backupy__BackupManager__copyFile -->
<g id="node16" class="node">
<title>backupy__BackupManager__copyFile</title>
<ellipse fill="#ff9999" fill-opacity="0.698039" stroke="#000000" cx="1421" cy="-626" rx="41.6928" ry="18"/>
<text text-anchor="middle" x="1421" y="-622.3" font-family="Times,serif" font-size="14.00" fill="#000000">copyFile</text>
</g>
<!-- backupy__BackupManager__copyFile&#45;&gt;backupy__DirInfo -->
<g id="edge26" class="edge">
<title>backupy__BackupManager__copyFile&#45;&gt;backupy__DirInfo</title>
<path fill="none" stroke="#000000" d="M1388.0392,-614.844C1380.2114,-612.4029 1371.8525,-609.9645 1364,-608 1110.0546,-544.469 997.4321,-652.9609 785,-500 738.939,-466.8339 713.6214,-402.4475 702.3315,-365.6197"/>
<polygon fill="#000000" stroke="#000000" points="705.6866,-364.6227 699.5136,-356.012 698.9696,-366.5928 705.6866,-364.6227"/>
</g>
<!-- backupy__DirInfo__updateDictOnCopy -->
<g id="node42" class="node">
<title>backupy__DirInfo__updateDictOnCopy</title>
<ellipse fill="#ff9999" fill-opacity="0.698039" stroke="#000000" cx="1241" cy="-338" rx="79.0865" ry="18"/>
<text text-anchor="middle" x="1241" y="-334.3" font-family="Times,serif" font-size="14.00" fill="#000000">updateDictOnCopy</text>
</g>
<!-- backupy__BackupManager__copyFile&#45;&gt;backupy__DirInfo__updateDictOnCopy -->
<g id="edge25" class="edge">
<title>backupy__BackupManager__copyFile&#45;&gt;backupy__DirInfo__updateDictOnCopy</title>
<path fill="none" stroke="#000000" d="M1424.3087,-607.8341C1428.6586,-580.0932 1434.3919,-525.7812 1422,-482"/>
<path fill="none" stroke="#000000" d="M1422,-482C1412.2508,-447.5558 1328.2852,-391.2409 1278.2103,-360.2272"/>
<polygon fill="#000000" stroke="#000000" points="1279.933,-357.1778 1269.5805,-354.9247 1276.2684,-363.142 1279.933,-357.1778"/>
</g>
<!-- backupy__DirInfo__verifyCrcOnCopy -->
<g id="node45" class="node">
<title>backupy__DirInfo__verifyCrcOnCopy</title>
<ellipse fill="#ff9999" fill-opacity="0.698039" stroke="#000000" cx="1423" cy="-338" rx="74.187" ry="18"/>
<text text-anchor="middle" x="1423" y="-334.3" font-family="Times,serif" font-size="14.00" fill="#000000">verifyCrcOnCopy</text>
</g>
<!-- backupy__BackupManager__copyFile&#45;&gt;backupy__DirInfo__verifyCrcOnCopy -->
<g id="edge24" class="edge">
<title>backupy__BackupManager__copyFile&#45;&gt;backupy__DirInfo__verifyCrcOnCopy</title>
<path fill="none" stroke="#000000" d="M1422,-482C1410.9634,-443.0074 1414.304,-395.6616 1418.2399,-366.1734"/>
<polygon fill="#000000" stroke="#000000" points="1421.7197,-366.5647 1419.6913,-356.1659 1414.7921,-365.5599 1421.7197,-366.5647"/>
</g>
<!-- backupy__BackupManager__copyFiles&#45;&gt;backupy__BackupManager__copyFile -->
<g id="edge30" class="edge">
<title>backupy__BackupManager__copyFiles&#45;&gt;backupy__BackupManager__copyFile</title>
<path fill="none" stroke="#000000" d="M1434.9736,-751.7623C1432.2446,-727.201 1427.3608,-683.2474 1424.1505,-654.3541"/>
<polygon fill="#000000" stroke="#000000" points="1427.593,-653.6419 1423.01,-644.0896 1420.6358,-654.415 1427.593,-653.6419"/>
</g>
<!-- backupy__BackupManager__handleChangedFiles&#45;&gt;backupy__BackupManager__archiveFile -->
<g id="edge37" class="edge">
<title>backupy__BackupManager__handleChangedFiles&#45;&gt;backupy__BackupManager__archiveFile</title>
<path fill="none" stroke="#000000" d="M1283.2797,-751.7623C1286.3499,-727.201 1291.8441,-683.2474 1295.4557,-654.3541"/>
<polygon fill="#000000" stroke="#000000" points="1298.9713,-654.4465 1296.7388,-644.0896 1292.0254,-653.5782 1298.9713,-654.4465"/>
</g>
<!-- backupy__BackupManager__handleChangedFiles&#45;&gt;backupy__BackupManager__copyFile -->
<g id="edge36" class="edge">
<title>backupy__BackupManager__handleChangedFiles&#45;&gt;backupy__BackupManager__copyFile</title>
<path fill="none" stroke="#000000" d="M1298.1667,-752.3428C1323.1005,-726.6967 1369.4154,-679.0584 1397.4992,-650.1723"/>
<polygon fill="#000000" stroke="#000000" points="1400.1017,-652.5164 1404.563,-642.9066 1395.0827,-647.6368 1400.1017,-652.5164"/>
</g>
<!-- backupy__BackupManager__moveFiles -->
<g id="node23" class="node">
<title>backupy__BackupManager__moveFiles</title>
<ellipse fill="#ff9999" fill-opacity="0.698039" stroke="#000000" cx="989" cy="-626" rx="48.1917" ry="18"/>
<text text-anchor="middle" x="989" y="-622.3" font-family="Times,serif" font-size="14.00" fill="#000000">moveFiles</text>
</g>
<!-- backupy__BackupManager__handleDeletedFiles&#45;&gt;backupy__BackupManager__moveFiles -->
<g id="edge33" class="edge">
<title>backupy__BackupManager__handleDeletedFiles&#45;&gt;backupy__BackupManager__moveFiles</title>
<path fill="none" stroke="#000000" d="M1050.276,-752.0535C1038.1586,-727.1263 1016.1391,-681.8289 1002.0589,-652.8641"/>
<polygon fill="#000000" stroke="#000000" points="1005.1338,-651.1839 997.6141,-643.7204 998.8383,-654.2442 1005.1338,-651.1839"/>
</g>
<!-- backupy__BackupManager__removeFiles -->
<g id="node25" class="node">
<title>backupy__BackupManager__removeFiles</title>
<ellipse fill="#ff9999" fill-opacity="0.698039" stroke="#000000" cx="853" cy="-626" rx="54.6905" ry="18"/>
<text text-anchor="middle" x="853" y="-622.3" font-family="Times,serif" font-size="14.00" fill="#000000">removeFiles</text>
</g>
<!-- backupy__BackupManager__handleDeletedFiles&#45;&gt;backupy__BackupManager__removeFiles -->
<g id="edge32" class="edge">
<title>backupy__BackupManager__handleDeletedFiles&#45;&gt;backupy__BackupManager__removeFiles</title>
<path fill="none" stroke="#000000" d="M1034.1516,-752.6302C996.6872,-726.4416 925.7585,-676.8603 884.6471,-648.1223"/>
<polygon fill="#000000" stroke="#000000" points="886.5511,-645.1829 876.3498,-642.3222 882.5406,-650.9201 886.5511,-645.1829"/>
</g>
<!-- backupy__BackupManager__handleMovedFiles&#45;&gt;backupy__BackupManager__moveFile -->
<g id="edge34" class="edge">
<title>backupy__BackupManager__handleMovedFiles&#45;&gt;backupy__BackupManager__moveFile</title>
<path fill="none" stroke="#000000" d="M1131.5342,-608.0535C1115.5392,-583.0179 1086.4166,-537.4347 1067.9224,-508.4872"/>
<polygon fill="#000000" stroke="#000000" points="1070.6547,-506.263 1062.3213,-499.7204 1064.7558,-510.0317 1070.6547,-506.263"/>
</g>
<!-- backupy__BackupManager__loadJson&#45;&gt;backupy__ConfigObject -->
<g id="edge18" class="edge">
<title>backupy__BackupManager__loadJson&#45;&gt;backupy__ConfigObject</title>
<path fill="none" stroke="#000000" d="M547.9322,-900.2312C514.2655,-882.7406 455.4383,-850.9698 408,-819 396.509,-811.2559 384.4345,-801.9953 374.0256,-793.6202"/>
<polygon fill="#000000" stroke="#000000" points="376.0398,-790.7465 366.0779,-787.1393 371.616,-796.1715 376.0398,-790.7465"/>
</g>
<!-- backupy__BackupManager__loadJson&#45;&gt;backupy__ConfigObject____init__ -->
<g id="edge17" class="edge">
<title>backupy__BackupManager__loadJson&#45;&gt;backupy__ConfigObject____init__</title>
<path fill="none" stroke="#000000" d="M606.9242,-902.2336C614.7053,-899.7864 623.0728,-897.4986 631,-896 899.4485,-845.2525 1608.9929,-931.4071 1858,-819 1869.7036,-813.7167 1880.1657,-804.3213 1888.3872,-795.161"/>
<polygon fill="#000000" stroke="#000000" points="1891.2555,-797.188 1895.0102,-787.2808 1885.8968,-792.6842 1891.2555,-797.188"/>
</g>
<!-- backupy__BackupManager__moveFile&#45;&gt;backupy__DirInfo -->
<g id="edge27" class="edge">
<title>backupy__BackupManager__moveFile&#45;&gt;backupy__DirInfo</title>
<path fill="none" stroke="#000000" d="M1009.8046,-475.419C948.7845,-464.3381 832.3051,-437.9947 746,-387 735.044,-380.5265 724.6,-371.2634 716.0492,-362.5304"/>
<polygon fill="#000000" stroke="#000000" points="718.4511,-359.9751 709.057,-355.0759 713.3456,-364.764 718.4511,-359.9751"/>
</g>
<!-- backupy__DirInfo__updateDictOnMove -->
<g id="node43" class="node">
<title>backupy__DirInfo__updateDictOnMove</title>
<ellipse fill="#ff9999" fill-opacity="0.698039" stroke="#000000" cx="1051" cy="-338" rx="81.4863" ry="18"/>
<text text-anchor="middle" x="1051" y="-334.3" font-family="Times,serif" font-size="14.00" fill="#000000">updateDictOnMove</text>
</g>
<!-- backupy__BackupManager__moveFile&#45;&gt;backupy__DirInfo__updateDictOnMove -->
<g id="edge28" class="edge">
<title>backupy__BackupManager__moveFile&#45;&gt;backupy__DirInfo__updateDictOnMove</title>
<path fill="none" stroke="#000000" d="M1051,-463.7623C1051,-439.201 1051,-395.2474 1051,-366.3541"/>
<polygon fill="#000000" stroke="#000000" points="1054.5001,-366.0896 1051,-356.0896 1047.5001,-366.0897 1054.5001,-366.0896"/>
</g>
<!-- backupy__BackupManager__moveFiles&#45;&gt;backupy__BackupManager__moveFile -->
<g id="edge31" class="edge">
<title>backupy__BackupManager__moveFiles&#45;&gt;backupy__BackupManager__moveFile</title>
<path fill="none" stroke="#000000" d="M996.727,-608.0535C1007.3548,-583.3696 1026.5827,-538.7111 1039.0664,-509.7167"/>
<polygon fill="#000000" stroke="#000000" points="1042.4357,-510.7417 1043.1756,-500.1727 1036.0063,-507.9734 1042.4357,-510.7417"/>
</g>
<!-- backupy__BackupManager__removeFile -->
<g id="node24" class="node">
<title>backupy__BackupManager__removeFile</title>
<ellipse fill="#ff9999" fill-opacity="0.698039" stroke="#000000" cx="851" cy="-482" rx="51.1914" ry="18"/>
<text text-anchor="middle" x="851" y="-478.3" font-family="Times,serif" font-size="14.00" fill="#000000">removeFile</text>
</g>
<!-- backupy__BackupManager__removeFile&#45;&gt;backupy__DirInfo -->
<g id="edge22" class="edge">
<title>backupy__BackupManager__removeFile&#45;&gt;backupy__DirInfo</title>
<path fill="none" stroke="#000000" d="M831.8757,-465.0077C810.7106,-446.1302 775.6671,-414.6611 746,-387 737.199,-378.7941 727.6625,-369.6901 719.2433,-361.5782"/>
<polygon fill="#000000" stroke="#000000" points="721.5019,-358.8936 711.8786,-354.4616 716.6376,-363.9275 721.5019,-358.8936"/>
</g>
<!-- backupy__DirInfo__updateDictOnRemove -->
<g id="node44" class="node">
<title>backupy__DirInfo__updateDictOnRemove</title>
<ellipse fill="#ff9999" fill-opacity="0.698039" stroke="#000000" cx="851" cy="-338" rx="89.8845" ry="18"/>
<text text-anchor="middle" x="851" y="-334.3" font-family="Times,serif" font-size="14.00" fill="#000000">updateDictOnRemove</text>
</g>
<!-- backupy__BackupManager__removeFile&#45;&gt;backupy__DirInfo__updateDictOnRemove -->
<g id="edge23" class="edge">
<title>backupy__BackupManager__removeFile&#45;&gt;backupy__DirInfo__updateDictOnRemove</title>
<path fill="none" stroke="#000000" d="M851,-463.7623C851,-439.201 851,-395.2474 851,-366.3541"/>
<polygon fill="#000000" stroke="#000000" points="854.5001,-366.0896 851,-356.0896 847.5001,-366.0897 854.5001,-366.0896"/>
</g>
<!-- backupy__BackupManager__removeFiles&#45;&gt;backupy__BackupManager__removeFile -->
<g id="edge29" class="edge">
<title>backupy__BackupManager__removeFiles&#45;&gt;backupy__BackupManager__removeFile</title>
<path fill="none" stroke="#000000" d="M852.7467,-607.7623C852.4056,-583.201 851.7951,-539.2474 851.3938,-510.3541"/>
<polygon fill="#000000" stroke="#000000" points="854.8899,-510.04 851.2512,-500.0896 847.8906,-510.1373 854.8899,-510.04"/>
</g>
<!-- backupy__BackupManager__saveJson&#45;&gt;backupy__ConfigObject -->
<g id="edge16" class="edge">
<title>backupy__BackupManager__saveJson&#45;&gt;backupy__ConfigObject</title>
<path fill="none" stroke="#000000" d="M448.2378,-896.9158C428.0276,-871.8273 390.1741,-824.8368 366.6295,-795.6091"/>
<polygon fill="#000000" stroke="#000000" points="369.1051,-793.1029 360.1061,-787.511 363.6538,-797.4942 369.1051,-793.1029"/>
</g>
<!-- backupy__DirInfo__calcCrc -->
<g id="node30" class="node">
<title>backupy__DirInfo__calcCrc</title>
<ellipse fill="#ff9999" fill-opacity="0.698039" stroke="#000000" cx="1423" cy="-50" rx="37.8943" ry="18"/>
<text text-anchor="middle" x="1423" y="-46.3" font-family="Times,serif" font-size="14.00" fill="#000000">calcCrc</text>
</g>
<!-- backupy__BackupManager__writeLog&#45;&gt;backupy__DirInfo__calcCrc -->
<g id="edge19" class="edge">
<title>backupy__BackupManager__writeLog&#45;&gt;backupy__DirInfo__calcCrc</title>
<path fill="none" stroke="#000000" d="M886.4938,-754.2974C820.9283,-705.6209 628,-556.094 628,-482 628,-482 628,-482 628,-338 628,-177.7664 1206.1118,-81.3824 1376.3643,-56.4718"/>
<polygon fill="#000000" stroke="#000000" points="1377.1181,-59.8992 1386.5127,-55.0012 1376.1141,-52.9716 1377.1181,-59.8992"/>
</g>
<!-- backupy__DirInfo__saveJson -->
<g id="node38" class="node">
<title>backupy__DirInfo__saveJson</title>
<ellipse fill="#ff9999" fill-opacity="0.698039" stroke="#000000" cx="1568" cy="-338" rx="42.4939" ry="18"/>
<text text-anchor="middle" x="1568" y="-334.3" font-family="Times,serif" font-size="14.00" fill="#000000">saveJson</text>
</g>
<!-- backupy__BackupManager__writeLog&#45;&gt;backupy__DirInfo__saveJson -->
<g id="edge20" class="edge">
<title>backupy__BackupManager__writeLog&#45;&gt;backupy__DirInfo__saveJson</title>
<path fill="none" stroke="#000000" d="M935.5223,-756.1171C944.9998,-751.7552 955.7977,-747.2381 966,-744 1186.5754,-673.991 1305.7141,-799.6147 1477,-644 1558.2929,-570.1447 1568.2584,-427.2721 1568.6122,-366.4876"/>
<polygon fill="#000000" stroke="#000000" points="1572.1112,-366.1178 1568.5814,-356.1283 1565.1112,-366.1387 1572.1112,-366.1178"/>
</g>
<!-- backupy__DirInfo__fileMatch -->
<g id="node32" class="node">
<title>backupy__DirInfo__fileMatch</title>
<ellipse fill="#ff9999" fill-opacity="0.698039" stroke="#000000" cx="1900" cy="-194" rx="45.4919" ry="18"/>
<text text-anchor="middle" x="1900" y="-190.3" font-family="Times,serif" font-size="14.00" fill="#000000">fileMatch</text>
</g>
<!-- backupy__DirInfo__dirCompare&#45;&gt;backupy__DirInfo__fileMatch -->
<g id="edge10" class="edge">
<title>backupy__DirInfo__dirCompare&#45;&gt;backupy__DirInfo__fileMatch</title>
<path fill="none" stroke="#000000" d="M2105.3964,-322.0393C2063.3508,-295.8291 1979.7108,-243.6898 1933.1809,-214.6842"/>
<polygon fill="#000000" stroke="#000000" points="1935.0057,-211.6974 1924.668,-209.3775 1931.3026,-217.6378 1935.0057,-211.6974"/>
</g>
<!-- backupy__DirInfo__getMovedAndUpdateLists -->
<g id="node35" class="node">
<title>backupy__DirInfo__getMovedAndUpdateLists</title>
<ellipse fill="#ff9999" fill-opacity="0.698039" stroke="#000000" cx="2079" cy="-194" rx="104.7816" ry="18"/>
<text text-anchor="middle" x="2079" y="-190.3" font-family="Times,serif" font-size="14.00" fill="#000000">getMovedAndUpdateLists</text>
</g>
<!-- backupy__DirInfo__dirCompare&#45;&gt;backupy__DirInfo__getMovedAndUpdateLists -->
<g id="edge11" class="edge">
<title>backupy__DirInfo__dirCompare&#45;&gt;backupy__DirInfo__getMovedAndUpdateLists</title>
<path fill="none" stroke="#000000" d="M2124.5193,-320.0535C2115.6057,-295.3696 2099.479,-250.7111 2089.0088,-221.7167"/>
<polygon fill="#000000" stroke="#000000" points="2092.2508,-220.3895 2085.5624,-212.1727 2085.6669,-222.767 2092.2508,-220.3895"/>
</g>
<!-- backupy__DirInfo__timeMatch -->
<g id="node41" class="node">
<title>backupy__DirInfo__timeMatch</title>
<ellipse fill="#ff9999" fill-opacity="0.698039" stroke="#000000" cx="1842" cy="-50" rx="50.0912" ry="18"/>
<text text-anchor="middle" x="1842" y="-46.3" font-family="Times,serif" font-size="14.00" fill="#000000">timeMatch</text>
</g>
<!-- backupy__DirInfo__fileMatch&#45;&gt;backupy__DirInfo__timeMatch -->
<g id="edge5" class="edge">
<title>backupy__DirInfo__fileMatch&#45;&gt;backupy__DirInfo__timeMatch</title>
<path fill="none" stroke="#000000" d="M1892.7715,-176.0535C1882.8294,-151.3696 1864.842,-106.7111 1853.1637,-77.7167"/>
<polygon fill="#000000" stroke="#000000" points="1856.3023,-76.1409 1849.3196,-68.1727 1849.8092,-78.7562 1856.3023,-76.1409"/>
</g>
<!-- backupy__DirInfo__getCrc -->
<g id="node33" class="node">
<title>backupy__DirInfo__getCrc</title>
<ellipse fill="#ff9999" fill-opacity="0.698039" stroke="#000000" cx="1423" cy="-194" rx="34.394" ry="18"/>
<text text-anchor="middle" x="1423" y="-190.3" font-family="Times,serif" font-size="14.00" fill="#000000">getCrc</text>
</g>
<!-- backupy__DirInfo__getCrc&#45;&gt;backupy__DirInfo__calcCrc -->
<g id="edge4" class="edge">
<title>backupy__DirInfo__getCrc&#45;&gt;backupy__DirInfo__calcCrc</title>
<path fill="none" stroke="#000000" d="M1423,-175.7623C1423,-151.201 1423,-107.2474 1423,-78.3541"/>
<polygon fill="#000000" stroke="#000000" points="1426.5001,-78.0896 1423,-68.0896 1419.5001,-78.0897 1426.5001,-78.0896"/>
</g>
<!-- backupy__DirInfo__pathMatch -->
<g id="node37" class="node">
<title>backupy__DirInfo__pathMatch</title>
<ellipse fill="#ff9999" fill-opacity="0.698039" stroke="#000000" cx="1667" cy="-194" rx="48.9926" ry="18"/>
<text text-anchor="middle" x="1667" y="-190.3" font-family="Times,serif" font-size="14.00" fill="#000000">pathMatch</text>
</g>
<!-- backupy__DirInfo__scanDir&#45;&gt;backupy__DirInfo__pathMatch -->
<g id="edge7" class="edge">
<title>backupy__DirInfo__scanDir&#45;&gt;backupy__DirInfo__pathMatch</title>
<path fill="none" stroke="#000000" d="M1876.3765,-323.4001C1834.8572,-297.7401 1748.677,-244.4785 1700.8413,-214.9148"/>
<polygon fill="#000000" stroke="#000000" points="1702.439,-211.7878 1692.0924,-209.5077 1698.7589,-217.7423 1702.439,-211.7878"/>
</g>
<!-- backupy__DirInfo__scanFile -->
<g id="node40" class="node">
<title>backupy__DirInfo__scanFile</title>
<ellipse fill="#ff9999" fill-opacity="0.698039" stroke="#000000" cx="1785" cy="-194" rx="40.0939" ry="18"/>
<text text-anchor="middle" x="1785" y="-190.3" font-family="Times,serif" font-size="14.00" fill="#000000">scanFile</text>
</g>
<!-- backupy__DirInfo__scanDir&#45;&gt;backupy__DirInfo__scanFile -->
<g id="edge6" class="edge">
<title>backupy__DirInfo__scanDir&#45;&gt;backupy__DirInfo__scanFile</title>
<path fill="none" stroke="#000000" d="M1886.3564,-320.9158C1866.2121,-295.6917 1828.3871,-248.3282 1805.0744,-219.1367"/>
<polygon fill="#000000" stroke="#000000" points="1807.6011,-216.6918 1798.6259,-211.0619 1802.1313,-221.0601 1807.6011,-216.6918"/>
</g>
<!-- backupy__DirInfo__scanFile&#45;&gt;backupy__DirInfo__calcCrc -->
<g id="edge8" class="edge">
<title>backupy__DirInfo__scanFile&#45;&gt;backupy__DirInfo__calcCrc</title>
<path fill="none" stroke="#000000" d="M1754.7587,-181.9703C1689.273,-155.9207 1534.4152,-94.3199 1461.8229,-65.4434"/>
<polygon fill="#000000" stroke="#000000" points="1462.7292,-62.0372 1452.1437,-61.5931 1460.1418,-68.5415 1462.7292,-62.0372"/>
</g>
<!-- backupy__DirInfo__scanFile&#45;&gt;backupy__DirInfo__timeMatch -->
<g id="edge9" class="edge">
<title>backupy__DirInfo__scanFile&#45;&gt;backupy__DirInfo__timeMatch</title>
<path fill="none" stroke="#000000" d="M1792.1038,-176.0535C1801.8745,-151.3696 1819.5519,-106.7111 1831.0288,-77.7167"/>
<polygon fill="#000000" stroke="#000000" points="1834.3804,-78.759 1834.8066,-68.1727 1827.8718,-76.1826 1834.3804,-78.759"/>
</g>
<!-- backupy__DirInfo__verifyCrcOnCopy&#45;&gt;backupy__DirInfo__getCrc -->
<g id="edge3" class="edge">
<title>backupy__DirInfo__verifyCrcOnCopy&#45;&gt;backupy__DirInfo__getCrc</title>
<path fill="none" stroke="#000000" d="M1423,-319.7623C1423,-295.201 1423,-251.2474 1423,-222.3541"/>
<polygon fill="#000000" stroke="#000000" points="1426.5001,-222.0896 1423,-212.0896 1419.5001,-222.0897 1426.5001,-222.0896"/>
</g>
</g>
</svg>
