<?xml version="1.0" encoding="UTF-8" standalone="no"?>
<!DOCTYPE svg PUBLIC "-//W3C//DTD SVG 1.1//EN"
 "http://www.w3.org/Graphics/SVG/1.1/DTD/svg11.dtd">
<!-- Generated by graphviz version 2.40.1 (20161225.0304)
 -->
<!-- Title: G Pages: 1 -->
<svg width="2041pt" height="1388pt"
 viewBox="0.00 0.00 2041.00 1388.00" xmlns="http://www.w3.org/2000/svg" xmlns:xlink="http://www.w3.org/1999/xlink">
<g id="graph0" class="graph" transform="scale(1 1) rotate(0) translate(4 1384)">
<title>G</title>
<polygon fill="#ffffff" stroke="transparent" points="-4,4 -4,-1384 2037,-1384 2037,4 -4,4"/>
<g id="clust1" class="cluster">
<title>cluster_G</title>
<path fill="#808080" fill-opacity="0.094118" stroke="#000000" d="M20,-8C20,-8 2013,-8 2013,-8 2019,-8 2025,-14 2025,-20 2025,-20 2025,-1360 2025,-1360 2025,-1366 2019,-1372 2013,-1372 2013,-1372 20,-1372 20,-1372 14,-1372 8,-1366 8,-1360 8,-1360 8,-20 8,-20 8,-14 14,-8 20,-8"/>
</g>
<g id="clust2" class="cluster">
<title>cluster_backupy</title>
<path fill="#808080" fill-opacity="0.094118" stroke="#000000" d="M28,-16C28,-16 2005,-16 2005,-16 2011,-16 2017,-22 2017,-28 2017,-28 2017,-1270 2017,-1270 2017,-1276 2011,-1282 2005,-1282 2005,-1282 28,-1282 28,-1282 22,-1282 16,-1276 16,-1270 16,-1270 16,-28 16,-28 16,-22 22,-16 28,-16"/>
<text text-anchor="middle" x="1016.5" y="-1266.8" font-family="Times,serif" font-size="14.00" fill="#000000">backupy</text>
</g>
<g id="clust3" class="cluster">
<title>cluster_backupy__ArgparseCustomFormatter</title>
<path fill="#808080" fill-opacity="0.094118" stroke="#000000" d="M474,-1176C474,-1176 662,-1176 662,-1176 668,-1176 674,-1182 674,-1188 674,-1188 674,-1239 674,-1239 674,-1245 668,-1251 662,-1251 662,-1251 474,-1251 474,-1251 468,-1251 462,-1245 462,-1239 462,-1239 462,-1188 462,-1188 462,-1182 468,-1176 474,-1176"/>
<text text-anchor="middle" x="568" y="-1235.8" font-family="Times,serif" font-size="14.00" fill="#000000">backupy.ArgparseCustomFormatter</text>
</g>
<g id="clust4" class="cluster">
<title>cluster_backupy__BackupManager</title>
<path fill="#808080" fill-opacity="0.094118" stroke="#000000" d="M424,-456C424,-456 1839,-456 1839,-456 1845,-456 1851,-462 1851,-468 1851,-468 1851,-1095 1851,-1095 1851,-1101 1845,-1107 1839,-1107 1839,-1107 424,-1107 424,-1107 418,-1107 412,-1101 412,-1095 412,-1095 412,-468 412,-468 412,-462 418,-456 424,-456"/>
<text text-anchor="middle" x="1131.5" y="-1091.8" font-family="Times,serif" font-size="14.00" fill="#000000">backupy.BackupManager</text>
</g>
<g id="clust5" class="cluster">
<title>cluster_backupy__ConfigObject</title>
<path fill="#808080" fill-opacity="0.094118" stroke="#000000" d="M1871,-744C1871,-744 1987,-744 1987,-744 1993,-744 1999,-750 1999,-756 1999,-756 1999,-807 1999,-807 1999,-813 1993,-819 1987,-819 1987,-819 1871,-819 1871,-819 1865,-819 1859,-813 1859,-807 1859,-807 1859,-756 1859,-756 1859,-750 1865,-744 1871,-744"/>
<text text-anchor="middle" x="1929" y="-803.8" font-family="Times,serif" font-size="14.00" fill="#000000">backupy.ConfigObject</text>
</g>
<g id="clust6" class="cluster">
<title>cluster_backupy__DirInfo</title>
<path fill="#808080" fill-opacity="0.094118" stroke="#000000" d="M315,-24C315,-24 1997,-24 1997,-24 2003,-24 2009,-30 2009,-36 2009,-36 2009,-375 2009,-375 2009,-381 2003,-387 1997,-387 1997,-387 315,-387 315,-387 309,-387 303,-381 303,-375 303,-375 303,-36 303,-36 303,-30 309,-24 315,-24"/>
<text text-anchor="middle" x="1156" y="-371.8" font-family="Times,serif" font-size="14.00" fill="#000000">backupy.DirInfo</text>
</g>
<!-- backupy -->
<g id="node1" class="node">
<title>backupy</title>
<ellipse fill="#ffffff" fill-opacity="0.698039" stroke="#000000" cx="403" cy="-1346" rx="40.0939" ry="18"/>
<text text-anchor="middle" x="403" y="-1342.3" font-family="Times,serif" font-size="14.00" fill="#000000">backupy</text>
</g>
<!-- backupy__main -->
<g id="node6" class="node">
<title>backupy__main</title>
<ellipse fill="#fecccc" fill-opacity="0.698039" stroke="#000000" cx="403" cy="-1202" rx="28.6953" ry="18"/>
<text text-anchor="middle" x="403" y="-1198.3" font-family="Times,serif" font-size="14.00" fill="#000000">main</text>
</g>
<!-- backupy&#45;&gt;backupy__main -->
<g id="edge1" class="edge">
<title>backupy&#45;&gt;backupy__main</title>
<path fill="none" stroke="#000000" d="M403,-1327.7623C403,-1303.201 403,-1259.2474 403,-1230.3541"/>
<polygon fill="#000000" stroke="#000000" points="406.5001,-1230.0896 403,-1220.0896 399.5001,-1230.0897 406.5001,-1230.0896"/>
</g>
<!-- backupy__ArgparseCustomFormatter -->
<g id="node2" class="node">
<title>backupy__ArgparseCustomFormatter</title>
<ellipse fill="#fecccc" fill-opacity="0.698039" stroke="#000000" cx="130" cy="-1058" rx="105.8812" ry="18"/>
<text text-anchor="middle" x="130" y="-1054.3" font-family="Times,serif" font-size="14.00" fill="#000000">ArgparseCustomFormatter</text>
</g>
<!-- backupy__BackupManager -->
<g id="node3" class="node">
<title>backupy__BackupManager</title>
<ellipse fill="#fecccc" fill-opacity="0.698039" stroke="#000000" cx="334" cy="-1058" rx="69.5877" ry="18"/>
<text text-anchor="middle" x="334" y="-1054.3" font-family="Times,serif" font-size="14.00" fill="#000000">BackupManager</text>
</g>
<!-- backupy__ConfigObject -->
<g id="node4" class="node">
<title>backupy__ConfigObject</title>
<ellipse fill="#fecccc" fill-opacity="0.698039" stroke="#000000" cx="346" cy="-770" rx="58.4896" ry="18"/>
<text text-anchor="middle" x="346" y="-766.3" font-family="Times,serif" font-size="14.00" fill="#000000">ConfigObject</text>
</g>
<!-- backupy__DirInfo -->
<g id="node5" class="node">
<title>backupy__DirInfo</title>
<ellipse fill="#fecccc" fill-opacity="0.698039" stroke="#000000" cx="258" cy="-338" rx="37.0935" ry="18"/>
<text text-anchor="middle" x="258" y="-334.3" font-family="Times,serif" font-size="14.00" fill="#000000">DirInfo</text>
</g>
<!-- backupy__main&#45;&gt;backupy__ArgparseCustomFormatter -->
<g id="edge56" class="edge">
<title>backupy__main&#45;&gt;backupy__ArgparseCustomFormatter</title>
<path fill="none" stroke="#000000" d="M380.6593,-1190.2159C334.9675,-1166.1147 230.2158,-1110.8611 171.6211,-1079.954"/>
<polygon fill="#000000" stroke="#000000" points="173.1073,-1076.7809 162.6294,-1075.2111 169.8414,-1082.9724 173.1073,-1076.7809"/>
</g>
<!-- backupy__main&#45;&gt;backupy__BackupManager -->
<g id="edge58" class="edge">
<title>backupy__main&#45;&gt;backupy__BackupManager</title>
<path fill="none" stroke="#000000" d="M394.677,-1184.6302C382.8262,-1159.8982 360.9787,-1114.3034 346.987,-1085.1034"/>
<polygon fill="#000000" stroke="#000000" points="350.0466,-1083.3888 342.569,-1075.8831 343.7339,-1086.4137 350.0466,-1083.3888"/>
</g>
<!-- backupy__BackupManager____init__ -->
<g id="node8" class="node">
<title>backupy__BackupManager____init__</title>
<ellipse fill="#ff9999" fill-opacity="0.698039" stroke="#000000" cx="473" cy="-1058" rx="40.0939" ry="18"/>
<text text-anchor="middle" x="473" y="-1054.3" font-family="Times,serif" font-size="14.00" fill="#000000">__init__</text>
</g>
<!-- backupy__main&#45;&gt;backupy__BackupManager____init__ -->
<g id="edge55" class="edge">
<title>backupy__main&#45;&gt;backupy__BackupManager____init__</title>
<path fill="none" stroke="#000000" d="M411.4436,-1184.6302C423.4662,-1159.8982 445.6303,-1114.3034 459.8247,-1085.1034"/>
<polygon fill="#000000" stroke="#000000" points="463.0826,-1086.407 464.3068,-1075.8831 456.7871,-1083.3466 463.0826,-1086.407"/>
</g>
<!-- backupy__BackupManager__backup -->
<g id="node15" class="node">
<title>backupy__BackupManager__backup</title>
<ellipse fill="#ff9999" fill-opacity="0.698039" stroke="#000000" cx="891" cy="-1058" rx="36.2938" ry="18"/>
<text text-anchor="middle" x="891" y="-1054.3" font-family="Times,serif" font-size="14.00" fill="#000000">backup</text>
</g>
<!-- backupy__main&#45;&gt;backupy__BackupManager__backup -->
<g id="edge57" class="edge">
<title>backupy__main&#45;&gt;backupy__BackupManager__backup</title>
<path fill="none" stroke="#000000" d="M424.5768,-1190.0009C433.7658,-1185.2115 444.719,-1179.9166 455,-1176 594.3865,-1122.9004 767.3409,-1083.5645 847.031,-1066.8534"/>
<polygon fill="#000000" stroke="#000000" points="848.1117,-1070.2036 857.1892,-1064.7401 846.686,-1063.3503 848.1117,-1070.2036"/>
</g>
<!-- backupy__ArgparseCustomFormatter___split_lines -->
<g id="node7" class="node">
<title>backupy__ArgparseCustomFormatter___split_lines</title>
<ellipse fill="#ff9999" fill-opacity="0.698039" stroke="#000000" cx="543" cy="-1202" rx="51.1914" ry="18"/>
<text text-anchor="middle" x="543" y="-1198.3" font-family="Times,serif" font-size="14.00" fill="#000000">_split_lines</text>
</g>
<!-- backupy__ArgparseCustomFormatter___split_lines&#45;&gt;backupy__ArgparseCustomFormatter___split_lines -->
<g id="edge2" class="edge">
<title>backupy__ArgparseCustomFormatter___split_lines&#45;&gt;backupy__ArgparseCustomFormatter___split_lines</title>
<path fill="none" stroke="#000000" d="M561.1588,-1218.9739C588.6618,-1236.6267 623.3454,-1230.9688 623.3454,-1202 623.3454,-1176.0865 595.5921,-1168.8261 570.0514,-1180.2186"/>
<polygon fill="#000000" stroke="#000000" points="568.291,-1177.1915 561.1588,-1185.0261 571.6201,-1183.3492 568.291,-1177.1915"/>
</g>
<!-- backupy__BackupManager____init__&#45;&gt;backupy__ConfigObject -->
<g id="edge13" class="edge">
<title>backupy__BackupManager____init__&#45;&gt;backupy__ConfigObject</title>
<path fill="none" stroke="#000000" d="M462.4791,-1040.4686C448.3419,-1016.4981 422.922,-971.9095 405,-932 384.4201,-886.1718 365.4654,-830.803 354.8506,-798.1014"/>
<polygon fill="#000000" stroke="#000000" points="358.099,-796.7699 351.7058,-788.3214 351.435,-798.9127 358.099,-796.7699"/>
</g>
<!-- backupy__BackupManager__loadJson -->
<g id="node21" class="node">
<title>backupy__BackupManager__loadJson</title>
<ellipse fill="#ff9999" fill-opacity="0.698039" stroke="#000000" cx="575" cy="-914" rx="41.6928" ry="18"/>
<text text-anchor="middle" x="575" y="-910.3" font-family="Times,serif" font-size="14.00" fill="#000000">loadJson</text>
</g>
<!-- backupy__BackupManager____init__&#45;&gt;backupy__BackupManager__loadJson -->
<g id="edge11" class="edge">
<title>backupy__BackupManager____init__&#45;&gt;backupy__BackupManager__loadJson</title>
<path fill="none" stroke="#000000" d="M485.3036,-1040.6302C503.0705,-1015.5475 536.0371,-969.0064 556.6744,-939.8714"/>
<polygon fill="#000000" stroke="#000000" points="559.7287,-941.6147 562.6528,-931.4314 554.0165,-937.5686 559.7287,-941.6147"/>
</g>
<!-- backupy__BackupManager__saveJson -->
<g id="node26" class="node">
<title>backupy__BackupManager__saveJson</title>
<ellipse fill="#ff9999" fill-opacity="0.698039" stroke="#000000" cx="462" cy="-914" rx="42.4939" ry="18"/>
<text text-anchor="middle" x="462" y="-910.3" font-family="Times,serif" font-size="14.00" fill="#000000">saveJson</text>
</g>
<!-- backupy__BackupManager____init__&#45;&gt;backupy__BackupManager__saveJson -->
<g id="edge12" class="edge">
<title>backupy__BackupManager____init__&#45;&gt;backupy__BackupManager__saveJson</title>
<path fill="none" stroke="#000000" d="M471.6068,-1039.7623C469.7306,-1015.201 466.3731,-971.2474 464.1659,-942.3541"/>
<polygon fill="#000000" stroke="#000000" points="467.6334,-941.794 463.3818,-932.0896 460.6538,-942.3272 467.6334,-941.794"/>
</g>
<!-- backupy__ConfigObject____init__ -->
<g id="node28" class="node">
<title>backupy__ConfigObject____init__</title>
<ellipse fill="#ff9999" fill-opacity="0.698039" stroke="#000000" cx="1907" cy="-770" rx="40.0939" ry="18"/>
<text text-anchor="middle" x="1907" y="-766.3" font-family="Times,serif" font-size="14.00" fill="#000000">__init__</text>
</g>
<!-- backupy__BackupManager____init__&#45;&gt;backupy__ConfigObject____init__ -->
<g id="edge10" class="edge">
<title>backupy__BackupManager____init__&#45;&gt;backupy__ConfigObject____init__</title>
<path fill="none" stroke="#000000" d="M513.0535,-1055.6082C734.7336,-1042.2143 1803.2581,-975.5577 1857,-932 1897.1675,-899.4443 1905.753,-835.2913 1907.1857,-798.2318"/>
<polygon fill="#000000" stroke="#000000" points="1910.6877,-798.1852 1907.4244,-788.1055 1903.6896,-798.0202 1910.6877,-798.1852"/>
</g>
<!-- backupy__BackupManager___databaseAndCorruptionCheck -->
<g id="node9" class="node">
<title>backupy__BackupManager___databaseAndCorruptionCheck</title>
<ellipse fill="#ff9999" fill-opacity="0.698039" stroke="#000000" cx="1085" cy="-914" rx="121.5784" ry="18"/>
<text text-anchor="middle" x="1085" y="-910.3" font-family="Times,serif" font-size="14.00" fill="#000000">_databaseAndCorruptionCheck</text>
</g>
<!-- backupy__DirInfo__getDicts -->
<g id="node34" class="node">
<title>backupy__DirInfo__getDicts</title>
<ellipse fill="#ff9999" fill-opacity="0.698039" stroke="#000000" cx="1597" cy="-338" rx="40.0939" ry="18"/>
<text text-anchor="middle" x="1597" y="-334.3" font-family="Times,serif" font-size="14.00" fill="#000000">getDicts</text>
</g>
<!-- backupy__BackupManager___databaseAndCorruptionCheck&#45;&gt;backupy__DirInfo__getDicts -->
<g id="edge36" class="edge">
<title>backupy__BackupManager___databaseAndCorruptionCheck&#45;&gt;backupy__DirInfo__getDicts</title>
<path fill="none" stroke="#000000" d="M1172.3152,-901.4097C1245.542,-885.3681 1343.653,-849.4499 1379,-770"/>
</g>
<!-- backupy__BackupManager___performBackup -->
<g id="node10" class="node">
<title>backupy__BackupManager___performBackup</title>
<ellipse fill="#ff9999" fill-opacity="0.698039" stroke="#000000" cx="716" cy="-914" rx="70.6878" ry="18"/>
<text text-anchor="middle" x="716" y="-910.3" font-family="Times,serif" font-size="14.00" fill="#000000">_performBackup</text>
</g>
<!-- backupy__BackupManager__copyFiles -->
<g id="node17" class="node">
<title>backupy__BackupManager__copyFiles</title>
<ellipse fill="#ff9999" fill-opacity="0.698039" stroke="#000000" cx="991" cy="-770" rx="44.6926" ry="18"/>
<text text-anchor="middle" x="991" y="-766.3" font-family="Times,serif" font-size="14.00" fill="#000000">copyFiles</text>
</g>
<!-- backupy__BackupManager___performBackup&#45;&gt;backupy__BackupManager__copyFiles -->
<g id="edge43" class="edge">
<title>backupy__BackupManager___performBackup&#45;&gt;backupy__BackupManager__copyFiles</title>
<path fill="none" stroke="#000000" d="M758.3196,-899.3991C803.1639,-883.0264 875.2019,-854.1138 932,-819 943.8855,-811.6521 955.9414,-802.0941 966.0306,-793.3728"/>
<polygon fill="#000000" stroke="#000000" points="968.494,-795.8664 973.6594,-786.616 963.8528,-790.6262 968.494,-795.8664"/>
</g>
<!-- backupy__BackupManager__handleChangedFiles -->
<g id="node18" class="node">
<title>backupy__BackupManager__handleChangedFiles</title>
<ellipse fill="#ff9999" fill-opacity="0.698039" stroke="#000000" cx="835" cy="-770" rx="82.5854" ry="18"/>
<text text-anchor="middle" x="835" y="-766.3" font-family="Times,serif" font-size="14.00" fill="#000000">handleChangedFiles</text>
</g>
<!-- backupy__BackupManager___performBackup&#45;&gt;backupy__BackupManager__handleChangedFiles -->
<g id="edge41" class="edge">
<title>backupy__BackupManager___performBackup&#45;&gt;backupy__BackupManager__handleChangedFiles</title>
<path fill="none" stroke="#000000" d="M730.5917,-896.3428C751.3791,-871.1883 789.6503,-824.877 813.6345,-795.8541"/>
<polygon fill="#000000" stroke="#000000" points="816.6167,-797.7397 820.2889,-787.8017 811.2207,-793.2806 816.6167,-797.7397"/>
</g>
<!-- backupy__BackupManager__handleDeletedFiles -->
<g id="node19" class="node">
<title>backupy__BackupManager__handleDeletedFiles</title>
<ellipse fill="#ff9999" fill-opacity="0.698039" stroke="#000000" cx="607" cy="-770" rx="78.7863" ry="18"/>
<text text-anchor="middle" x="607" y="-766.3" font-family="Times,serif" font-size="14.00" fill="#000000">handleDeletedFiles</text>
</g>
<!-- backupy__BackupManager___performBackup&#45;&gt;backupy__BackupManager__handleDeletedFiles -->
<g id="edge39" class="edge">
<title>backupy__BackupManager___performBackup&#45;&gt;backupy__BackupManager__handleDeletedFiles</title>
<path fill="none" stroke="#000000" d="M702.4155,-896.0535C683.4048,-870.9384 648.7416,-825.1449 626.8409,-796.2119"/>
<polygon fill="#000000" stroke="#000000" points="629.5818,-794.0337 620.7557,-788.1727 624.0005,-798.2585 629.5818,-794.0337"/>
</g>
<!-- backupy__BackupManager__handleMovedFiles -->
<g id="node20" class="node">
<title>backupy__BackupManager__handleMovedFiles</title>
<ellipse fill="#ff9999" fill-opacity="0.698039" stroke="#000000" cx="761" cy="-626" rx="76.8869" ry="18"/>
<text text-anchor="middle" x="761" y="-622.3" font-family="Times,serif" font-size="14.00" fill="#000000">handleMovedFiles</text>
</g>
<!-- backupy__BackupManager___performBackup&#45;&gt;backupy__BackupManager__handleMovedFiles -->
<g id="edge40" class="edge">
<title>backupy__BackupManager___performBackup&#45;&gt;backupy__BackupManager__handleMovedFiles</title>
<path fill="none" stroke="#000000" d="M717.9659,-895.83C721.4231,-864.6726 729.077,-799.082 738,-744 743.0006,-713.1308 750.0262,-677.9757 754.9936,-654.1253"/>
<polygon fill="#000000" stroke="#000000" points="758.4206,-654.8361 757.0503,-644.3302 751.57,-653.3975 758.4206,-654.8361"/>
</g>
<!-- backupy__BackupManager___performBackup&#45;&gt;backupy__DirInfo__getDicts -->
<g id="edge42" class="edge">
<title>backupy__BackupManager___performBackup&#45;&gt;backupy__DirInfo__getDicts</title>
<path fill="none" stroke="#000000" d="M774.7174,-903.8639C934.579,-875.9285 1366.5216,-798.0479 1379,-770"/>
<path fill="none" stroke="#000000" d="M1379,-770C1448.6513,-613.4439 1545.7026,-432.1207 1582.2761,-364.8811"/>
<polygon fill="#000000" stroke="#000000" points="1585.5104,-366.2603 1587.2229,-355.8048 1579.364,-362.9104 1585.5104,-366.2603"/>
</g>
<!-- backupy__BackupManager___printAndLogCompareDiffSummary -->
<g id="node11" class="node">
<title>backupy__BackupManager___printAndLogCompareDiffSummary</title>
<ellipse fill="#ff9999" fill-opacity="0.698039" stroke="#000000" cx="1379" cy="-914" rx="143.7746" ry="18"/>
<text text-anchor="middle" x="1379" y="-910.3" font-family="Times,serif" font-size="14.00" fill="#000000">_printAndLogCompareDiffSummary</text>
</g>
<!-- backupy__BackupManager___printAndLogCompareDiffSummary&#45;&gt;backupy__DirInfo__getDicts -->
<g id="edge38" class="edge">
<title>backupy__BackupManager___printAndLogCompareDiffSummary&#45;&gt;backupy__DirInfo__getDicts</title>
<path fill="none" stroke="#000000" d="M1374.4635,-895.747C1368.3941,-867.4232 1360.4034,-811.7999 1379,-770"/>
</g>
<!-- backupy__BackupManager___printAndLogScanOnlyDiffSummary -->
<g id="node12" class="node">
<title>backupy__BackupManager___printAndLogScanOnlyDiffSummary</title>
<ellipse fill="#ff9999" fill-opacity="0.698039" stroke="#000000" cx="1697" cy="-914" rx="145.6742" ry="18"/>
<text text-anchor="middle" x="1697" y="-910.3" font-family="Times,serif" font-size="14.00" fill="#000000">_printAndLogScanOnlyDiffSummary</text>
</g>
<!-- backupy__BackupManager___printAndLogScanOnlyDiffSummary&#45;&gt;backupy__DirInfo__getDicts -->
<g id="edge37" class="edge">
<title>backupy__BackupManager___printAndLogScanOnlyDiffSummary&#45;&gt;backupy__DirInfo__getDicts</title>
<path fill="none" stroke="#000000" d="M1629.0843,-898.0138C1529.1139,-872.621 1356.4283,-820.7348 1379,-770"/>
</g>
<!-- backupy__BackupManager__abortRun -->
<g id="node13" class="node">
<title>backupy__BackupManager__abortRun</title>
<ellipse fill="#ff9999" fill-opacity="0.698039" stroke="#000000" cx="891" cy="-914" rx="43.5923" ry="18"/>
<text text-anchor="middle" x="891" y="-910.3" font-family="Times,serif" font-size="14.00" fill="#000000">abortRun</text>
</g>
<!-- backupy__BackupManager__writeLog -->
<g id="node27" class="node">
<title>backupy__BackupManager__writeLog</title>
<ellipse fill="#ff9999" fill-opacity="0.698039" stroke="#000000" cx="1108" cy="-770" rx="42.7926" ry="18"/>
<text text-anchor="middle" x="1108" y="-766.3" font-family="Times,serif" font-size="14.00" fill="#000000">writeLog</text>
</g>
<!-- backupy__BackupManager__abortRun&#45;&gt;backupy__BackupManager__writeLog -->
<g id="edge19" class="edge">
<title>backupy__BackupManager__abortRun&#45;&gt;backupy__BackupManager__writeLog</title>
<path fill="none" stroke="#000000" d="M917.9982,-899.6385C950.319,-882.049 1005.6408,-850.6702 1050,-819 1060.9797,-811.1611 1072.4503,-801.7585 1082.2644,-793.2953"/>
<polygon fill="#000000" stroke="#000000" points="1084.8518,-795.6819 1090.0716,-786.4621 1080.2415,-790.4145 1084.8518,-795.6819"/>
</g>
<!-- backupy__BackupManager__archiveFile -->
<g id="node14" class="node">
<title>backupy__BackupManager__archiveFile</title>
<ellipse fill="#ff9999" fill-opacity="0.698039" stroke="#000000" cx="917" cy="-626" rx="50.0912" ry="18"/>
<text text-anchor="middle" x="917" y="-622.3" font-family="Times,serif" font-size="14.00" fill="#000000">archiveFile</text>
</g>
<!-- backupy__BackupManager__moveFile -->
<g id="node22" class="node">
<title>backupy__BackupManager__moveFile</title>
<ellipse fill="#ff9999" fill-opacity="0.698039" stroke="#000000" cx="761" cy="-482" rx="44.393" ry="18"/>
<text text-anchor="middle" x="761" y="-478.3" font-family="Times,serif" font-size="14.00" fill="#000000">moveFile</text>
</g>
<!-- backupy__BackupManager__archiveFile&#45;&gt;backupy__BackupManager__moveFile -->
<g id="edge33" class="edge">
<title>backupy__BackupManager__archiveFile&#45;&gt;backupy__BackupManager__moveFile</title>
<path fill="none" stroke="#000000" d="M898.7995,-609.1995C871.0883,-583.62 818.2108,-534.81 786.6272,-505.6559"/>
<polygon fill="#000000" stroke="#000000" points="788.8066,-502.9045 779.0846,-498.6934 784.0586,-508.0481 788.8066,-502.9045"/>
</g>
<!-- backupy__BackupManager__backup&#45;&gt;backupy__DirInfo -->
<g id="edge49" class="edge">
<title>backupy__BackupManager__backup&#45;&gt;backupy__DirInfo</title>
<path fill="none" stroke="#000000" d="M258,-482C253.4243,-442.1377 254.586,-395.6584 256.0895,-366.527"/>
<polygon fill="#000000" stroke="#000000" points="259.5998,-366.4434 256.6713,-356.2614 252.611,-366.0473 259.5998,-366.4434"/>
</g>
<!-- backupy__BackupManager__backup&#45;&gt;backupy__BackupManager___databaseAndCorruptionCheck -->
<g id="edge52" class="edge">
<title>backupy__BackupManager__backup&#45;&gt;backupy__BackupManager___databaseAndCorruptionCheck</title>
<path fill="none" stroke="#000000" d="M911.3947,-1042.8616C945.0899,-1017.8508 1012.6448,-967.707 1052.8276,-937.8805"/>
<polygon fill="#000000" stroke="#000000" points="1055.021,-940.6113 1060.9647,-931.8407 1050.8489,-934.9905 1055.021,-940.6113"/>
</g>
<!-- backupy__BackupManager__backup&#45;&gt;backupy__BackupManager___performBackup -->
<g id="edge46" class="edge">
<title>backupy__BackupManager__backup&#45;&gt;backupy__BackupManager___performBackup</title>
<path fill="none" stroke="#000000" d="M871.9388,-1042.3154C841.3485,-1017.1439 781.0882,-967.5583 745.0943,-937.9405"/>
<polygon fill="#000000" stroke="#000000" points="746.879,-934.8764 736.9332,-931.2251 742.4312,-940.2817 746.879,-934.8764"/>
</g>
<!-- backupy__BackupManager__backup&#45;&gt;backupy__BackupManager___printAndLogCompareDiffSummary -->
<g id="edge44" class="edge">
<title>backupy__BackupManager__backup&#45;&gt;backupy__BackupManager___printAndLogCompareDiffSummary</title>
<path fill="none" stroke="#000000" d="M922.269,-1048.7731C1000.6035,-1025.658 1206.5849,-964.8766 1313.1037,-933.4448"/>
<polygon fill="#000000" stroke="#000000" points="1314.1815,-936.7761 1322.782,-930.5889 1312.2003,-930.0623 1314.1815,-936.7761"/>
</g>
<!-- backupy__BackupManager__backup&#45;&gt;backupy__BackupManager___printAndLogScanOnlyDiffSummary -->
<g id="edge53" class="edge">
<title>backupy__BackupManager__backup&#45;&gt;backupy__BackupManager___printAndLogScanOnlyDiffSummary</title>
<path fill="none" stroke="#000000" d="M925.375,-1051.8586C1042.0809,-1031.0079 1425.7776,-962.4566 1604.2202,-930.576"/>
<polygon fill="#000000" stroke="#000000" points="1604.8891,-934.0121 1614.1176,-928.8078 1603.6579,-927.1212 1604.8891,-934.0121"/>
</g>
<!-- backupy__BackupManager__backup&#45;&gt;backupy__BackupManager__abortRun -->
<g id="edge51" class="edge">
<title>backupy__BackupManager__backup&#45;&gt;backupy__BackupManager__abortRun</title>
<path fill="none" stroke="#000000" d="M891,-1039.7623C891,-1015.201 891,-971.2474 891,-942.3541"/>
<polygon fill="#000000" stroke="#000000" points="894.5001,-942.0896 891,-932.0896 887.5001,-942.0897 894.5001,-942.0896"/>
</g>
<!-- backupy__BackupManager__backup&#45;&gt;backupy__BackupManager__writeLog -->
<g id="edge48" class="edge">
<title>backupy__BackupManager__backup&#45;&gt;backupy__BackupManager__writeLog</title>
<path fill="none" stroke="#000000" d="M875.7335,-1041.4719C849.081,-1010.5502 799.9119,-942.8504 833,-896 892.0361,-812.4091 961.2534,-869.9581 1050,-819 1062.0869,-812.0597 1074.0836,-802.4936 1084.0028,-793.6546"/>
<polygon fill="#000000" stroke="#000000" points="1086.4812,-796.1304 1091.4743,-786.7858 1081.7437,-790.9771 1086.4812,-796.1304"/>
</g>
<!-- backupy__DirInfo____init__ -->
<g id="node29" class="node">
<title>backupy__DirInfo____init__</title>
<ellipse fill="#ff9999" fill-opacity="0.698039" stroke="#000000" cx="1961" cy="-338" rx="40.0939" ry="18"/>
<text text-anchor="middle" x="1961" y="-334.3" font-family="Times,serif" font-size="14.00" fill="#000000">__init__</text>
</g>
<!-- backupy__BackupManager__backup&#45;&gt;backupy__DirInfo____init__ -->
<g id="edge50" class="edge">
<title>backupy__BackupManager__backup&#45;&gt;backupy__DirInfo____init__</title>
<path fill="none" stroke="#000000" d="M1961,-482C1941.5018,-445.7645 1947.0761,-396.5975 1953.5426,-366.1064"/>
<polygon fill="#000000" stroke="#000000" points="1957.0015,-366.6815 1955.8274,-356.152 1950.1789,-365.1155 1957.0015,-366.6815"/>
</g>
<!-- backupy__DirInfo__dirCompare -->
<g id="node31" class="node">
<title>backupy__DirInfo__dirCompare</title>
<ellipse fill="#ff9999" fill-opacity="0.698039" stroke="#000000" cx="1724" cy="-338" rx="53.0913" ry="18"/>
<text text-anchor="middle" x="1724" y="-334.3" font-family="Times,serif" font-size="14.00" fill="#000000">dirCompare</text>
</g>
<!-- backupy__BackupManager__backup&#45;&gt;backupy__DirInfo__dirCompare -->
<g id="edge47" class="edge">
<title>backupy__BackupManager__backup&#45;&gt;backupy__DirInfo__dirCompare</title>
<path fill="none" stroke="#000000" d="M927.2504,-1056.27C1083.9439,-1048.355 1703.0038,-1012.4681 1878,-932 1946.0424,-900.7122 1972.6068,-887.4467 2003,-819 2036.0652,-744.5358 2016.7064,-607.33 1961,-482"/>
<path fill="none" stroke="#000000" d="M1961,-482C1920.5373,-406.8041 1866.1676,-432.6453 1794,-387 1780.885,-378.7049 1766.7999,-369.0071 1754.7274,-360.4381"/>
<polygon fill="#000000" stroke="#000000" points="1756.5046,-357.4061 1746.3351,-354.4342 1752.4317,-363.0992 1756.5046,-357.4061"/>
</g>
<!-- backupy__DirInfo__loadJson -->
<g id="node35" class="node">
<title>backupy__DirInfo__loadJson</title>
<ellipse fill="#ff9999" fill-opacity="0.698039" stroke="#000000" cx="1850" cy="-338" rx="41.6928" ry="18"/>
<text text-anchor="middle" x="1850" y="-334.3" font-family="Times,serif" font-size="14.00" fill="#000000">loadJson</text>
</g>
<!-- backupy__BackupManager__backup&#45;&gt;backupy__DirInfo__loadJson -->
<g id="edge54" class="edge">
<title>backupy__BackupManager__backup&#45;&gt;backupy__DirInfo__loadJson</title>
<path fill="none" stroke="#000000" d="M1961,-482C1936.3597,-436.2085 1897.4664,-389.7205 1872.8676,-362.3949"/>
<polygon fill="#000000" stroke="#000000" points="1875.3483,-359.9207 1866.0283,-354.882 1870.1719,-364.633 1875.3483,-359.9207"/>
</g>
<!-- backupy__DirInfo__scanDir -->
<g id="node38" class="node">
<title>backupy__DirInfo__scanDir</title>
<ellipse fill="#ff9999" fill-opacity="0.698039" stroke="#000000" cx="361" cy="-194" rx="38.1938" ry="18"/>
<text text-anchor="middle" x="361" y="-190.3" font-family="Times,serif" font-size="14.00" fill="#000000">scanDir</text>
</g>
<!-- backupy__BackupManager__backup&#45;&gt;backupy__DirInfo__scanDir -->
<g id="edge45" class="edge">
<title>backupy__BackupManager__backup&#45;&gt;backupy__DirInfo__scanDir</title>
<path fill="none" stroke="#000000" d="M855.3577,-1053.9246C772.486,-1043.3751 561.9565,-1010.3349 405,-932 332.8333,-895.9826 298.5707,-891.3879 263,-819 196.9375,-684.5602 275.0822,-630.8171 258,-482"/>
<path fill="none" stroke="#000000" d="M258,-482C253.9899,-431.7412 210.3743,-435.326 196,-387 187.5103,-358.4581 182.7986,-346.6915 196,-320 222.3317,-266.7609 283.1328,-229.8533 323.1162,-210.312"/>
<polygon fill="#000000" stroke="#000000" points="324.7721,-213.4002 332.3025,-205.9475 321.7681,-207.0775 324.7721,-213.4002"/>
</g>
<!-- backupy__BackupManager__copyFile -->
<g id="node16" class="node">
<title>backupy__BackupManager__copyFile</title>
<ellipse fill="#ff9999" fill-opacity="0.698039" stroke="#000000" cx="1038" cy="-626" rx="41.6928" ry="18"/>
<text text-anchor="middle" x="1038" y="-622.3" font-family="Times,serif" font-size="14.00" fill="#000000">copyFile</text>
</g>
<!-- backupy__BackupManager__copyFile&#45;&gt;backupy__DirInfo -->
<g id="edge24" class="edge">
<title>backupy__BackupManager__copyFile&#45;&gt;backupy__DirInfo</title>
<path fill="none" stroke="#000000" d="M1005.3298,-614.744C997.7245,-612.3346 989.6215,-609.9351 982,-608 730.8191,-544.2248 637.3426,-622.551 409,-500 348.2563,-467.399 298.527,-400.9933 274.1821,-364.1303"/>
<polygon fill="#000000" stroke="#000000" points="276.9228,-361.9234 268.5484,-355.4334 271.0477,-365.7292 276.9228,-361.9234"/>
</g>
<!-- backupy__DirInfo__updateDictOnCopy -->
<g id="node40" class="node">
<title>backupy__DirInfo__updateDictOnCopy</title>
<ellipse fill="#ff9999" fill-opacity="0.698039" stroke="#000000" cx="1334" cy="-338" rx="79.0865" ry="18"/>
<text text-anchor="middle" x="1334" y="-334.3" font-family="Times,serif" font-size="14.00" fill="#000000">updateDictOnCopy</text>
</g>
<!-- backupy__BackupManager__copyFile&#45;&gt;backupy__DirInfo__updateDictOnCopy -->
<g id="edge23" class="edge">
<title>backupy__BackupManager__copyFile&#45;&gt;backupy__DirInfo__updateDictOnCopy</title>
<path fill="none" stroke="#000000" d="M1040.3864,-607.8592C1045.6972,-574.0828 1061.3944,-500.9155 1102,-456 1148.2531,-404.8376 1179.5971,-418.4105 1241,-387 1258.2489,-378.1764 1277.1855,-368.2441 1293.4435,-359.6403"/>
<polygon fill="#000000" stroke="#000000" points="1295.4781,-362.5231 1302.6735,-354.7464 1292.199,-356.3387 1295.4781,-362.5231"/>
</g>
<!-- backupy__DirInfo__verifyCrcOnCopy -->
<g id="node43" class="node">
<title>backupy__DirInfo__verifyCrcOnCopy</title>
<ellipse fill="#ff9999" fill-opacity="0.698039" stroke="#000000" cx="1152" cy="-338" rx="74.187" ry="18"/>
<text text-anchor="middle" x="1152" y="-334.3" font-family="Times,serif" font-size="14.00" fill="#000000">verifyCrcOnCopy</text>
</g>
<!-- backupy__BackupManager__copyFile&#45;&gt;backupy__DirInfo__verifyCrcOnCopy -->
<g id="edge22" class="edge">
<title>backupy__BackupManager__copyFile&#45;&gt;backupy__DirInfo__verifyCrcOnCopy</title>
<path fill="none" stroke="#000000" d="M1039.087,-607.9317C1041.5224,-576.0938 1049.0477,-508.4108 1071,-456 1085.5345,-421.2992 1111.2097,-386.3694 1129.7637,-363.6194"/>
<polygon fill="#000000" stroke="#000000" points="1132.5502,-365.7423 1136.2433,-355.8119 1127.1636,-361.2718 1132.5502,-365.7423"/>
</g>
<!-- backupy__BackupManager__copyFiles&#45;&gt;backupy__BackupManager__copyFile -->
<g id="edge28" class="edge">
<title>backupy__BackupManager__copyFiles&#45;&gt;backupy__BackupManager__copyFile</title>
<path fill="none" stroke="#000000" d="M996.8576,-752.0535C1004.9141,-727.3696 1019.4901,-682.7111 1028.9536,-653.7167"/>
<polygon fill="#000000" stroke="#000000" points="1032.293,-654.7652 1032.0686,-644.1727 1025.6385,-652.5932 1032.293,-654.7652"/>
</g>
<!-- backupy__BackupManager__handleChangedFiles&#45;&gt;backupy__BackupManager__archiveFile -->
<g id="edge34" class="edge">
<title>backupy__BackupManager__handleChangedFiles&#45;&gt;backupy__BackupManager__archiveFile</title>
<path fill="none" stroke="#000000" d="M845.2196,-752.0535C859.4759,-727.0179 885.433,-681.4347 901.917,-652.4872"/>
<polygon fill="#000000" stroke="#000000" points="905.0023,-654.1422 906.9092,-643.7204 898.9194,-650.6783 905.0023,-654.1422"/>
</g>
<!-- backupy__BackupManager__handleChangedFiles&#45;&gt;backupy__BackupManager__copyFile -->
<g id="edge35" class="edge">
<title>backupy__BackupManager__handleChangedFiles&#45;&gt;backupy__BackupManager__copyFile</title>
<path fill="none" stroke="#000000" d="M859.4865,-752.6302C896.721,-726.2176 967.499,-676.0105 1007.8467,-647.3895"/>
<polygon fill="#000000" stroke="#000000" points="1010.0802,-650.0964 1016.2115,-641.4559 1006.0301,-644.387 1010.0802,-650.0964"/>
</g>
<!-- backupy__BackupManager__moveFiles -->
<g id="node23" class="node">
<title>backupy__BackupManager__moveFiles</title>
<ellipse fill="#ff9999" fill-opacity="0.698039" stroke="#000000" cx="607" cy="-626" rx="48.1917" ry="18"/>
<text text-anchor="middle" x="607" y="-622.3" font-family="Times,serif" font-size="14.00" fill="#000000">moveFiles</text>
</g>
<!-- backupy__BackupManager__handleDeletedFiles&#45;&gt;backupy__BackupManager__moveFiles -->
<g id="edge31" class="edge">
<title>backupy__BackupManager__handleDeletedFiles&#45;&gt;backupy__BackupManager__moveFiles</title>
<path fill="none" stroke="#000000" d="M607,-751.7623C607,-727.201 607,-683.2474 607,-654.3541"/>
<polygon fill="#000000" stroke="#000000" points="610.5001,-654.0896 607,-644.0896 603.5001,-654.0897 610.5001,-654.0896"/>
</g>
<!-- backupy__BackupManager__removeFiles -->
<g id="node25" class="node">
<title>backupy__BackupManager__removeFiles</title>
<ellipse fill="#ff9999" fill-opacity="0.698039" stroke="#000000" cx="475" cy="-626" rx="54.6905" ry="18"/>
<text text-anchor="middle" x="475" y="-622.3" font-family="Times,serif" font-size="14.00" fill="#000000">removeFiles</text>
</g>
<!-- backupy__BackupManager__handleDeletedFiles&#45;&gt;backupy__BackupManager__removeFiles -->
<g id="edge30" class="edge">
<title>backupy__BackupManager__handleDeletedFiles&#45;&gt;backupy__BackupManager__removeFiles</title>
<path fill="none" stroke="#000000" d="M590.8142,-752.3428C567.5312,-726.9431 524.4742,-679.9719 497.9259,-651.0101"/>
<polygon fill="#000000" stroke="#000000" points="500.2432,-648.3584 490.9059,-643.3519 495.0831,-653.0885 500.2432,-648.3584"/>
</g>
<!-- backupy__BackupManager__handleMovedFiles&#45;&gt;backupy__BackupManager__moveFile -->
<g id="edge32" class="edge">
<title>backupy__BackupManager__handleMovedFiles&#45;&gt;backupy__BackupManager__moveFile</title>
<path fill="none" stroke="#000000" d="M761,-607.7623C761,-583.201 761,-539.2474 761,-510.3541"/>
<polygon fill="#000000" stroke="#000000" points="764.5001,-510.0896 761,-500.0896 757.5001,-510.0897 764.5001,-510.0896"/>
</g>
<!-- backupy__BackupManager__loadJson&#45;&gt;backupy__ConfigObject -->
<g id="edge16" class="edge">
<title>backupy__BackupManager__loadJson&#45;&gt;backupy__ConfigObject</title>
<path fill="none" stroke="#000000" d="M547.9322,-900.2312C514.2655,-882.7406 455.4383,-850.9698 408,-819 396.509,-811.2559 384.4345,-801.9953 374.0256,-793.6202"/>
<polygon fill="#000000" stroke="#000000" points="376.0398,-790.7465 366.0779,-787.1393 371.616,-796.1715 376.0398,-790.7465"/>
</g>
<!-- backupy__BackupManager__loadJson&#45;&gt;backupy__ConfigObject____init__ -->
<g id="edge15" class="edge">
<title>backupy__BackupManager__loadJson&#45;&gt;backupy__ConfigObject____init__</title>
<path fill="none" stroke="#000000" d="M606.9242,-902.2336C614.7053,-899.7864 623.0728,-897.4986 631,-896 899.4485,-845.2525 1608.9929,-931.4071 1858,-819 1869.7036,-813.7167 1880.1657,-804.3213 1888.3872,-795.161"/>
<polygon fill="#000000" stroke="#000000" points="1891.2555,-797.188 1895.0102,-787.2808 1885.8968,-792.6842 1891.2555,-797.188"/>
</g>
<!-- backupy__BackupManager__moveFile&#45;&gt;backupy__DirInfo -->
<g id="edge26" class="edge">
<title>backupy__BackupManager__moveFile&#45;&gt;backupy__DirInfo</title>
<path fill="none" stroke="#000000" d="M718.5982,-476.9042C618.4386,-464.2977 370.2675,-429.5677 299,-387 289.4296,-381.2837 281.0547,-372.5038 274.4115,-363.9467"/>
<polygon fill="#000000" stroke="#000000" points="277.0614,-361.6381 268.3655,-355.5856 271.389,-365.7399 277.0614,-361.6381"/>
</g>
<!-- backupy__DirInfo__updateDictOnMove -->
<g id="node41" class="node">
<title>backupy__DirInfo__updateDictOnMove</title>
<ellipse fill="#ff9999" fill-opacity="0.698039" stroke="#000000" cx="968" cy="-338" rx="81.4863" ry="18"/>
<text text-anchor="middle" x="968" y="-334.3" font-family="Times,serif" font-size="14.00" fill="#000000">updateDictOnMove</text>
</g>
<!-- backupy__BackupManager__moveFile&#45;&gt;backupy__DirInfo__updateDictOnMove -->
<g id="edge25" class="edge">
<title>backupy__BackupManager__moveFile&#45;&gt;backupy__DirInfo__updateDictOnMove</title>
<path fill="none" stroke="#000000" d="M783.5467,-466.3154C820.1123,-440.8784 892.5177,-390.5094 934.9233,-361.0099"/>
<polygon fill="#000000" stroke="#000000" points="937.0286,-363.8089 943.239,-355.2251 933.0312,-358.0626 937.0286,-363.8089"/>
</g>
<!-- backupy__BackupManager__moveFiles&#45;&gt;backupy__BackupManager__moveFile -->
<g id="edge29" class="edge">
<title>backupy__BackupManager__moveFiles&#45;&gt;backupy__BackupManager__moveFile</title>
<path fill="none" stroke="#000000" d="M624.9672,-609.1995C652.3231,-583.62 704.5226,-534.81 735.7013,-505.6559"/>
<polygon fill="#000000" stroke="#000000" points="738.2335,-508.0799 743.1473,-498.6934 733.4525,-502.9669 738.2335,-508.0799"/>
</g>
<!-- backupy__BackupManager__removeFile -->
<g id="node24" class="node">
<title>backupy__BackupManager__removeFile</title>
<ellipse fill="#ff9999" fill-opacity="0.698039" stroke="#000000" cx="475" cy="-482" rx="51.1914" ry="18"/>
<text text-anchor="middle" x="475" y="-478.3" font-family="Times,serif" font-size="14.00" fill="#000000">removeFile</text>
</g>
<!-- backupy__BackupManager__removeFile&#45;&gt;backupy__DirInfo -->
<g id="edge21" class="edge">
<title>backupy__BackupManager__removeFile&#45;&gt;backupy__DirInfo</title>
<path fill="none" stroke="#000000" d="M444.8014,-467.4321C401.246,-446.1319 323.3452,-406.8691 299,-387 290.6214,-380.1619 282.6778,-371.4249 276.0531,-363.2273"/>
<polygon fill="#000000" stroke="#000000" points="278.7968,-361.054 269.9008,-355.2998 273.2668,-365.3457 278.7968,-361.054"/>
</g>
<!-- backupy__DirInfo__updateDictOnRemove -->
<g id="node42" class="node">
<title>backupy__DirInfo__updateDictOnRemove</title>
<ellipse fill="#ff9999" fill-opacity="0.698039" stroke="#000000" cx="768" cy="-338" rx="89.8845" ry="18"/>
<text text-anchor="middle" x="768" y="-334.3" font-family="Times,serif" font-size="14.00" fill="#000000">updateDictOnRemove</text>
</g>
<!-- backupy__BackupManager__removeFile&#45;&gt;backupy__DirInfo__updateDictOnRemove -->
<g id="edge20" class="edge">
<title>backupy__BackupManager__removeFile&#45;&gt;backupy__DirInfo__updateDictOnRemove</title>
<path fill="none" stroke="#000000" d="M506.1863,-467.526C545.5045,-449.1831 615.0838,-416.4074 674,-387 691.3437,-378.3431 710.3281,-368.515 726.6672,-359.9448"/>
<polygon fill="#000000" stroke="#000000" points="728.7282,-362.8155 735.9493,-355.0626 725.4696,-356.6202 728.7282,-362.8155"/>
</g>
<!-- backupy__BackupManager__removeFiles&#45;&gt;backupy__BackupManager__removeFile -->
<g id="edge27" class="edge">
<title>backupy__BackupManager__removeFiles&#45;&gt;backupy__BackupManager__removeFile</title>
<path fill="none" stroke="#000000" d="M475,-607.7623C475,-583.201 475,-539.2474 475,-510.3541"/>
<polygon fill="#000000" stroke="#000000" points="478.5001,-510.0896 475,-500.0896 471.5001,-510.0897 478.5001,-510.0896"/>
</g>
<!-- backupy__BackupManager__saveJson&#45;&gt;backupy__ConfigObject -->
<g id="edge14" class="edge">
<title>backupy__BackupManager__saveJson&#45;&gt;backupy__ConfigObject</title>
<path fill="none" stroke="#000000" d="M448.2378,-896.9158C428.0276,-871.8273 390.1741,-824.8368 366.6295,-795.6091"/>
<polygon fill="#000000" stroke="#000000" points="369.1051,-793.1029 360.1061,-787.511 363.6538,-797.4942 369.1051,-793.1029"/>
</g>
<!-- backupy__DirInfo__calcCrc -->
<g id="node30" class="node">
<title>backupy__DirInfo__calcCrc</title>
<ellipse fill="#ff9999" fill-opacity="0.698039" stroke="#000000" cx="605" cy="-50" rx="37.8943" ry="18"/>
<text text-anchor="middle" x="605" y="-46.3" font-family="Times,serif" font-size="14.00" fill="#000000">calcCrc</text>
</g>
<!-- backupy__BackupManager__writeLog&#45;&gt;backupy__DirInfo__calcCrc -->
<g id="edge18" class="edge">
<title>backupy__BackupManager__writeLog&#45;&gt;backupy__DirInfo__calcCrc</title>
<path fill="none" stroke="#000000" d="M1107.1779,-751.75C1106.1866,-724.3512 1105.1981,-670.9989 1110,-626"/>
<path fill="none" stroke="#000000" d="M1110,-626C1111.7686,-609.426 1119.6626,-605.0122 820,-456 752.1171,-422.2441 709.8878,-447.3479 664,-387 635.3145,-349.2752 641.5905,-222.6072 633,-176 626.7802,-142.2552 617.9833,-103.7991 611.9176,-78.3408"/>
<polygon fill="#000000" stroke="#000000" points="615.2393,-77.1837 609.5007,-68.2775 608.4329,-78.8184 615.2393,-77.1837"/>
</g>
<!-- backupy__DirInfo__saveJson -->
<g id="node37" class="node">
<title>backupy__DirInfo__saveJson</title>
<ellipse fill="#ff9999" fill-opacity="0.698039" stroke="#000000" cx="1485" cy="-338" rx="42.4939" ry="18"/>
<text text-anchor="middle" x="1485" y="-334.3" font-family="Times,serif" font-size="14.00" fill="#000000">saveJson</text>
</g>
<!-- backupy__BackupManager__writeLog&#45;&gt;backupy__DirInfo__saveJson -->
<g id="edge17" class="edge">
<title>backupy__BackupManager__writeLog&#45;&gt;backupy__DirInfo__saveJson</title>
<path fill="none" stroke="#000000" d="M1110,-626C1092.5119,-450.067 1290.2241,-497.7974 1428,-387 1438.2488,-378.7581 1449.2621,-369.4114 1458.8496,-361.1071"/>
<polygon fill="#000000" stroke="#000000" points="1461.2796,-363.6321 1466.5197,-354.4238 1456.6809,-358.3545 1461.2796,-363.6321"/>
</g>
<!-- backupy__DirInfo__fileMatch -->
<g id="node32" class="node">
<title>backupy__DirInfo__fileMatch</title>
<ellipse fill="#ff9999" fill-opacity="0.698039" stroke="#000000" cx="475" cy="-194" rx="45.4919" ry="18"/>
<text text-anchor="middle" x="475" y="-190.3" font-family="Times,serif" font-size="14.00" fill="#000000">fileMatch</text>
</g>
<!-- backupy__DirInfo__dirCompare&#45;&gt;backupy__DirInfo__fileMatch -->
<g id="edge9" class="edge">
<title>backupy__DirInfo__dirCompare&#45;&gt;backupy__DirInfo__fileMatch</title>
<path fill="none" stroke="#000000" d="M1682.7237,-326.564C1672.7276,-324.105 1662.031,-321.7289 1652,-320 1160.488,-235.2828 1024.4108,-308.1156 535,-212 529.9927,-211.0166 524.8054,-209.789 519.6721,-208.4398"/>
<polygon fill="#000000" stroke="#000000" points="520.5012,-205.0375 509.9288,-205.7274 518.6238,-211.7811 520.5012,-205.0375"/>
</g>
<!-- backupy__DirInfo__timeMatch -->
<g id="node39" class="node">
<title>backupy__DirInfo__timeMatch</title>
<ellipse fill="#ff9999" fill-opacity="0.698039" stroke="#000000" cx="488" cy="-50" rx="50.0912" ry="18"/>
<text text-anchor="middle" x="488" y="-46.3" font-family="Times,serif" font-size="14.00" fill="#000000">timeMatch</text>
</g>
<!-- backupy__DirInfo__fileMatch&#45;&gt;backupy__DirInfo__timeMatch -->
<g id="edge5" class="edge">
<title>backupy__DirInfo__fileMatch&#45;&gt;backupy__DirInfo__timeMatch</title>
<path fill="none" stroke="#000000" d="M476.6465,-175.7623C478.8638,-151.201 482.8318,-107.2474 485.4403,-78.3541"/>
<polygon fill="#000000" stroke="#000000" points="488.9535,-78.3638 486.3669,-68.0896 481.9819,-77.7344 488.9535,-78.3638"/>
</g>
<!-- backupy__DirInfo__getCrc -->
<g id="node33" class="node">
<title>backupy__DirInfo__getCrc</title>
<ellipse fill="#ff9999" fill-opacity="0.698039" stroke="#000000" cx="584" cy="-194" rx="34.394" ry="18"/>
<text text-anchor="middle" x="584" y="-190.3" font-family="Times,serif" font-size="14.00" fill="#000000">getCrc</text>
</g>
<!-- backupy__DirInfo__getCrc&#45;&gt;backupy__DirInfo__calcCrc -->
<g id="edge4" class="edge">
<title>backupy__DirInfo__getCrc&#45;&gt;backupy__DirInfo__calcCrc</title>
<path fill="none" stroke="#000000" d="M586.6597,-175.7623C590.2415,-151.201 596.6514,-107.2474 600.865,-78.3541"/>
<polygon fill="#000000" stroke="#000000" points="604.3821,-78.4901 602.3619,-68.0896 597.4554,-77.4798 604.3821,-78.4901"/>
</g>
<!-- backupy__DirInfo__pathMatch -->
<g id="node36" class="node">
<title>backupy__DirInfo__pathMatch</title>
<ellipse fill="#ff9999" fill-opacity="0.698039" stroke="#000000" cx="360" cy="-50" rx="48.9926" ry="18"/>
<text text-anchor="middle" x="360" y="-46.3" font-family="Times,serif" font-size="14.00" fill="#000000">pathMatch</text>
</g>
<!-- backupy__DirInfo__scanDir&#45;&gt;backupy__DirInfo__calcCrc -->
<g id="edge8" class="edge">
<title>backupy__DirInfo__scanDir&#45;&gt;backupy__DirInfo__calcCrc</title>
<path fill="none" stroke="#000000" d="M385.2877,-179.6663C429.4306,-153.6147 522.8276,-98.4952 572.4383,-69.2167"/>
<polygon fill="#000000" stroke="#000000" points="574.3373,-72.1602 581.1704,-64.0633 570.7794,-66.1317 574.3373,-72.1602"/>
</g>
<!-- backupy__DirInfo__scanDir&#45;&gt;backupy__DirInfo__pathMatch -->
<g id="edge7" class="edge">
<title>backupy__DirInfo__scanDir&#45;&gt;backupy__DirInfo__pathMatch</title>
<path fill="none" stroke="#000000" d="M360.8733,-175.7623C360.7028,-151.201 360.3976,-107.2474 360.1969,-78.3541"/>
<polygon fill="#000000" stroke="#000000" points="363.6951,-78.065 360.1256,-68.0896 356.6952,-78.1137 363.6951,-78.065"/>
</g>
<!-- backupy__DirInfo__scanDir&#45;&gt;backupy__DirInfo__timeMatch -->
<g id="edge6" class="edge">
<title>backupy__DirInfo__scanDir&#45;&gt;backupy__DirInfo__timeMatch</title>
<path fill="none" stroke="#000000" d="M375.8171,-177.1995C397.9464,-152.108 439.7893,-104.6641 465.6464,-75.3458"/>
<polygon fill="#000000" stroke="#000000" points="468.4963,-77.4058 472.4859,-67.5908 463.2464,-72.7756 468.4963,-77.4058"/>
</g>
<!-- backupy__DirInfo__verifyCrcOnCopy&#45;&gt;backupy__DirInfo__getCrc -->
<g id="edge3" class="edge">
<title>backupy__DirInfo__verifyCrcOnCopy&#45;&gt;backupy__DirInfo__getCrc</title>
<path fill="none" stroke="#000000" d="M1100.592,-324.967C989.0454,-296.6876 726.6819,-230.1729 625.1408,-204.4301"/>
<polygon fill="#000000" stroke="#000000" points="625.8141,-200.9901 615.2607,-201.9252 624.0939,-207.7754 625.8141,-200.9901"/>
</g>
</g>
</svg>
