<?xml version="1.0" encoding="UTF-8" standalone="no"?>
<!DOCTYPE svg PUBLIC "-//W3C//DTD SVG 1.1//EN"
 "http://www.w3.org/Graphics/SVG/1.1/DTD/svg11.dtd">
<!-- Generated by graphviz version 2.43.0 (0)
 -->
<!-- Title: G Pages: 1 -->
<svg width="2928pt" height="1124pt"
 viewBox="0.00 0.00 2927.94 1124.00" xmlns="http://www.w3.org/2000/svg" xmlns:xlink="http://www.w3.org/1999/xlink">
<g id="graph0" class="graph" transform="scale(1 1) rotate(0) translate(4 1120)">
<title>G</title>
<polygon fill="white" stroke="transparent" points="-4,4 -4,-1120 2923.94,-1120 2923.94,4 -4,4"/>
<!-- backupy -->
<g id="node1" class="node">
<title>backupy</title>
<ellipse fill="#ffffff" fill-opacity="0.698039" stroke="black" cx="49.4" cy="-1098" rx="49.29" ry="18"/>
<text text-anchor="middle" x="49.4" y="-1094.3" font-family="Times,serif" font-size="14.00" fill="#000000">backupy</text>
</g>
<!-- backupy__dirinfo -->
<g id="node2" class="node">
<title>backupy__dirinfo</title>
<ellipse fill="#ffffff" fill-opacity="0.698039" stroke="black" cx="194.4" cy="-1098" rx="81.49" ry="18"/>
<text text-anchor="middle" x="194.4" y="-1094.3" font-family="Times,serif" font-size="14.00" fill="#000000">backupy.dirinfo</text>
</g>
<!-- backupy__fileman -->
<g id="node3" class="node">
<title>backupy__fileman</title>
<ellipse fill="#ffffff" fill-opacity="0.698039" stroke="black" cx="374.4" cy="-1098" rx="85.29" ry="18"/>
<text text-anchor="middle" x="374.4" y="-1094.3" font-family="Times,serif" font-size="14.00" fill="#000000">backupy.fileman</text>
</g>
<!-- backupy__backupman__BackupManager -->
<g id="node4" class="node">
<title>backupy__backupman__BackupManager</title>
<ellipse fill="#ff9999" fill-opacity="0.698039" stroke="black" cx="560.4" cy="-1098" rx="86.38" ry="18"/>
<text text-anchor="middle" x="560.4" y="-1094.3" font-family="Times,serif" font-size="14.00" fill="#000000">BackupManager</text>
</g>
<!-- backupy__backupman__BackupManager____init__ -->
<g id="node5" class="node">
<title>backupy__backupman__BackupManager____init__</title>
<ellipse fill="#ff6565" fill-opacity="0.698039" stroke="black" cx="705.4" cy="-1098" rx="44.39" ry="18"/>
<text text-anchor="middle" x="705.4" y="-1094.3" font-family="Times,serif" font-size="14.00" fill="#000000">__init__</text>
</g>
<!-- backupy__backupman__BackupManager__loadConfig -->
<g id="node12" class="node">
<title>backupy__backupman__BackupManager__loadConfig</title>
<ellipse fill="#ff6565" fill-opacity="0.698039" stroke="black" cx="637.4" cy="-918" rx="59.59" ry="18"/>
<text text-anchor="middle" x="637.4" y="-914.3" font-family="Times,serif" font-size="14.00" fill="#000000">loadConfig</text>
</g>
<!-- backupy__backupman__BackupManager____init__&#45;&gt;backupy__backupman__BackupManager__loadConfig -->
<g id="edge2" class="edge">
<title>backupy__backupman__BackupManager____init__&#45;&gt;backupy__backupman__BackupManager__loadConfig</title>
<path fill="none" stroke="#000000" d="M698.88,-1079.93C686.99,-1048.83 661.74,-982.73 647.58,-945.65"/>
<polygon fill="#000000" stroke="#000000" points="650.73,-944.11 643.9,-936.02 644.2,-946.61 650.73,-944.11"/>
</g>
<!-- backupy__backupman__BackupManager__saveConfig -->
<g id="node14" class="node">
<title>backupy__backupman__BackupManager__saveConfig</title>
<ellipse fill="#ff6565" fill-opacity="0.698039" stroke="black" cx="773.4" cy="-918" rx="61.99" ry="18"/>
<text text-anchor="middle" x="773.4" y="-914.3" font-family="Times,serif" font-size="14.00" fill="#000000">saveConfig</text>
</g>
<!-- backupy__backupman__BackupManager____init__&#45;&gt;backupy__backupman__BackupManager__saveConfig -->
<g id="edge1" class="edge">
<title>backupy__backupman__BackupManager____init__&#45;&gt;backupy__backupman__BackupManager__saveConfig</title>
<path fill="none" stroke="#000000" d="M711.92,-1079.93C723.8,-1048.83 749.05,-982.73 763.21,-945.65"/>
<polygon fill="#000000" stroke="#000000" points="766.6,-946.61 766.9,-936.02 760.06,-944.11 766.6,-946.61"/>
</g>
<!-- backupy__backupman__BackupManager___checkConsistency -->
<g id="node6" class="node">
<title>backupy__backupman__BackupManager___checkConsistency</title>
<ellipse fill="#ff6565" fill-opacity="0.698039" stroke="black" cx="976.4" cy="-918" rx="97.48" ry="18"/>
<text text-anchor="middle" x="976.4" y="-914.3" font-family="Times,serif" font-size="14.00" fill="#000000">_checkConsistency</text>
</g>
<!-- backupy__dirinfo__DirInfo__getSets -->
<g id="node24" class="node">
<title>backupy__dirinfo__DirInfo__getSets</title>
<ellipse fill="#b2ff65" fill-opacity="0.698039" stroke="black" cx="976.4" cy="-738" rx="46.29" ry="18"/>
<text text-anchor="middle" x="976.4" y="-734.3" font-family="Times,serif" font-size="14.00" fill="#000000">getSets</text>
</g>
<!-- backupy__backupman__BackupManager___checkConsistency&#45;&gt;backupy__dirinfo__DirInfo__getSets -->
<g id="edge3" class="edge">
<title>backupy__backupman__BackupManager___checkConsistency&#45;&gt;backupy__dirinfo__DirInfo__getSets</title>
<path fill="none" stroke="#000000" d="M976.4,-899.93C976.4,-868.97 976.4,-803.3 976.4,-766.13"/>
<polygon fill="#000000" stroke="#000000" points="979.9,-766.02 976.4,-756.02 972.9,-766.02 979.9,-766.02"/>
</g>
<!-- backupy__dirinfo__DirInfo__selfCompare -->
<g id="node30" class="node">
<title>backupy__dirinfo__DirInfo__selfCompare</title>
<ellipse fill="#b2ff65" fill-opacity="0.698039" stroke="black" cx="1648.4" cy="-378" rx="69.59" ry="18"/>
<text text-anchor="middle" x="1648.4" y="-374.3" font-family="Times,serif" font-size="14.00" fill="#000000">selfCompare</text>
</g>
<!-- backupy__backupman__BackupManager___checkConsistency&#45;&gt;backupy__dirinfo__DirInfo__selfCompare -->
<g id="edge4" class="edge">
<title>backupy__backupman__BackupManager___checkConsistency&#45;&gt;backupy__dirinfo__DirInfo__selfCompare</title>
<path fill="none" stroke="#000000" d="M997.24,-900.31C1095.04,-822.01 1508.27,-491.19 1620.29,-401.5"/>
<polygon fill="#000000" stroke="#000000" points="1622.5,-404.22 1628.12,-395.23 1618.13,-398.75 1622.5,-404.22"/>
</g>
<!-- backupy__backupman__BackupManager___databaseAndCorruptionCheck -->
<g id="node7" class="node">
<title>backupy__backupman__BackupManager___databaseAndCorruptionCheck</title>
<ellipse fill="#ff6565" fill-opacity="0.698039" stroke="black" cx="1613.4" cy="-918" rx="154.07" ry="18"/>
<text text-anchor="middle" x="1613.4" y="-914.3" font-family="Times,serif" font-size="14.00" fill="#000000">_databaseAndCorruptionCheck</text>
</g>
<!-- backupy__dirinfo__DirInfo__getDicts -->
<g id="node21" class="node">
<title>backupy__dirinfo__DirInfo__getDicts</title>
<ellipse fill="#b2ff65" fill-opacity="0.698039" stroke="black" cx="1706.4" cy="-738" rx="50.09" ry="18"/>
<text text-anchor="middle" x="1706.4" y="-734.3" font-family="Times,serif" font-size="14.00" fill="#000000">getDicts</text>
</g>
<!-- backupy__backupman__BackupManager___databaseAndCorruptionCheck&#45;&gt;backupy__dirinfo__DirInfo__getDicts -->
<g id="edge5" class="edge">
<title>backupy__backupman__BackupManager___databaseAndCorruptionCheck&#45;&gt;backupy__dirinfo__DirInfo__getDicts</title>
<path fill="none" stroke="#000000" d="M1622.31,-899.93C1638.67,-868.62 1673.57,-801.83 1692.87,-764.9"/>
<polygon fill="#000000" stroke="#000000" points="1696.11,-766.24 1697.64,-755.76 1689.91,-763 1696.11,-766.24"/>
</g>
<!-- backupy__backupman__BackupManager___performBackup -->
<g id="node8" class="node">
<title>backupy__backupman__BackupManager___performBackup</title>
<ellipse fill="#ff6565" fill-opacity="0.698039" stroke="black" cx="2490.4" cy="-918" rx="87.18" ry="18"/>
<text text-anchor="middle" x="2490.4" y="-914.3" font-family="Times,serif" font-size="14.00" fill="#000000">_performBackup</text>
</g>
<!-- backupy__backupman__BackupManager___performBackup&#45;&gt;backupy__dirinfo__DirInfo__getDicts -->
<g id="edge14" class="edge">
<title>backupy__backupman__BackupManager___performBackup&#45;&gt;backupy__dirinfo__DirInfo__getDicts</title>
<path fill="none" stroke="#000000" d="M2434.01,-904.2C2287.75,-870.99 1897.82,-782.46 1757.56,-750.62"/>
<polygon fill="#000000" stroke="#000000" points="1758.03,-747.13 1747.5,-748.33 1756.48,-753.96 1758.03,-747.13"/>
</g>
<!-- backupy__fileman__FileManager -->
<g id="node36" class="node">
<title>backupy__fileman__FileManager</title>
<ellipse fill="#99feff" fill-opacity="0.698039" stroke="black" cx="2715.4" cy="-738" rx="69.59" ry="18"/>
<text text-anchor="middle" x="2715.4" y="-734.3" font-family="Times,serif" font-size="14.00" fill="#000000">FileManager</text>
</g>
<!-- backupy__backupman__BackupManager___performBackup&#45;&gt;backupy__fileman__FileManager -->
<g id="edge9" class="edge">
<title>backupy__backupman__BackupManager___performBackup&#45;&gt;backupy__fileman__FileManager</title>
<path fill="none" stroke="#000000" d="M2511.56,-900.25C2552.14,-868.15 2640.9,-797.93 2686.74,-761.67"/>
<polygon fill="#000000" stroke="#000000" points="2689.1,-764.26 2694.77,-755.31 2684.76,-758.77 2689.1,-764.26"/>
</g>
<!-- backupy__fileman__FileManager____init__ -->
<g id="node37" class="node">
<title>backupy__fileman__FileManager____init__</title>
<ellipse fill="#65feff" fill-opacity="0.698039" stroke="black" cx="2843.4" cy="-738" rx="44.39" ry="18"/>
<text text-anchor="middle" x="2843.4" y="-734.3" font-family="Times,serif" font-size="14.00" fill="#000000">__init__</text>
</g>
<!-- backupy__backupman__BackupManager___performBackup&#45;&gt;backupy__fileman__FileManager____init__ -->
<g id="edge15" class="edge">
<title>backupy__backupman__BackupManager___performBackup&#45;&gt;backupy__fileman__FileManager____init__</title>
<path fill="none" stroke="#000000" d="M2521.72,-901.2C2587.15,-868.21 2737.98,-792.16 2807.32,-757.19"/>
<polygon fill="#000000" stroke="#000000" points="2809.2,-760.16 2816.55,-752.54 2806.05,-753.91 2809.2,-760.16"/>
</g>
<!-- backupy__fileman__FileManager__copyFiles -->
<g id="node44" class="node">
<title>backupy__fileman__FileManager__copyFiles</title>
<ellipse fill="#65feff" fill-opacity="0.698039" stroke="black" cx="2577.4" cy="-738" rx="54.69" ry="18"/>
<text text-anchor="middle" x="2577.4" y="-734.3" font-family="Times,serif" font-size="14.00" fill="#000000">copyFiles</text>
</g>
<!-- backupy__backupman__BackupManager___performBackup&#45;&gt;backupy__fileman__FileManager__copyFiles -->
<g id="edge11" class="edge">
<title>backupy__backupman__BackupManager___performBackup&#45;&gt;backupy__fileman__FileManager__copyFiles</title>
<path fill="none" stroke="#000000" d="M2498.74,-899.93C2514,-868.7 2546.52,-802.17 2564.6,-765.18"/>
<polygon fill="#000000" stroke="#000000" points="2567.83,-766.54 2569.08,-756.02 2561.54,-763.46 2567.83,-766.54"/>
</g>
<!-- backupy__fileman__FileManager__handleChangedFiles -->
<g id="node45" class="node">
<title>backupy__fileman__FileManager__handleChangedFiles</title>
<ellipse fill="#65feff" fill-opacity="0.698039" stroke="black" cx="2403.4" cy="-738" rx="105.08" ry="18"/>
<text text-anchor="middle" x="2403.4" y="-734.3" font-family="Times,serif" font-size="14.00" fill="#000000">handleChangedFiles</text>
</g>
<!-- backupy__backupman__BackupManager___performBackup&#45;&gt;backupy__fileman__FileManager__handleChangedFiles -->
<g id="edge13" class="edge">
<title>backupy__backupman__BackupManager___performBackup&#45;&gt;backupy__fileman__FileManager__handleChangedFiles</title>
<path fill="none" stroke="#000000" d="M2482.05,-899.93C2466.79,-868.7 2434.27,-802.17 2416.19,-765.18"/>
<polygon fill="#000000" stroke="#000000" points="2419.25,-763.46 2411.71,-756.02 2412.96,-766.54 2419.25,-763.46"/>
</g>
<!-- backupy__fileman__FileManager__handleDeletedFiles -->
<g id="node46" class="node">
<title>backupy__fileman__FileManager__handleDeletedFiles</title>
<ellipse fill="#65feff" fill-opacity="0.698039" stroke="black" cx="2055.4" cy="-738" rx="100.98" ry="18"/>
<text text-anchor="middle" x="2055.4" y="-734.3" font-family="Times,serif" font-size="14.00" fill="#000000">handleDeletedFiles</text>
</g>
<!-- backupy__backupman__BackupManager___performBackup&#45;&gt;backupy__fileman__FileManager__handleDeletedFiles -->
<g id="edge10" class="edge">
<title>backupy__backupman__BackupManager___performBackup&#45;&gt;backupy__fileman__FileManager__handleDeletedFiles</title>
<path fill="none" stroke="#000000" d="M2452.93,-901.67C2373.97,-869.36 2190.58,-794.32 2103.26,-758.59"/>
<polygon fill="#000000" stroke="#000000" points="2104.44,-755.29 2093.86,-754.74 2101.79,-761.76 2104.44,-755.29"/>
</g>
<!-- backupy__fileman__FileManager__handleMovedFiles -->
<g id="node47" class="node">
<title>backupy__fileman__FileManager__handleMovedFiles</title>
<ellipse fill="#65feff" fill-opacity="0.698039" stroke="black" cx="2227.4" cy="-558" rx="95.58" ry="18"/>
<text text-anchor="middle" x="2227.4" y="-554.3" font-family="Times,serif" font-size="14.00" fill="#000000">handleMovedFiles</text>
</g>
<!-- backupy__backupman__BackupManager___performBackup&#45;&gt;backupy__fileman__FileManager__handleMovedFiles -->
<g id="edge12" class="edge">
<title>backupy__backupman__BackupManager___performBackup&#45;&gt;backupy__fileman__FileManager__handleMovedFiles</title>
<path fill="none" stroke="#000000" d="M2461.26,-900.92C2418.02,-875.61 2337.09,-822.46 2291.4,-756 2254.63,-702.53 2237.9,-626.55 2231.22,-586.37"/>
<polygon fill="#000000" stroke="#000000" points="2234.64,-585.6 2229.63,-576.27 2227.73,-586.69 2234.64,-585.6"/>
</g>
<!-- backupy__backupman__BackupManager___printAndLogCompareDiffSummary -->
<g id="node9" class="node">
<title>backupy__backupman__BackupManager___printAndLogCompareDiffSummary</title>
<ellipse fill="#ff6565" fill-opacity="0.698039" stroke="black" cx="1958.4" cy="-918" rx="176.57" ry="18"/>
<text text-anchor="middle" x="1958.4" y="-914.3" font-family="Times,serif" font-size="14.00" fill="#000000">_printAndLogCompareDiffSummary</text>
</g>
<!-- backupy__backupman__BackupManager___printAndLogCompareDiffSummary&#45;&gt;backupy__dirinfo__DirInfo__getDicts -->
<g id="edge8" class="edge">
<title>backupy__backupman__BackupManager___printAndLogCompareDiffSummary&#45;&gt;backupy__dirinfo__DirInfo__getDicts</title>
<path fill="none" stroke="#000000" d="M1934.23,-899.93C1888,-867.28 1787.13,-796.03 1736.56,-760.31"/>
<polygon fill="#000000" stroke="#000000" points="1738.5,-757.39 1728.31,-754.48 1734.46,-763.11 1738.5,-757.39"/>
</g>
<!-- backupy__backupman__BackupManager___printAndLogScanOnlyDiffSummary -->
<g id="node10" class="node">
<title>backupy__backupman__BackupManager___printAndLogScanOnlyDiffSummary</title>
<ellipse fill="#ff6565" fill-opacity="0.698039" stroke="black" cx="1266.4" cy="-918" rx="178.97" ry="18"/>
<text text-anchor="middle" x="1266.4" y="-914.3" font-family="Times,serif" font-size="14.00" fill="#000000">_printAndLogScanOnlyDiffSummary</text>
</g>
<!-- backupy__backupman__BackupManager___printAndLogScanOnlyDiffSummary&#45;&gt;backupy__dirinfo__DirInfo__getDicts -->
<g id="edge7" class="edge">
<title>backupy__backupman__BackupManager___printAndLogScanOnlyDiffSummary&#45;&gt;backupy__dirinfo__DirInfo__getDicts</title>
<path fill="none" stroke="#000000" d="M1307.39,-900.41C1391.12,-866.54 1580.93,-789.76 1664.99,-755.75"/>
<polygon fill="#000000" stroke="#000000" points="1666.51,-758.91 1674.47,-751.92 1663.89,-752.42 1666.51,-758.91"/>
</g>
<!-- backupy__dirinfo__DirInfo__getMovedAndUpdateLists -->
<g id="node23" class="node">
<title>backupy__dirinfo__DirInfo__getMovedAndUpdateLists</title>
<ellipse fill="#b2ff65" fill-opacity="0.698039" stroke="black" cx="1494.4" cy="-198" rx="131.88" ry="18"/>
<text text-anchor="middle" x="1494.4" y="-194.3" font-family="Times,serif" font-size="14.00" fill="#000000">getMovedAndUpdateLists</text>
</g>
<!-- backupy__backupman__BackupManager___printAndLogScanOnlyDiffSummary&#45;&gt;backupy__dirinfo__DirInfo__getMovedAndUpdateLists -->
<g id="edge6" class="edge">
<title>backupy__backupman__BackupManager___printAndLogScanOnlyDiffSummary&#45;&gt;backupy__dirinfo__DirInfo__getMovedAndUpdateLists</title>
<path fill="none" stroke="#000000" d="M1271.81,-899.96C1301.92,-805.13 1448.81,-342.57 1485.88,-225.81"/>
<polygon fill="#000000" stroke="#000000" points="1489.24,-226.79 1488.93,-216.2 1482.57,-224.67 1489.24,-226.79"/>
</g>
<!-- backupy__backupman__BackupManager__abortRun -->
<g id="node11" class="node">
<title>backupy__backupman__BackupManager__abortRun</title>
<ellipse fill="#ff6565" fill-opacity="0.698039" stroke="black" cx="2203.4" cy="-918" rx="53.89" ry="18"/>
<text text-anchor="middle" x="2203.4" y="-914.3" font-family="Times,serif" font-size="14.00" fill="#000000">abortRun</text>
</g>
<!-- backupy__backupman__BackupManager__run -->
<g id="node13" class="node">
<title>backupy__backupman__BackupManager__run</title>
<ellipse fill="#ff6565" fill-opacity="0.698039" stroke="black" cx="1958.4" cy="-1098" rx="27" ry="18"/>
<text text-anchor="middle" x="1958.4" y="-1094.3" font-family="Times,serif" font-size="14.00" fill="#000000">run</text>
</g>
<!-- backupy__backupman__BackupManager__run&#45;&gt;backupy__backupman__BackupManager___checkConsistency -->
<g id="edge23" class="edge">
<title>backupy__backupman__BackupManager__run&#45;&gt;backupy__backupman__BackupManager___checkConsistency</title>
<path fill="none" stroke="#000000" d="M1932.63,-1092.33C1807.2,-1069.59 1258.13,-970.07 1053.57,-932.99"/>
<polygon fill="#000000" stroke="#000000" points="1053.97,-929.5 1043.51,-931.16 1052.72,-936.39 1053.97,-929.5"/>
</g>
<!-- backupy__backupman__BackupManager__run&#45;&gt;backupy__backupman__BackupManager___databaseAndCorruptionCheck -->
<g id="edge20" class="edge">
<title>backupy__backupman__BackupManager__run&#45;&gt;backupy__backupman__BackupManager___databaseAndCorruptionCheck</title>
<path fill="none" stroke="#000000" d="M1937.59,-1086.27C1881.99,-1057.58 1729.13,-978.71 1654.91,-940.42"/>
<polygon fill="#000000" stroke="#000000" points="1656.32,-937.21 1645.83,-935.74 1653.11,-943.43 1656.32,-937.21"/>
</g>
<!-- backupy__backupman__BackupManager__run&#45;&gt;backupy__backupman__BackupManager___performBackup -->
<g id="edge18" class="edge">
<title>backupy__backupman__BackupManager__run&#45;&gt;backupy__backupman__BackupManager___performBackup</title>
<path fill="none" stroke="#000000" d="M1979.02,-1086.07C1983.38,-1083.93 1988,-1081.8 1992.4,-1080 2146.53,-1016.97 2335.2,-961.68 2429.96,-935.34"/>
<polygon fill="#000000" stroke="#000000" points="2430.96,-938.7 2439.67,-932.66 2429.09,-931.95 2430.96,-938.7"/>
</g>
<!-- backupy__backupman__BackupManager__run&#45;&gt;backupy__backupman__BackupManager___printAndLogCompareDiffSummary -->
<g id="edge26" class="edge">
<title>backupy__backupman__BackupManager__run&#45;&gt;backupy__backupman__BackupManager___printAndLogCompareDiffSummary</title>
<path fill="none" stroke="#000000" d="M1958.4,-1079.93C1958.4,-1048.97 1958.4,-983.3 1958.4,-946.13"/>
<polygon fill="#000000" stroke="#000000" points="1961.9,-946.02 1958.4,-936.02 1954.9,-946.02 1961.9,-946.02"/>
</g>
<!-- backupy__backupman__BackupManager__run&#45;&gt;backupy__backupman__BackupManager___printAndLogScanOnlyDiffSummary -->
<g id="edge25" class="edge">
<title>backupy__backupman__BackupManager__run&#45;&gt;backupy__backupman__BackupManager___printAndLogScanOnlyDiffSummary</title>
<path fill="none" stroke="#000000" d="M1933.36,-1090.56C1837.21,-1065.83 1489.52,-976.39 1337.91,-937.39"/>
<polygon fill="#000000" stroke="#000000" points="1338.77,-934 1328.21,-934.9 1337.02,-940.78 1338.77,-934"/>
</g>
<!-- backupy__backupman__BackupManager__run&#45;&gt;backupy__backupman__BackupManager__abortRun -->
<g id="edge24" class="edge">
<title>backupy__backupman__BackupManager__run&#45;&gt;backupy__backupman__BackupManager__abortRun</title>
<path fill="none" stroke="#000000" d="M1976.02,-1084.2C2017.59,-1053.99 2122.16,-978.02 2173.72,-940.56"/>
<polygon fill="#000000" stroke="#000000" points="2175.78,-943.39 2181.81,-934.68 2171.67,-937.73 2175.78,-943.39"/>
</g>
<!-- backupy__dirinfo__DirInfo -->
<g id="node15" class="node">
<title>backupy__dirinfo__DirInfo</title>
<ellipse fill="#ccff99" fill-opacity="0.698039" stroke="black" cx="2876.4" cy="-558" rx="43.59" ry="18"/>
<text text-anchor="middle" x="2876.4" y="-554.3" font-family="Times,serif" font-size="14.00" fill="#000000">DirInfo</text>
</g>
<!-- backupy__backupman__BackupManager__run&#45;&gt;backupy__dirinfo__DirInfo -->
<g id="edge17" class="edge">
<title>backupy__backupman__BackupManager__run&#45;&gt;backupy__dirinfo__DirInfo</title>
<path fill="none" stroke="#000000" d="M1978.52,-1085.86C1982.99,-1083.69 1987.78,-1081.59 1992.4,-1080 2295.1,-975.49 2413.18,-1081.61 2698.4,-936 2803.73,-882.22 2846.82,-864.28 2894.4,-756 2919.31,-699.28 2900.18,-624.69 2886.7,-585.57"/>
<polygon fill="#000000" stroke="#000000" points="2889.93,-584.2 2883.26,-575.97 2883.34,-586.56 2889.93,-584.2"/>
</g>
<!-- backupy__dirinfo__DirInfo____init__ -->
<g id="node16" class="node">
<title>backupy__dirinfo__DirInfo____init__</title>
<ellipse fill="#b2ff65" fill-opacity="0.698039" stroke="black" cx="2345.4" cy="-918" rx="44.39" ry="18"/>
<text text-anchor="middle" x="2345.4" y="-914.3" font-family="Times,serif" font-size="14.00" fill="#000000">__init__</text>
</g>
<!-- backupy__backupman__BackupManager__run&#45;&gt;backupy__dirinfo__DirInfo____init__ -->
<g id="edge16" class="edge">
<title>backupy__backupman__BackupManager__run&#45;&gt;backupy__dirinfo__DirInfo____init__</title>
<path fill="none" stroke="#000000" d="M1979.2,-1086.45C1983.54,-1084.29 1988.11,-1082.05 1992.4,-1080 2105.99,-1025.72 2241.88,-964.88 2306.96,-935.99"/>
<polygon fill="#000000" stroke="#000000" points="2308.68,-939.05 2316.41,-931.8 2305.85,-932.66 2308.68,-939.05"/>
</g>
<!-- backupy__dirinfo__DirInfo__dirCompare -->
<g id="node18" class="node">
<title>backupy__dirinfo__DirInfo__dirCompare</title>
<ellipse fill="#b2ff65" fill-opacity="0.698039" stroke="black" cx="1294.4" cy="-378" rx="65.79" ry="18"/>
<text text-anchor="middle" x="1294.4" y="-374.3" font-family="Times,serif" font-size="14.00" fill="#000000">dirCompare</text>
</g>
<!-- backupy__backupman__BackupManager__run&#45;&gt;backupy__dirinfo__DirInfo__dirCompare -->
<g id="edge22" class="edge">
<title>backupy__backupman__BackupManager__run&#45;&gt;backupy__dirinfo__DirInfo__dirCompare</title>
<path fill="none" stroke="#000000" d="M1931.24,-1097.49C1777.26,-1099.67 1015.5,-1101.88 872.4,-936 700.01,-736.17 1125.28,-473.77 1256.99,-399.42"/>
<polygon fill="#000000" stroke="#000000" points="1258.94,-402.34 1265.95,-394.39 1255.52,-396.23 1258.94,-402.34"/>
</g>
<!-- backupy__dirinfo__DirInfo__loadJson -->
<g id="node25" class="node">
<title>backupy__dirinfo__DirInfo__loadJson</title>
<ellipse fill="#b2ff65" fill-opacity="0.698039" stroke="black" cx="2641.4" cy="-918" rx="50.09" ry="18"/>
<text text-anchor="middle" x="2641.4" y="-914.3" font-family="Times,serif" font-size="14.00" fill="#000000">loadJson</text>
</g>
<!-- backupy__backupman__BackupManager__run&#45;&gt;backupy__dirinfo__DirInfo__loadJson -->
<g id="edge19" class="edge">
<title>backupy__backupman__BackupManager__run&#45;&gt;backupy__dirinfo__DirInfo__loadJson</title>
<path fill="none" stroke="#000000" d="M1978.56,-1085.99C1983.03,-1083.81 1987.81,-1081.68 1992.4,-1080 2246.66,-986.86 2323.01,-1006.72 2584.4,-936 2587.79,-935.08 2591.29,-934.11 2594.8,-933.11"/>
<polygon fill="#000000" stroke="#000000" points="2596.05,-936.39 2604.68,-930.25 2594.1,-929.67 2596.05,-936.39"/>
</g>
<!-- backupy__dirinfo__DirInfo__scanDir -->
<g id="node28" class="node">
<title>backupy__dirinfo__DirInfo__scanDir</title>
<ellipse fill="#b2ff65" fill-opacity="0.698039" stroke="black" cx="1778.4" cy="-378" rx="46.29" ry="18"/>
<text text-anchor="middle" x="1778.4" y="-374.3" font-family="Times,serif" font-size="14.00" fill="#000000">scanDir</text>
</g>
<!-- backupy__backupman__BackupManager__run&#45;&gt;backupy__dirinfo__DirInfo__scanDir -->
<g id="edge21" class="edge">
<title>backupy__backupman__BackupManager__run&#45;&gt;backupy__dirinfo__DirInfo__scanDir</title>
<path fill="none" stroke="#000000" d="M1979.58,-1086.22C2048.22,-1051.27 2260.24,-942.89 2264.4,-936 2272.67,-922.3 2273.06,-913.45 2264.4,-900 2180.6,-769.91 2065.29,-856.23 1947.4,-756 1874.14,-693.72 1866.24,-663.95 1827.4,-576 1801.95,-518.39 1788.15,-445.22 1782.14,-406.28"/>
<polygon fill="#000000" stroke="#000000" points="1785.58,-405.62 1780.65,-396.25 1778.66,-406.65 1785.58,-405.62"/>
</g>
<!-- backupy__dirinfo__DirInfo__calcCrc -->
<g id="node17" class="node">
<title>backupy__dirinfo__DirInfo__calcCrc</title>
<ellipse fill="#b2ff65" fill-opacity="0.698039" stroke="black" cx="2228.4" cy="-18" rx="44.69" ry="18"/>
<text text-anchor="middle" x="2228.4" y="-14.3" font-family="Times,serif" font-size="14.00" fill="#000000">calcCrc</text>
</g>
<!-- backupy__dirinfo__DirInfo__fileMatch -->
<g id="node19" class="node">
<title>backupy__dirinfo__DirInfo__fileMatch</title>
<ellipse fill="#b2ff65" fill-opacity="0.698039" stroke="black" cx="1294.4" cy="-198" rx="53.89" ry="18"/>
<text text-anchor="middle" x="1294.4" y="-194.3" font-family="Times,serif" font-size="14.00" fill="#000000">fileMatch</text>
</g>
<!-- backupy__dirinfo__DirInfo__dirCompare&#45;&gt;backupy__dirinfo__DirInfo__fileMatch -->
<g id="edge37" class="edge">
<title>backupy__dirinfo__DirInfo__dirCompare&#45;&gt;backupy__dirinfo__DirInfo__fileMatch</title>
<path fill="none" stroke="#000000" d="M1294.4,-359.93C1294.4,-328.97 1294.4,-263.3 1294.4,-226.13"/>
<polygon fill="#000000" stroke="#000000" points="1297.9,-226.02 1294.4,-216.02 1290.9,-226.02 1297.9,-226.02"/>
</g>
<!-- backupy__dirinfo__DirInfo__dirCompare&#45;&gt;backupy__dirinfo__DirInfo__getMovedAndUpdateLists -->
<g id="edge36" class="edge">
<title>backupy__dirinfo__DirInfo__dirCompare&#45;&gt;backupy__dirinfo__DirInfo__getMovedAndUpdateLists</title>
<path fill="none" stroke="#000000" d="M1312.85,-360.57C1348.46,-328.88 1426.77,-259.19 1467.93,-222.56"/>
<polygon fill="#000000" stroke="#000000" points="1470.26,-225.17 1475.4,-215.91 1465.6,-219.94 1470.26,-225.17"/>
</g>
<!-- backupy__dirinfo__DirInfo__timeMatch -->
<g id="node31" class="node">
<title>backupy__dirinfo__DirInfo__timeMatch</title>
<ellipse fill="#b2ff65" fill-opacity="0.698039" stroke="black" cx="1648.4" cy="-18" rx="61.19" ry="18"/>
<text text-anchor="middle" x="1648.4" y="-14.3" font-family="Times,serif" font-size="14.00" fill="#000000">timeMatch</text>
</g>
<!-- backupy__dirinfo__DirInfo__fileMatch&#45;&gt;backupy__dirinfo__DirInfo__timeMatch -->
<g id="edge29" class="edge">
<title>backupy__dirinfo__DirInfo__fileMatch&#45;&gt;backupy__dirinfo__DirInfo__timeMatch</title>
<path fill="none" stroke="#000000" d="M1323.07,-182.58C1386.39,-150.74 1538.24,-74.39 1609.82,-38.4"/>
<polygon fill="#000000" stroke="#000000" points="1611.6,-41.42 1618.96,-33.8 1608.45,-35.17 1611.6,-41.42"/>
</g>
<!-- backupy__dirinfo__DirInfo__getCrc -->
<g id="node20" class="node">
<title>backupy__dirinfo__DirInfo__getCrc</title>
<ellipse fill="#b2ff65" fill-opacity="0.698039" stroke="black" cx="2508.4" cy="-198" rx="42.49" ry="18"/>
<text text-anchor="middle" x="2508.4" y="-194.3" font-family="Times,serif" font-size="14.00" fill="#000000">getCrc</text>
</g>
<!-- backupy__dirinfo__DirInfo__getCrc&#45;&gt;backupy__dirinfo__DirInfo__calcCrc -->
<g id="edge28" class="edge">
<title>backupy__dirinfo__DirInfo__getCrc&#45;&gt;backupy__dirinfo__DirInfo__calcCrc</title>
<path fill="none" stroke="#000000" d="M2485.96,-182.73C2436.31,-151.18 2317.08,-75.38 2259.95,-39.06"/>
<polygon fill="#000000" stroke="#000000" points="2261.65,-35.99 2251.33,-33.58 2257.9,-41.9 2261.65,-35.99"/>
</g>
<!-- backupy__dirinfo__DirInfo__getJsonX2 -->
<g id="node22" class="node">
<title>backupy__dirinfo__DirInfo__getJsonX2</title>
<ellipse fill="#b2ff65" fill-opacity="0.698039" stroke="black" cx="2057.4" cy="-1098" rx="57.69" ry="18"/>
<text text-anchor="middle" x="2057.4" y="-1094.3" font-family="Times,serif" font-size="14.00" fill="#000000">getJsonX2</text>
</g>
<!-- backupy__dirinfo__DirInfo__pathMatch -->
<g id="node26" class="node">
<title>backupy__dirinfo__DirInfo__pathMatch</title>
<ellipse fill="#b2ff65" fill-opacity="0.698039" stroke="black" cx="1731.4" cy="-198" rx="61.19" ry="18"/>
<text text-anchor="middle" x="1731.4" y="-194.3" font-family="Times,serif" font-size="14.00" fill="#000000">pathMatch</text>
</g>
<!-- backupy__dirinfo__DirInfo__saveJson -->
<g id="node27" class="node">
<title>backupy__dirinfo__DirInfo__saveJson</title>
<ellipse fill="#b2ff65" fill-opacity="0.698039" stroke="black" cx="2180.4" cy="-1098" rx="51.19" ry="18"/>
<text text-anchor="middle" x="2180.4" y="-1094.3" font-family="Times,serif" font-size="14.00" fill="#000000">saveJson</text>
</g>
<!-- backupy__dirinfo__DirInfo__scanDir&#45;&gt;backupy__dirinfo__DirInfo__pathMatch -->
<g id="edge30" class="edge">
<title>backupy__dirinfo__DirInfo__scanDir&#45;&gt;backupy__dirinfo__DirInfo__pathMatch</title>
<path fill="none" stroke="#000000" d="M1773.89,-359.93C1765.71,-328.97 1748.37,-263.3 1738.56,-226.13"/>
<polygon fill="#000000" stroke="#000000" points="1741.83,-224.79 1735.89,-216.02 1735.06,-226.58 1741.83,-224.79"/>
</g>
<!-- backupy__dirinfo__DirInfo__scanFile -->
<g id="node29" class="node">
<title>backupy__dirinfo__DirInfo__scanFile</title>
<ellipse fill="#b2ff65" fill-opacity="0.698039" stroke="black" cx="1855.4" cy="-198" rx="49.29" ry="18"/>
<text text-anchor="middle" x="1855.4" y="-194.3" font-family="Times,serif" font-size="14.00" fill="#000000">scanFile</text>
</g>
<!-- backupy__dirinfo__DirInfo__scanDir&#45;&gt;backupy__dirinfo__DirInfo__scanFile -->
<g id="edge31" class="edge">
<title>backupy__dirinfo__DirInfo__scanDir&#45;&gt;backupy__dirinfo__DirInfo__scanFile</title>
<path fill="none" stroke="#000000" d="M1785.78,-359.93C1799.23,-328.83 1827.83,-262.73 1843.87,-225.65"/>
<polygon fill="#000000" stroke="#000000" points="1847.28,-226.58 1848.03,-216.02 1840.85,-223.8 1847.28,-226.58"/>
</g>
<!-- backupy__dirinfo__DirInfo__scanFile&#45;&gt;backupy__dirinfo__DirInfo__calcCrc -->
<g id="edge33" class="edge">
<title>backupy__dirinfo__DirInfo__scanFile&#45;&gt;backupy__dirinfo__DirInfo__calcCrc</title>
<path fill="none" stroke="#000000" d="M1884.04,-183.33C1950.82,-151.46 2116.76,-72.28 2191.21,-36.75"/>
<polygon fill="#000000" stroke="#000000" points="2193.15,-39.7 2200.67,-32.23 2190.13,-33.38 2193.15,-39.7"/>
</g>
<!-- backupy__dirinfo__DirInfo__scanFile&#45;&gt;backupy__dirinfo__DirInfo__timeMatch -->
<g id="edge32" class="edge">
<title>backupy__dirinfo__DirInfo__scanFile&#45;&gt;backupy__dirinfo__DirInfo__timeMatch</title>
<path fill="none" stroke="#000000" d="M1837.03,-181.2C1800.31,-149.63 1717.73,-78.62 1675.05,-41.92"/>
<polygon fill="#000000" stroke="#000000" points="1677.19,-39.14 1667.32,-35.27 1672.62,-44.45 1677.19,-39.14"/>
</g>
<!-- backupy__dirinfo__DirInfo__selfCompare&#45;&gt;backupy__dirinfo__DirInfo__pathMatch -->
<g id="edge35" class="edge">
<title>backupy__dirinfo__DirInfo__selfCompare&#45;&gt;backupy__dirinfo__DirInfo__pathMatch</title>
<path fill="none" stroke="#000000" d="M1656.35,-359.93C1670.92,-328.7 1701.94,-262.17 1719.19,-225.18"/>
<polygon fill="#000000" stroke="#000000" points="1722.41,-226.56 1723.46,-216.02 1716.06,-223.6 1722.41,-226.56"/>
</g>
<!-- backupy__dirinfo__DirInfo__selfCompare&#45;&gt;backupy__dirinfo__DirInfo__timeMatch -->
<g id="edge34" class="edge">
<title>backupy__dirinfo__DirInfo__selfCompare&#45;&gt;backupy__dirinfo__DirInfo__timeMatch</title>
<path fill="none" stroke="#000000" d="M1648.4,-359.73C1648.4,-302.19 1648.4,-116.66 1648.4,-46.35"/>
<polygon fill="#000000" stroke="#000000" points="1651.9,-46.09 1648.4,-36.09 1644.9,-46.09 1651.9,-46.09"/>
</g>
<!-- backupy__dirinfo__DirInfo__updateDictOnCopy -->
<g id="node32" class="node">
<title>backupy__dirinfo__DirInfo__updateDictOnCopy</title>
<ellipse fill="#b2ff65" fill-opacity="0.698039" stroke="black" cx="2398.4" cy="-378" rx="98.58" ry="18"/>
<text text-anchor="middle" x="2398.4" y="-374.3" font-family="Times,serif" font-size="14.00" fill="#000000">updateDictOnCopy</text>
</g>
<!-- backupy__dirinfo__DirInfo__updateDictOnMove -->
<g id="node33" class="node">
<title>backupy__dirinfo__DirInfo__updateDictOnMove</title>
<ellipse fill="#b2ff65" fill-opacity="0.698039" stroke="black" cx="2258.4" cy="-198" rx="100.98" ry="18"/>
<text text-anchor="middle" x="2258.4" y="-194.3" font-family="Times,serif" font-size="14.00" fill="#000000">updateDictOnMove</text>
</g>
<!-- backupy__dirinfo__DirInfo__updateDictOnRemove -->
<g id="node34" class="node">
<title>backupy__dirinfo__DirInfo__updateDictOnRemove</title>
<ellipse fill="#b2ff65" fill-opacity="0.698039" stroke="black" cx="2031.4" cy="-198" rx="112.38" ry="18"/>
<text text-anchor="middle" x="2031.4" y="-194.3" font-family="Times,serif" font-size="14.00" fill="#000000">updateDictOnRemove</text>
</g>
<!-- backupy__dirinfo__DirInfo__verifyCrcOnCopy -->
<g id="node35" class="node">
<title>backupy__dirinfo__DirInfo__verifyCrcOnCopy</title>
<ellipse fill="#b2ff65" fill-opacity="0.698039" stroke="black" cx="2601.4" cy="-378" rx="90.18" ry="18"/>
<text text-anchor="middle" x="2601.4" y="-374.3" font-family="Times,serif" font-size="14.00" fill="#000000">verifyCrcOnCopy</text>
</g>
<!-- backupy__dirinfo__DirInfo__verifyCrcOnCopy&#45;&gt;backupy__dirinfo__DirInfo__getCrc -->
<g id="edge27" class="edge">
<title>backupy__dirinfo__DirInfo__verifyCrcOnCopy&#45;&gt;backupy__dirinfo__DirInfo__getCrc</title>
<path fill="none" stroke="#000000" d="M2592.48,-359.93C2576.12,-328.62 2541.22,-261.83 2521.93,-224.9"/>
<polygon fill="#000000" stroke="#000000" points="2524.88,-223 2517.15,-215.76 2518.68,-226.24 2524.88,-223"/>
</g>
<!-- backupy__fileman__FileManager____init__&#45;&gt;backupy__dirinfo__DirInfo -->
<g id="edge38" class="edge">
<title>backupy__fileman__FileManager____init__&#45;&gt;backupy__dirinfo__DirInfo</title>
<path fill="none" stroke="#000000" d="M2846.56,-719.93C2852.3,-688.97 2864.48,-623.3 2871.37,-586.13"/>
<polygon fill="#000000" stroke="#000000" points="2874.86,-586.49 2873.24,-576.02 2867.98,-585.21 2874.86,-586.49"/>
</g>
<!-- backupy__fileman__FileManager___archiveFile -->
<g id="node38" class="node">
<title>backupy__fileman__FileManager___archiveFile</title>
<ellipse fill="#65feff" fill-opacity="0.698039" stroke="black" cx="2403.4" cy="-558" rx="66.89" ry="18"/>
<text text-anchor="middle" x="2403.4" y="-554.3" font-family="Times,serif" font-size="14.00" fill="#000000">_archiveFile</text>
</g>
<!-- backupy__fileman__FileManager___moveFile -->
<g id="node40" class="node">
<title>backupy__fileman__FileManager___moveFile</title>
<ellipse fill="#65feff" fill-opacity="0.698039" stroke="black" cx="2227.4" cy="-378" rx="57.69" ry="18"/>
<text text-anchor="middle" x="2227.4" y="-374.3" font-family="Times,serif" font-size="14.00" fill="#000000">_moveFile</text>
</g>
<!-- backupy__fileman__FileManager___archiveFile&#45;&gt;backupy__fileman__FileManager___moveFile -->
<g id="edge49" class="edge">
<title>backupy__fileman__FileManager___archiveFile&#45;&gt;backupy__fileman__FileManager___moveFile</title>
<path fill="none" stroke="#000000" d="M2386.84,-540.25C2355.36,-508.42 2286.82,-439.1 2250.71,-402.58"/>
<polygon fill="#000000" stroke="#000000" points="2253.05,-399.96 2243.53,-395.31 2248.07,-404.89 2253.05,-399.96"/>
</g>
<!-- backupy__fileman__FileManager___copyFile -->
<g id="node39" class="node">
<title>backupy__fileman__FileManager___copyFile</title>
<ellipse fill="#65feff" fill-opacity="0.698039" stroke="black" cx="2558.4" cy="-558" rx="53.89" ry="18"/>
<text text-anchor="middle" x="2558.4" y="-554.3" font-family="Times,serif" font-size="14.00" fill="#000000">_copyFile</text>
</g>
<!-- backupy__fileman__FileManager___copyFile&#45;&gt;backupy__dirinfo__DirInfo__updateDictOnCopy -->
<g id="edge41" class="edge">
<title>backupy__fileman__FileManager___copyFile&#45;&gt;backupy__dirinfo__DirInfo__updateDictOnCopy</title>
<path fill="none" stroke="#000000" d="M2543.63,-540.57C2515.44,-509.21 2453.8,-440.63 2420.61,-403.71"/>
<polygon fill="#000000" stroke="#000000" points="2422.88,-401 2413.59,-395.91 2417.67,-405.68 2422.88,-401"/>
</g>
<!-- backupy__fileman__FileManager___copyFile&#45;&gt;backupy__dirinfo__DirInfo__verifyCrcOnCopy -->
<g id="edge40" class="edge">
<title>backupy__fileman__FileManager___copyFile&#45;&gt;backupy__dirinfo__DirInfo__verifyCrcOnCopy</title>
<path fill="none" stroke="#000000" d="M2562.52,-539.93C2570,-508.97 2585.86,-443.3 2594.84,-406.13"/>
<polygon fill="#000000" stroke="#000000" points="2598.34,-406.56 2597.29,-396.02 2591.53,-404.91 2598.34,-406.56"/>
</g>
<!-- backupy__fileman__FileManager___moveFile&#45;&gt;backupy__dirinfo__DirInfo__updateDictOnMove -->
<g id="edge42" class="edge">
<title>backupy__fileman__FileManager___moveFile&#45;&gt;backupy__dirinfo__DirInfo__updateDictOnMove</title>
<path fill="none" stroke="#000000" d="M2230.37,-359.93C2235.76,-328.97 2247.2,-263.3 2253.67,-226.13"/>
<polygon fill="#000000" stroke="#000000" points="2257.16,-226.47 2255.43,-216.02 2250.27,-225.27 2257.16,-226.47"/>
</g>
<!-- backupy__fileman__FileManager___moveFiles -->
<g id="node41" class="node">
<title>backupy__fileman__FileManager___moveFiles</title>
<ellipse fill="#65feff" fill-opacity="0.698039" stroke="black" cx="2055.4" cy="-558" rx="62.29" ry="18"/>
<text text-anchor="middle" x="2055.4" y="-554.3" font-family="Times,serif" font-size="14.00" fill="#000000">_moveFiles</text>
</g>
<!-- backupy__fileman__FileManager___moveFiles&#45;&gt;backupy__fileman__FileManager___moveFile -->
<g id="edge45" class="edge">
<title>backupy__fileman__FileManager___moveFiles&#45;&gt;backupy__fileman__FileManager___moveFile</title>
<path fill="none" stroke="#000000" d="M2071.27,-540.57C2101.86,-508.92 2169.08,-439.35 2204.51,-402.69"/>
<polygon fill="#000000" stroke="#000000" points="2207.13,-405.01 2211.56,-395.39 2202.1,-400.15 2207.13,-405.01"/>
</g>
<!-- backupy__fileman__FileManager___removeFile -->
<g id="node42" class="node">
<title>backupy__fileman__FileManager___removeFile</title>
<ellipse fill="#65feff" fill-opacity="0.698039" stroke="black" cx="1906.4" cy="-378" rx="67.69" ry="18"/>
<text text-anchor="middle" x="1906.4" y="-374.3" font-family="Times,serif" font-size="14.00" fill="#000000">_removeFile</text>
</g>
<!-- backupy__fileman__FileManager___removeFile&#45;&gt;backupy__dirinfo__DirInfo__updateDictOnRemove -->
<g id="edge39" class="edge">
<title>backupy__fileman__FileManager___removeFile&#45;&gt;backupy__dirinfo__DirInfo__updateDictOnRemove</title>
<path fill="none" stroke="#000000" d="M1918.16,-360.25C1940.15,-328.93 1987.65,-261.29 2013.59,-224.35"/>
<polygon fill="#000000" stroke="#000000" points="2016.51,-226.29 2019.39,-216.09 2010.78,-222.26 2016.51,-226.29"/>
</g>
<!-- backupy__fileman__FileManager___removeFiles -->
<g id="node43" class="node">
<title>backupy__fileman__FileManager___removeFiles</title>
<ellipse fill="#65feff" fill-opacity="0.698039" stroke="black" cx="1906.4" cy="-558" rx="72.29" ry="18"/>
<text text-anchor="middle" x="1906.4" y="-554.3" font-family="Times,serif" font-size="14.00" fill="#000000">_removeFiles</text>
</g>
<!-- backupy__fileman__FileManager___removeFiles&#45;&gt;backupy__fileman__FileManager___removeFile -->
<g id="edge43" class="edge">
<title>backupy__fileman__FileManager___removeFiles&#45;&gt;backupy__fileman__FileManager___removeFile</title>
<path fill="none" stroke="#000000" d="M1906.4,-539.93C1906.4,-508.97 1906.4,-443.3 1906.4,-406.13"/>
<polygon fill="#000000" stroke="#000000" points="1909.9,-406.02 1906.4,-396.02 1902.9,-406.02 1909.9,-406.02"/>
</g>
<!-- backupy__fileman__FileManager__copyFiles&#45;&gt;backupy__fileman__FileManager___copyFile -->
<g id="edge44" class="edge">
<title>backupy__fileman__FileManager__copyFiles&#45;&gt;backupy__fileman__FileManager___copyFile</title>
<path fill="none" stroke="#000000" d="M2575.57,-719.93C2572.27,-688.97 2565.26,-623.3 2561.29,-586.13"/>
<polygon fill="#000000" stroke="#000000" points="2564.75,-585.59 2560.21,-576.02 2557.79,-586.33 2564.75,-585.59"/>
</g>
<!-- backupy__fileman__FileManager__handleChangedFiles&#45;&gt;backupy__fileman__FileManager___archiveFile -->
<g id="edge51" class="edge">
<title>backupy__fileman__FileManager__handleChangedFiles&#45;&gt;backupy__fileman__FileManager___archiveFile</title>
<path fill="none" stroke="#000000" d="M2403.4,-719.93C2403.4,-688.97 2403.4,-623.3 2403.4,-586.13"/>
<polygon fill="#000000" stroke="#000000" points="2406.9,-586.02 2403.4,-576.02 2399.9,-586.02 2406.9,-586.02"/>
</g>
<!-- backupy__fileman__FileManager__handleChangedFiles&#45;&gt;backupy__fileman__FileManager___copyFile -->
<g id="edge50" class="edge">
<title>backupy__fileman__FileManager__handleChangedFiles&#45;&gt;backupy__fileman__FileManager___copyFile</title>
<path fill="none" stroke="#000000" d="M2418.26,-719.93C2445.94,-688.14 2505.48,-619.77 2537.31,-583.22"/>
<polygon fill="#000000" stroke="#000000" points="2540.1,-585.34 2544.03,-575.5 2534.82,-580.74 2540.1,-585.34"/>
</g>
<!-- backupy__fileman__FileManager__handleDeletedFiles&#45;&gt;backupy__fileman__FileManager___moveFiles -->
<g id="edge46" class="edge">
<title>backupy__fileman__FileManager__handleDeletedFiles&#45;&gt;backupy__fileman__FileManager___moveFiles</title>
<path fill="none" stroke="#000000" d="M2055.4,-719.93C2055.4,-688.97 2055.4,-623.3 2055.4,-586.13"/>
<polygon fill="#000000" stroke="#000000" points="2058.9,-586.02 2055.4,-576.02 2051.9,-586.02 2058.9,-586.02"/>
</g>
<!-- backupy__fileman__FileManager__handleDeletedFiles&#45;&gt;backupy__fileman__FileManager___removeFiles -->
<g id="edge47" class="edge">
<title>backupy__fileman__FileManager__handleDeletedFiles&#45;&gt;backupy__fileman__FileManager___removeFiles</title>
<path fill="none" stroke="#000000" d="M2041.11,-719.93C2014.56,-688.22 1957.56,-620.12 1926.9,-583.5"/>
<polygon fill="#000000" stroke="#000000" points="1929.52,-581.18 1920.42,-575.76 1924.16,-585.67 1929.52,-581.18"/>
</g>
<!-- backupy__fileman__FileManager__handleMovedFiles&#45;&gt;backupy__fileman__FileManager___moveFile -->
<g id="edge48" class="edge">
<title>backupy__fileman__FileManager__handleMovedFiles&#45;&gt;backupy__fileman__FileManager___moveFile</title>
<path fill="none" stroke="#000000" d="M2227.4,-539.93C2227.4,-508.97 2227.4,-443.3 2227.4,-406.13"/>
<polygon fill="#000000" stroke="#000000" points="2230.9,-406.02 2227.4,-396.02 2223.9,-406.02 2230.9,-406.02"/>
</g>
</g>
</svg>
