<?xml version="1.0" encoding="UTF-8" standalone="no"?>
<!DOCTYPE svg PUBLIC "-//W3C//DTD SVG 1.1//EN"
 "http://www.w3.org/Graphics/SVG/1.1/DTD/svg11.dtd">
<!-- Generated by graphviz version 2.43.0 (0)
 -->
<!-- Title: G Pages: 1 -->
<svg width="2623pt" height="1414pt"
 viewBox="0.00 0.00 2623.00 1414.00" xmlns="http://www.w3.org/2000/svg" xmlns:xlink="http://www.w3.org/1999/xlink">
<g id="graph0" class="graph" transform="scale(1 1) rotate(0) translate(4 1410)">
<title>G</title>
<polygon fill="white" stroke="transparent" points="-4,4 -4,-1410 2619,-1410 2619,4 -4,4"/>
<g id="clust1" class="cluster">
<title>cluster_G</title>
<path fill="#808080" fill-opacity="0.094118" stroke="black" d="M20,-8C20,-8 2595,-8 2595,-8 2601,-8 2607,-14 2607,-20 2607,-20 2607,-1386 2607,-1386 2607,-1392 2601,-1398 2595,-1398 2595,-1398 20,-1398 20,-1398 14,-1398 8,-1392 8,-1386 8,-1386 8,-20 8,-20 8,-14 14,-8 20,-8"/>
</g>
<g id="clust2" class="cluster">
<title>cluster_backupy__backupman</title>
<path fill="#808080" fill-opacity="0.094118" stroke="black" d="M495,-1096C495,-1096 2523,-1096 2523,-1096 2529,-1096 2535,-1102 2535,-1108 2535,-1108 2535,-1378 2535,-1378 2535,-1384 2529,-1390 2523,-1390 2523,-1390 495,-1390 495,-1390 489,-1390 483,-1384 483,-1378 483,-1378 483,-1108 483,-1108 483,-1102 489,-1096 495,-1096"/>
<text text-anchor="middle" x="1509" y="-1374.8" font-family="Times,serif" font-size="14.00">backupy.backupman</text>
</g>
<g id="clust3" class="cluster">
<title>cluster_backupy__backupman__BackupManager</title>
<path fill="#808080" fill-opacity="0.094118" stroke="black" d="M683,-1104C683,-1104 2515,-1104 2515,-1104 2521,-1104 2527,-1110 2527,-1116 2527,-1116 2527,-1347 2527,-1347 2527,-1353 2521,-1359 2515,-1359 2515,-1359 683,-1359 683,-1359 677,-1359 671,-1353 671,-1347 671,-1347 671,-1116 671,-1116 671,-1110 677,-1104 683,-1104"/>
<text text-anchor="middle" x="1599" y="-1343.8" font-family="Times,serif" font-size="14.00">backupy.backupman.BackupManager</text>
</g>
<g id="clust4" class="cluster">
<title>cluster_backupy__dirinfo</title>
<path fill="#808080" fill-opacity="0.094118" stroke="black" d="M550,-16C550,-16 2587,-16 2587,-16 2593,-16 2599,-22 2599,-28 2599,-28 2599,-478 2599,-478 2599,-484 2593,-490 2587,-490 2587,-490 550,-490 550,-490 544,-490 538,-484 538,-478 538,-478 538,-28 538,-28 538,-22 544,-16 550,-16"/>
<text text-anchor="middle" x="1568.5" y="-474.8" font-family="Times,serif" font-size="14.00">backupy.dirinfo</text>
</g>
<g id="clust5" class="cluster">
<title>cluster_backupy__dirinfo__DirInfo</title>
<path fill="#808080" fill-opacity="0.094118" stroke="black" d="M654,-24C654,-24 2579,-24 2579,-24 2585,-24 2591,-30 2591,-36 2591,-36 2591,-447 2591,-447 2591,-453 2585,-459 2579,-459 2579,-459 654,-459 654,-459 648,-459 642,-453 642,-447 642,-447 642,-36 642,-36 642,-30 648,-24 654,-24"/>
<text text-anchor="middle" x="1616.5" y="-443.8" font-family="Times,serif" font-size="14.00">backupy.dirinfo.DirInfo</text>
</g>
<g id="clust6" class="cluster">
<title>cluster_backupy__fileman</title>
<path fill="#808080" fill-opacity="0.094118" stroke="black" d="M473,-556C473,-556 1387,-556 1387,-556 1393,-556 1399,-562 1399,-568 1399,-568 1399,-1018 1399,-1018 1399,-1024 1393,-1030 1387,-1030 1387,-1030 473,-1030 473,-1030 467,-1030 461,-1024 461,-1018 461,-1018 461,-568 461,-568 461,-562 467,-556 473,-556"/>
<text text-anchor="middle" x="930" y="-1014.8" font-family="Times,serif" font-size="14.00">backupy.fileman</text>
</g>
<g id="clust7" class="cluster">
<title>cluster_backupy__fileman__FileManager</title>
<path fill="#808080" fill-opacity="0.094118" stroke="black" d="M629,-564C629,-564 1379,-564 1379,-564 1385,-564 1391,-570 1391,-576 1391,-576 1391,-987 1391,-987 1391,-993 1385,-999 1379,-999 1379,-999 629,-999 629,-999 623,-999 617,-993 617,-987 617,-987 617,-576 617,-576 617,-570 623,-564 629,-564"/>
<text text-anchor="middle" x="1004" y="-983.8" font-family="Times,serif" font-size="14.00">backupy.fileman.FileManager</text>
</g>
<!-- backupy -->
<g id="node1" class="node">
<title>backupy</title>
<ellipse fill="#ffffff" fill-opacity="0.698039" stroke="black" cx="426" cy="-1310" rx="49.29" ry="18"/>
<text text-anchor="middle" x="426" y="-1306.3" font-family="Times,serif" font-size="14.00" fill="#000000">backupy</text>
</g>
<!-- backupy__dirinfo -->
<g id="node2" class="node">
<title>backupy__dirinfo</title>
<ellipse fill="#ffffff" fill-opacity="0.698039" stroke="black" cx="281" cy="-1310" rx="81.49" ry="18"/>
<text text-anchor="middle" x="281" y="-1306.3" font-family="Times,serif" font-size="14.00" fill="#000000">backupy.dirinfo</text>
</g>
<!-- backupy__fileman -->
<g id="node3" class="node">
<title>backupy__fileman</title>
<ellipse fill="#ffffff" fill-opacity="0.698039" stroke="black" cx="101" cy="-1310" rx="85.29" ry="18"/>
<text text-anchor="middle" x="101" y="-1306.3" font-family="Times,serif" font-size="14.00" fill="#000000">backupy.fileman</text>
</g>
<!-- backupy__backupman__BackupManager -->
<g id="node4" class="node">
<title>backupy__backupman__BackupManager</title>
<ellipse fill="#ff9999" fill-opacity="0.698039" stroke="black" cx="577" cy="-1310" rx="86.38" ry="18"/>
<text text-anchor="middle" x="577" y="-1306.3" font-family="Times,serif" font-size="14.00" fill="#000000">BackupManager</text>
</g>
<!-- backupy__backupman__BackupManager____init__ -->
<g id="node5" class="node">
<title>backupy__backupman__BackupManager____init__</title>
<ellipse fill="#ff6565" fill-opacity="0.698039" stroke="black" cx="2389" cy="-1310" rx="44.39" ry="18"/>
<text text-anchor="middle" x="2389" y="-1306.3" font-family="Times,serif" font-size="14.00" fill="#000000">__init__</text>
</g>
<!-- backupy__backupman__BackupManager__loadConfig -->
<g id="node12" class="node">
<title>backupy__backupman__BackupManager__loadConfig</title>
<ellipse fill="#ff6565" fill-opacity="0.698039" stroke="black" cx="2321" cy="-1130" rx="59.59" ry="18"/>
<text text-anchor="middle" x="2321" y="-1126.3" font-family="Times,serif" font-size="14.00" fill="#000000">loadConfig</text>
</g>
<!-- backupy__backupman__BackupManager____init__&#45;&gt;backupy__backupman__BackupManager__loadConfig -->
<g id="edge2" class="edge">
<title>backupy__backupman__BackupManager____init__&#45;&gt;backupy__backupman__BackupManager__loadConfig</title>
<path fill="none" stroke="#000000" d="M2382.48,-1291.93C2370.6,-1260.83 2345.35,-1194.73 2331.18,-1157.65"/>
<polygon fill="#000000" stroke="#000000" points="2334.34,-1156.11 2327.5,-1148.02 2327.8,-1158.61 2334.34,-1156.11"/>
</g>
<!-- backupy__backupman__BackupManager__saveConfig -->
<g id="node14" class="node">
<title>backupy__backupman__BackupManager__saveConfig</title>
<ellipse fill="#ff6565" fill-opacity="0.698039" stroke="black" cx="2457" cy="-1130" rx="61.99" ry="18"/>
<text text-anchor="middle" x="2457" y="-1126.3" font-family="Times,serif" font-size="14.00" fill="#000000">saveConfig</text>
</g>
<!-- backupy__backupman__BackupManager____init__&#45;&gt;backupy__backupman__BackupManager__saveConfig -->
<g id="edge1" class="edge">
<title>backupy__backupman__BackupManager____init__&#45;&gt;backupy__backupman__BackupManager__saveConfig</title>
<path fill="none" stroke="#000000" d="M2395.52,-1291.93C2407.4,-1260.83 2432.65,-1194.73 2446.82,-1157.65"/>
<polygon fill="#000000" stroke="#000000" points="2450.2,-1158.61 2450.5,-1148.02 2443.66,-1156.11 2450.2,-1158.61"/>
</g>
<!-- backupy__backupman__BackupManager___checkConsistency -->
<g id="node6" class="node">
<title>backupy__backupman__BackupManager___checkConsistency</title>
<ellipse fill="#ff6565" fill-opacity="0.698039" stroke="black" cx="1459" cy="-1130" rx="97.48" ry="18"/>
<text text-anchor="middle" x="1459" y="-1126.3" font-family="Times,serif" font-size="14.00" fill="#000000">_checkConsistency</text>
</g>
<!-- backupy__dirinfo__DirInfo__getSets -->
<g id="node24" class="node">
<title>backupy__dirinfo__DirInfo__getSets</title>
<ellipse fill="#b2ff65" fill-opacity="0.698039" stroke="black" cx="1556" cy="-410" rx="46.29" ry="18"/>
<text text-anchor="middle" x="1556" y="-406.3" font-family="Times,serif" font-size="14.00" fill="#000000">getSets</text>
</g>
<!-- backupy__backupman__BackupManager___checkConsistency&#45;&gt;backupy__dirinfo__DirInfo__getSets -->
<g id="edge3" class="edge">
<title>backupy__backupman__BackupManager___checkConsistency&#45;&gt;backupy__dirinfo__DirInfo__getSets</title>
<path fill="none" stroke="#000000" d="M1461.3,-1111.96C1474.1,-1017.23 1536.48,-555.5 1552.33,-438.16"/>
<polygon fill="#000000" stroke="#000000" points="1555.81,-438.58 1553.68,-428.2 1548.87,-437.64 1555.81,-438.58"/>
</g>
<!-- backupy__dirinfo__DirInfo__selfCompare -->
<g id="node30" class="node">
<title>backupy__dirinfo__DirInfo__selfCompare</title>
<ellipse fill="#b2ff65" fill-opacity="0.698039" stroke="black" cx="2253" cy="-410" rx="69.59" ry="18"/>
<text text-anchor="middle" x="2253" y="-406.3" font-family="Times,serif" font-size="14.00" fill="#000000">selfCompare</text>
</g>
<!-- backupy__backupman__BackupManager___checkConsistency&#45;&gt;backupy__dirinfo__DirInfo__selfCompare -->
<g id="edge4" class="edge">
<title>backupy__backupman__BackupManager___checkConsistency&#45;&gt;backupy__dirinfo__DirInfo__selfCompare</title>
<path fill="none" stroke="#000000" d="M1504.87,-1114.11C1694.78,-1051.47 2415.32,-803.46 2538,-608 2622.92,-472.7 2387.01,-525.17 2330,-490 2307.03,-475.83 2286.01,-453.32 2271.76,-435.94"/>
<polygon fill="#000000" stroke="#000000" points="2274.3,-433.52 2265.33,-427.89 2268.83,-437.88 2274.3,-433.52"/>
</g>
<!-- backupy__backupman__BackupManager___databaseAndCorruptionCheck -->
<g id="node7" class="node">
<title>backupy__backupman__BackupManager___databaseAndCorruptionCheck</title>
<ellipse fill="#ff6565" fill-opacity="0.698039" stroke="black" cx="1725" cy="-1130" rx="154.07" ry="18"/>
<text text-anchor="middle" x="1725" y="-1126.3" font-family="Times,serif" font-size="14.00" fill="#000000">_databaseAndCorruptionCheck</text>
</g>
<!-- backupy__dirinfo__DirInfo__getDicts -->
<g id="node21" class="node">
<title>backupy__dirinfo__DirInfo__getDicts</title>
<ellipse fill="#b2ff65" fill-opacity="0.698039" stroke="black" cx="1888" cy="-410" rx="50.09" ry="18"/>
<text text-anchor="middle" x="1888" y="-406.3" font-family="Times,serif" font-size="14.00" fill="#000000">getDicts</text>
</g>
<!-- backupy__backupman__BackupManager___databaseAndCorruptionCheck&#45;&gt;backupy__dirinfo__DirInfo__getDicts -->
<g id="edge5" class="edge">
<title>backupy__backupman__BackupManager___databaseAndCorruptionCheck&#45;&gt;backupy__dirinfo__DirInfo__getDicts</title>
<path fill="none" stroke="#000000" d="M1778.72,-1113.1C1817.79,-1098.4 1867.89,-1072.32 1892,-1030 2006.49,-829.03 1925.64,-528.45 1896.98,-437.81"/>
<polygon fill="#000000" stroke="#000000" points="1900.24,-436.49 1893.84,-428.05 1893.58,-438.64 1900.24,-436.49"/>
</g>
<!-- backupy__backupman__BackupManager___performBackup -->
<g id="node8" class="node">
<title>backupy__backupman__BackupManager___performBackup</title>
<ellipse fill="#ff6565" fill-opacity="0.698039" stroke="black" cx="1260" cy="-1130" rx="87.18" ry="18"/>
<text text-anchor="middle" x="1260" y="-1126.3" font-family="Times,serif" font-size="14.00" fill="#000000">_performBackup</text>
</g>
<!-- backupy__dirinfo__DirInfo -->
<g id="node15" class="node">
<title>backupy__dirinfo__DirInfo</title>
<ellipse fill="#ccff99" fill-opacity="0.698039" stroke="black" cx="590" cy="-410" rx="43.59" ry="18"/>
<text text-anchor="middle" x="590" y="-406.3" font-family="Times,serif" font-size="14.00" fill="#000000">DirInfo</text>
</g>
<!-- backupy__backupman__BackupManager___performBackup&#45;&gt;backupy__dirinfo__DirInfo -->
<g id="edge7" class="edge">
<title>backupy__backupman__BackupManager___performBackup&#45;&gt;backupy__dirinfo__DirInfo</title>
<path fill="none" stroke="#000000" d="M1296.69,-1113.62C1328.94,-1097.88 1373.81,-1070.03 1394,-1030 1488.89,-841.91 1536.33,-711.31 1394,-556 1280.21,-431.83 782.46,-578.23 639,-490 619.63,-478.09 606.74,-455.35 599.06,-437.32"/>
<polygon fill="#000000" stroke="#000000" points="602.26,-435.9 595.32,-427.89 595.75,-438.47 602.26,-435.9"/>
</g>
<!-- backupy__backupman__BackupManager___performBackup&#45;&gt;backupy__dirinfo__DirInfo__getDicts -->
<g id="edge9" class="edge">
<title>backupy__backupman__BackupManager___performBackup&#45;&gt;backupy__dirinfo__DirInfo__getDicts</title>
<path fill="none" stroke="#000000" d="M1293.84,-1113.36C1403.05,-1060.77 1746.49,-878.32 1876,-608 1902.65,-552.38 1897.76,-477.58 1892.5,-438.07"/>
<polygon fill="#000000" stroke="#000000" points="1895.96,-437.54 1891.07,-428.14 1889.03,-438.54 1895.96,-437.54"/>
</g>
<!-- backupy__fileman__FileManager -->
<g id="node36" class="node">
<title>backupy__fileman__FileManager</title>
<ellipse fill="#99feff" fill-opacity="0.698039" stroke="black" cx="539" cy="-950" rx="69.59" ry="18"/>
<text text-anchor="middle" x="539" y="-946.3" font-family="Times,serif" font-size="14.00" fill="#000000">FileManager</text>
</g>
<!-- backupy__backupman__BackupManager___performBackup&#45;&gt;backupy__fileman__FileManager -->
<g id="edge8" class="edge">
<title>backupy__backupman__BackupManager___performBackup&#45;&gt;backupy__fileman__FileManager</title>
<path fill="none" stroke="#000000" d="M1222.14,-1113.58C1205.22,-1107.25 1184.87,-1100.38 1166,-1096 925.33,-1040.08 834.83,-1140.84 614,-1030 589.74,-1017.82 569.11,-994.47 555.67,-976.3"/>
<polygon fill="#000000" stroke="#000000" points="558.31,-973.98 549.66,-967.87 552.61,-978.04 558.31,-973.98"/>
</g>
<!-- backupy__fileman__FileManager____init__ -->
<g id="node37" class="node">
<title>backupy__fileman__FileManager____init__</title>
<ellipse fill="#65feff" fill-opacity="0.698039" stroke="black" cx="669" cy="-950" rx="44.39" ry="18"/>
<text text-anchor="middle" x="669" y="-946.3" font-family="Times,serif" font-size="14.00" fill="#000000">__init__</text>
</g>
<!-- backupy__backupman__BackupManager___performBackup&#45;&gt;backupy__fileman__FileManager____init__ -->
<g id="edge14" class="edge">
<title>backupy__backupman__BackupManager___performBackup&#45;&gt;backupy__fileman__FileManager____init__</title>
<path fill="none" stroke="#000000" d="M1221.63,-1113.67C1204.79,-1107.42 1184.64,-1100.61 1166,-1096 971.47,-1047.93 888.46,-1138.51 720,-1030 700.78,-1017.62 687.32,-995.14 679.08,-977.31"/>
<polygon fill="#000000" stroke="#000000" points="682.22,-975.77 675.03,-967.99 675.8,-978.55 682.22,-975.77"/>
</g>
<!-- backupy__fileman__FileManager__copyFiles -->
<g id="node44" class="node">
<title>backupy__fileman__FileManager__copyFiles</title>
<ellipse fill="#65feff" fill-opacity="0.698039" stroke="black" cx="1222" cy="-950" rx="54.69" ry="18"/>
<text text-anchor="middle" x="1222" y="-946.3" font-family="Times,serif" font-size="14.00" fill="#000000">copyFiles</text>
</g>
<!-- backupy__backupman__BackupManager___performBackup&#45;&gt;backupy__fileman__FileManager__copyFiles -->
<g id="edge11" class="edge">
<title>backupy__backupman__BackupManager___performBackup&#45;&gt;backupy__fileman__FileManager__copyFiles</title>
<path fill="none" stroke="#000000" d="M1256.36,-1111.93C1249.75,-1080.97 1235.73,-1015.3 1227.79,-978.13"/>
<polygon fill="#000000" stroke="#000000" points="1231.14,-977.06 1225.63,-968.02 1224.3,-978.53 1231.14,-977.06"/>
</g>
<!-- backupy__fileman__FileManager__handleChangedFiles -->
<g id="node45" class="node">
<title>backupy__fileman__FileManager__handleChangedFiles</title>
<ellipse fill="#65feff" fill-opacity="0.698039" stroke="black" cx="1048" cy="-950" rx="105.08" ry="18"/>
<text text-anchor="middle" x="1048" y="-946.3" font-family="Times,serif" font-size="14.00" fill="#000000">handleChangedFiles</text>
</g>
<!-- backupy__backupman__BackupManager___performBackup&#45;&gt;backupy__fileman__FileManager__handleChangedFiles -->
<g id="edge13" class="edge">
<title>backupy__backupman__BackupManager___performBackup&#45;&gt;backupy__fileman__FileManager__handleChangedFiles</title>
<path fill="none" stroke="#000000" d="M1240.06,-1112.25C1202.1,-1080.38 1119.38,-1010.94 1075.93,-974.45"/>
<polygon fill="#000000" stroke="#000000" points="1077.95,-971.58 1068.05,-967.83 1073.45,-976.94 1077.95,-971.58"/>
</g>
<!-- backupy__fileman__FileManager__handleDeletedFiles -->
<g id="node46" class="node">
<title>backupy__fileman__FileManager__handleDeletedFiles</title>
<ellipse fill="#65feff" fill-opacity="0.698039" stroke="black" cx="828" cy="-950" rx="100.98" ry="18"/>
<text text-anchor="middle" x="828" y="-946.3" font-family="Times,serif" font-size="14.00" fill="#000000">handleDeletedFiles</text>
</g>
<!-- backupy__backupman__BackupManager___performBackup&#45;&gt;backupy__fileman__FileManager__handleDeletedFiles -->
<g id="edge10" class="edge">
<title>backupy__backupman__BackupManager___performBackup&#45;&gt;backupy__fileman__FileManager__handleDeletedFiles</title>
<path fill="none" stroke="#000000" d="M1218.99,-1114.02C1202.59,-1108.18 1183.47,-1101.57 1166,-1096 1064.67,-1063.71 1031.5,-1076.78 936,-1030 905.8,-1015.2 875.21,-991.88 854.34,-974.4"/>
<polygon fill="#000000" stroke="#000000" points="856.45,-971.6 846.56,-967.78 851.91,-976.93 856.45,-971.6"/>
</g>
<!-- backupy__fileman__FileManager__handleMovedFiles -->
<g id="node47" class="node">
<title>backupy__fileman__FileManager__handleMovedFiles</title>
<ellipse fill="#65feff" fill-opacity="0.698039" stroke="black" cx="1287" cy="-770" rx="95.58" ry="18"/>
<text text-anchor="middle" x="1287" y="-766.3" font-family="Times,serif" font-size="14.00" fill="#000000">handleMovedFiles</text>
</g>
<!-- backupy__backupman__BackupManager___performBackup&#45;&gt;backupy__fileman__FileManager__handleMovedFiles -->
<g id="edge12" class="edge">
<title>backupy__backupman__BackupManager___performBackup&#45;&gt;backupy__fileman__FileManager__handleMovedFiles</title>
<path fill="none" stroke="#000000" d="M1265.46,-1111.7C1271.34,-1092.11 1280.35,-1059.13 1284,-1030 1294.53,-945.97 1291.19,-845.4 1288.69,-798.11"/>
<polygon fill="#000000" stroke="#000000" points="1292.18,-797.85 1288.13,-788.06 1285.19,-798.24 1292.18,-797.85"/>
</g>
<!-- backupy__backupman__BackupManager___printAndLogCompareDiffSummary -->
<g id="node9" class="node">
<title>backupy__backupman__BackupManager___printAndLogCompareDiffSummary</title>
<ellipse fill="#ff6565" fill-opacity="0.698039" stroke="black" cx="2070" cy="-1130" rx="176.57" ry="18"/>
<text text-anchor="middle" x="2070" y="-1126.3" font-family="Times,serif" font-size="14.00" fill="#000000">_printAndLogCompareDiffSummary</text>
</g>
<!-- backupy__backupman__BackupManager___printAndLogCompareDiffSummary&#45;&gt;backupy__dirinfo__DirInfo__getDicts -->
<g id="edge6" class="edge">
<title>backupy__backupman__BackupManager___printAndLogCompareDiffSummary&#45;&gt;backupy__dirinfo__DirInfo__getDicts</title>
<path fill="none" stroke="#000000" d="M2066.61,-1111.98C2052.61,-1042.45 1997.25,-773.32 1936,-556 1924.28,-514.4 1908.02,-467 1897.76,-438.04"/>
<polygon fill="#000000" stroke="#000000" points="1900.93,-436.5 1894.27,-428.25 1894.33,-438.85 1900.93,-436.5"/>
</g>
<!-- backupy__backupman__BackupManager___printAndLogScanOnlyDiffSummary -->
<g id="node10" class="node">
<title>backupy__backupman__BackupManager___printAndLogScanOnlyDiffSummary</title>
<ellipse fill="#ff6565" fill-opacity="0.698039" stroke="black" cx="858" cy="-1130" rx="178.97" ry="18"/>
<text text-anchor="middle" x="858" y="-1126.3" font-family="Times,serif" font-size="14.00" fill="#000000">_printAndLogScanOnlyDiffSummary</text>
</g>
<!-- backupy__backupman__BackupManager__abortRun -->
<g id="node11" class="node">
<title>backupy__backupman__BackupManager__abortRun</title>
<ellipse fill="#ff6565" fill-opacity="0.698039" stroke="black" cx="1105" cy="-1130" rx="53.89" ry="18"/>
<text text-anchor="middle" x="1105" y="-1126.3" font-family="Times,serif" font-size="14.00" fill="#000000">abortRun</text>
</g>
<!-- backupy__backupman__BackupManager__run -->
<g id="node13" class="node">
<title>backupy__backupman__BackupManager__run</title>
<ellipse fill="#ff6565" fill-opacity="0.698039" stroke="black" cx="1459" cy="-1310" rx="27" ry="18"/>
<text text-anchor="middle" x="1459" y="-1306.3" font-family="Times,serif" font-size="14.00" fill="#000000">run</text>
</g>
<!-- backupy__backupman__BackupManager__run&#45;&gt;backupy__backupman__BackupManager___checkConsistency -->
<g id="edge17" class="edge">
<title>backupy__backupman__BackupManager__run&#45;&gt;backupy__backupman__BackupManager___checkConsistency</title>
<path fill="none" stroke="#000000" d="M1459,-1291.93C1459,-1260.97 1459,-1195.3 1459,-1158.13"/>
<polygon fill="#000000" stroke="#000000" points="1462.5,-1158.02 1459,-1148.02 1455.5,-1158.02 1462.5,-1158.02"/>
</g>
<!-- backupy__backupman__BackupManager__run&#45;&gt;backupy__backupman__BackupManager___databaseAndCorruptionCheck -->
<g id="edge16" class="edge">
<title>backupy__backupman__BackupManager__run&#45;&gt;backupy__backupman__BackupManager___databaseAndCorruptionCheck</title>
<path fill="none" stroke="#000000" d="M1477.7,-1296.48C1522.16,-1266.74 1634.63,-1191.47 1691.29,-1153.56"/>
<polygon fill="#000000" stroke="#000000" points="1693.52,-1156.28 1699.88,-1147.81 1689.62,-1150.46 1693.52,-1156.28"/>
</g>
<!-- backupy__backupman__BackupManager__run&#45;&gt;backupy__backupman__BackupManager___performBackup -->
<g id="edge21" class="edge">
<title>backupy__backupman__BackupManager__run&#45;&gt;backupy__backupman__BackupManager___performBackup</title>
<path fill="none" stroke="#000000" d="M1443.38,-1295.03C1409.38,-1264.62 1328.34,-1192.13 1286.3,-1154.53"/>
<polygon fill="#000000" stroke="#000000" points="1288.47,-1151.77 1278.68,-1147.71 1283.8,-1156.99 1288.47,-1151.77"/>
</g>
<!-- backupy__backupman__BackupManager__run&#45;&gt;backupy__backupman__BackupManager___printAndLogCompareDiffSummary -->
<g id="edge20" class="edge">
<title>backupy__backupman__BackupManager__run&#45;&gt;backupy__backupman__BackupManager___printAndLogCompareDiffSummary</title>
<path fill="none" stroke="#000000" d="M1483.33,-1301.91C1570.81,-1276.43 1871.26,-1188.9 2004.95,-1149.95"/>
<polygon fill="#000000" stroke="#000000" points="2006.05,-1153.28 2014.67,-1147.12 2004.09,-1146.56 2006.05,-1153.28"/>
</g>
<!-- backupy__backupman__BackupManager__run&#45;&gt;backupy__backupman__BackupManager___printAndLogScanOnlyDiffSummary -->
<g id="edge19" class="edge">
<title>backupy__backupman__BackupManager__run&#45;&gt;backupy__backupman__BackupManager___printAndLogScanOnlyDiffSummary</title>
<path fill="none" stroke="#000000" d="M1439.31,-1297.34C1435.63,-1295.41 1431.75,-1293.53 1428,-1292 1261.25,-1223.76 1055.75,-1173.51 942.65,-1148.59"/>
<polygon fill="#000000" stroke="#000000" points="943.18,-1145.13 932.67,-1146.41 941.69,-1151.97 943.18,-1145.13"/>
</g>
<!-- backupy__backupman__BackupManager__run&#45;&gt;backupy__backupman__BackupManager__abortRun -->
<g id="edge18" class="edge">
<title>backupy__backupman__BackupManager__run&#45;&gt;backupy__backupman__BackupManager__abortRun</title>
<path fill="none" stroke="#000000" d="M1438.72,-1297.73C1435.16,-1295.79 1431.48,-1293.82 1428,-1292 1326.29,-1238.79 1204.74,-1179.29 1143.83,-1149.75"/>
<polygon fill="#000000" stroke="#000000" points="1145.11,-1146.48 1134.59,-1145.27 1142.06,-1152.78 1145.11,-1146.48"/>
</g>
<!-- backupy__backupman__BackupManager__run&#45;&gt;backupy__dirinfo__DirInfo -->
<g id="edge15" class="edge">
<title>backupy__backupman__BackupManager__run&#45;&gt;backupy__dirinfo__DirInfo</title>
<path fill="none" stroke="#000000" d="M1486.12,-1308.67C1663.07,-1305.98 2642.65,-1282.61 2526,-1096 2489.7,-1037.93 1484.01,-574.2 1418,-556 1250.52,-509.83 787.1,-580.82 639,-490 619.61,-478.11 606.72,-455.38 599.05,-437.34"/>
<polygon fill="#000000" stroke="#000000" points="602.25,-435.91 595.32,-427.9 595.74,-438.48 602.25,-435.91"/>
</g>
<!-- backupy__dirinfo__DirInfo____init__ -->
<g id="node16" class="node">
<title>backupy__dirinfo__DirInfo____init__</title>
<ellipse fill="#b2ff65" fill-opacity="0.698039" stroke="black" cx="1996" cy="-410" rx="44.39" ry="18"/>
<text text-anchor="middle" x="1996" y="-406.3" font-family="Times,serif" font-size="14.00" fill="#000000">__init__</text>
</g>
<!-- backupy__backupman__BackupManager__run&#45;&gt;backupy__dirinfo__DirInfo____init__ -->
<g id="edge22" class="edge">
<title>backupy__backupman__BackupManager__run&#45;&gt;backupy__dirinfo__DirInfo____init__</title>
<path fill="none" stroke="#000000" d="M1486.17,-1309.27C1639.45,-1310.18 2394.63,-1306.48 2546,-1148 2606.79,-1084.36 2566,-1039.01 2566,-951 2566,-951 2566,-951 2566,-769 2566,-507.12 2239.44,-667.63 2047,-490 2030.75,-475.01 2017.43,-453.77 2008.47,-437.09"/>
<polygon fill="#000000" stroke="#000000" points="2011.41,-435.16 2003.72,-427.88 2005.19,-438.37 2011.41,-435.16"/>
</g>
<!-- backupy__dirinfo__DirInfo__dirCompare -->
<g id="node18" class="node">
<title>backupy__dirinfo__DirInfo__dirCompare</title>
<ellipse fill="#b2ff65" fill-opacity="0.698039" stroke="black" cx="2517" cy="-410" rx="65.79" ry="18"/>
<text text-anchor="middle" x="2517" y="-406.3" font-family="Times,serif" font-size="14.00" fill="#000000">dirCompare</text>
</g>
<!-- backupy__backupman__BackupManager__run&#45;&gt;backupy__dirinfo__DirInfo__dirCompare -->
<g id="edge25" class="edge">
<title>backupy__backupman__BackupManager__run&#45;&gt;backupy__dirinfo__DirInfo__dirCompare</title>
<path fill="none" stroke="#000000" d="M1486.16,-1309.38C1641.93,-1310.94 2420.42,-1310.46 2577,-1148 2638.1,-1084.6 2598,-1039.05 2598,-951 2598,-951 2598,-951 2598,-769 2598,-642.46 2549.26,-496.82 2527.4,-437.86"/>
<polygon fill="#000000" stroke="#000000" points="2530.56,-436.32 2523.77,-428.2 2524.01,-438.79 2530.56,-436.32"/>
</g>
<!-- backupy__dirinfo__DirInfo__loadJson -->
<g id="node25" class="node">
<title>backupy__dirinfo__DirInfo__loadJson</title>
<ellipse fill="#b2ff65" fill-opacity="0.698039" stroke="black" cx="2387" cy="-410" rx="50.09" ry="18"/>
<text text-anchor="middle" x="2387" y="-406.3" font-family="Times,serif" font-size="14.00" fill="#000000">loadJson</text>
</g>
<!-- backupy__backupman__BackupManager__run&#45;&gt;backupy__dirinfo__DirInfo__loadJson -->
<g id="edge23" class="edge">
<title>backupy__backupman__BackupManager__run&#45;&gt;backupy__dirinfo__DirInfo__loadJson</title>
<path fill="none" stroke="#000000" d="M1486.17,-1309.38C1641.15,-1310.93 2411.89,-1310.33 2565,-1148 2595.15,-1116.03 2582,-994.94 2582,-951 2582,-951 2582,-951 2582,-769 2582,-695.34 2453.08,-504.78 2404.89,-436.12"/>
<polygon fill="#000000" stroke="#000000" points="2407.53,-433.79 2398.9,-427.63 2401.81,-437.82 2407.53,-433.79"/>
</g>
<!-- backupy__dirinfo__DirInfo__scanDir -->
<g id="node28" class="node">
<title>backupy__dirinfo__DirInfo__scanDir</title>
<ellipse fill="#b2ff65" fill-opacity="0.698039" stroke="black" cx="1662" cy="-410" rx="46.29" ry="18"/>
<text text-anchor="middle" x="1662" y="-406.3" font-family="Times,serif" font-size="14.00" fill="#000000">scanDir</text>
</g>
<!-- backupy__backupman__BackupManager__run&#45;&gt;backupy__dirinfo__DirInfo__scanDir -->
<g id="edge24" class="edge">
<title>backupy__backupman__BackupManager__run&#45;&gt;backupy__dirinfo__DirInfo__scanDir</title>
<path fill="none" stroke="#000000" d="M1486.23,-1309.47C1639.8,-1311.47 2395.96,-1312.81 2538,-1148 2553.09,-1130.49 2547.91,-1116.88 2538,-1096 2375.15,-753 2202.32,-750.12 1876,-556 1809.54,-516.46 1774.92,-538.9 1715,-490 1697.4,-475.64 1683.42,-453.91 1674.24,-436.87"/>
<polygon fill="#000000" stroke="#000000" points="1677.34,-435.25 1669.64,-427.96 1671.12,-438.46 1677.34,-435.25"/>
</g>
<!-- backupy__dirinfo__DirInfo__calcCrc -->
<g id="node17" class="node">
<title>backupy__dirinfo__DirInfo__calcCrc</title>
<ellipse fill="#b2ff65" fill-opacity="0.698039" stroke="black" cx="1609" cy="-50" rx="44.69" ry="18"/>
<text text-anchor="middle" x="1609" y="-46.3" font-family="Times,serif" font-size="14.00" fill="#000000">calcCrc</text>
</g>
<!-- backupy__dirinfo__DirInfo__fileMatch -->
<g id="node19" class="node">
<title>backupy__dirinfo__DirInfo__fileMatch</title>
<ellipse fill="#b2ff65" fill-opacity="0.698039" stroke="black" cx="2523" cy="-230" rx="53.89" ry="18"/>
<text text-anchor="middle" x="2523" y="-226.3" font-family="Times,serif" font-size="14.00" fill="#000000">fileMatch</text>
</g>
<!-- backupy__dirinfo__DirInfo__dirCompare&#45;&gt;backupy__dirinfo__DirInfo__fileMatch -->
<g id="edge36" class="edge">
<title>backupy__dirinfo__DirInfo__dirCompare&#45;&gt;backupy__dirinfo__DirInfo__fileMatch</title>
<path fill="none" stroke="#000000" d="M2517.58,-391.93C2518.62,-360.97 2520.83,-295.3 2522.09,-258.13"/>
<polygon fill="#000000" stroke="#000000" points="2525.59,-258.13 2522.43,-248.02 2518.59,-257.89 2525.59,-258.13"/>
</g>
<!-- backupy__dirinfo__DirInfo__getMovedAndUpdateLists -->
<g id="node23" class="node">
<title>backupy__dirinfo__DirInfo__getMovedAndUpdateLists</title>
<ellipse fill="#b2ff65" fill-opacity="0.698039" stroke="black" cx="2323" cy="-230" rx="131.88" ry="18"/>
<text text-anchor="middle" x="2323" y="-226.3" font-family="Times,serif" font-size="14.00" fill="#000000">getMovedAndUpdateLists</text>
</g>
<!-- backupy__dirinfo__DirInfo__dirCompare&#45;&gt;backupy__dirinfo__DirInfo__getMovedAndUpdateLists -->
<g id="edge35" class="edge">
<title>backupy__dirinfo__DirInfo__dirCompare&#45;&gt;backupy__dirinfo__DirInfo__getMovedAndUpdateLists</title>
<path fill="none" stroke="#000000" d="M2499.1,-392.57C2464.62,-360.94 2388.91,-291.48 2348.92,-254.79"/>
<polygon fill="#000000" stroke="#000000" points="2351.16,-252.09 2341.43,-247.91 2346.43,-257.25 2351.16,-252.09"/>
</g>
<!-- backupy__dirinfo__DirInfo__timeMatch -->
<g id="node31" class="node">
<title>backupy__dirinfo__DirInfo__timeMatch</title>
<ellipse fill="#b2ff65" fill-opacity="0.698039" stroke="black" cx="2176" cy="-50" rx="61.19" ry="18"/>
<text text-anchor="middle" x="2176" y="-46.3" font-family="Times,serif" font-size="14.00" fill="#000000">timeMatch</text>
</g>
<!-- backupy__dirinfo__DirInfo__fileMatch&#45;&gt;backupy__dirinfo__DirInfo__timeMatch -->
<g id="edge28" class="edge">
<title>backupy__dirinfo__DirInfo__fileMatch&#45;&gt;backupy__dirinfo__DirInfo__timeMatch</title>
<path fill="none" stroke="#000000" d="M2494.9,-214.58C2432.98,-182.82 2284.72,-106.77 2214.34,-70.67"/>
<polygon fill="#000000" stroke="#000000" points="2215.84,-67.5 2205.34,-66.05 2212.64,-73.73 2215.84,-67.5"/>
</g>
<!-- backupy__dirinfo__DirInfo__getCrc -->
<g id="node20" class="node">
<title>backupy__dirinfo__DirInfo__getCrc</title>
<ellipse fill="#b2ff65" fill-opacity="0.698039" stroke="black" cx="1375" cy="-230" rx="42.49" ry="18"/>
<text text-anchor="middle" x="1375" y="-226.3" font-family="Times,serif" font-size="14.00" fill="#000000">getCrc</text>
</g>
<!-- backupy__dirinfo__DirInfo__getCrc&#45;&gt;backupy__dirinfo__DirInfo__calcCrc -->
<g id="edge27" class="edge">
<title>backupy__dirinfo__DirInfo__getCrc&#45;&gt;backupy__dirinfo__DirInfo__calcCrc</title>
<path fill="none" stroke="#000000" d="M1394.95,-213.82C1436.66,-182.1 1533.15,-108.7 1581.03,-72.28"/>
<polygon fill="#000000" stroke="#000000" points="1583.26,-74.98 1589.1,-66.14 1579.02,-69.41 1583.26,-74.98"/>
</g>
<!-- backupy__dirinfo__DirInfo__getJsonX2 -->
<g id="node22" class="node">
<title>backupy__dirinfo__DirInfo__getJsonX2</title>
<ellipse fill="#b2ff65" fill-opacity="0.698039" stroke="black" cx="2112" cy="-410" rx="57.69" ry="18"/>
<text text-anchor="middle" x="2112" y="-406.3" font-family="Times,serif" font-size="14.00" fill="#000000">getJsonX2</text>
</g>
<!-- backupy__dirinfo__DirInfo__pathMatch -->
<g id="node26" class="node">
<title>backupy__dirinfo__DirInfo__pathMatch</title>
<ellipse fill="#b2ff65" fill-opacity="0.698039" stroke="black" cx="1946" cy="-230" rx="61.19" ry="18"/>
<text text-anchor="middle" x="1946" y="-226.3" font-family="Times,serif" font-size="14.00" fill="#000000">pathMatch</text>
</g>
<!-- backupy__dirinfo__DirInfo__saveJson -->
<g id="node27" class="node">
<title>backupy__dirinfo__DirInfo__saveJson</title>
<ellipse fill="#b2ff65" fill-opacity="0.698039" stroke="black" cx="1773" cy="-410" rx="51.19" ry="18"/>
<text text-anchor="middle" x="1773" y="-406.3" font-family="Times,serif" font-size="14.00" fill="#000000">saveJson</text>
</g>
<!-- backupy__dirinfo__DirInfo__scanDir&#45;&gt;backupy__dirinfo__DirInfo__pathMatch -->
<g id="edge29" class="edge">
<title>backupy__dirinfo__DirInfo__scanDir&#45;&gt;backupy__dirinfo__DirInfo__pathMatch</title>
<path fill="none" stroke="#000000" d="M1685.24,-394.43C1735.41,-362.99 1854.04,-288.63 1912.4,-252.06"/>
<polygon fill="#000000" stroke="#000000" points="1914.61,-254.8 1921.23,-246.53 1910.89,-248.87 1914.61,-254.8"/>
</g>
<!-- backupy__dirinfo__DirInfo__scanFile -->
<g id="node29" class="node">
<title>backupy__dirinfo__DirInfo__scanFile</title>
<ellipse fill="#b2ff65" fill-opacity="0.698039" stroke="black" cx="1662" cy="-230" rx="49.29" ry="18"/>
<text text-anchor="middle" x="1662" y="-226.3" font-family="Times,serif" font-size="14.00" fill="#000000">scanFile</text>
</g>
<!-- backupy__dirinfo__DirInfo__scanDir&#45;&gt;backupy__dirinfo__DirInfo__scanFile -->
<g id="edge30" class="edge">
<title>backupy__dirinfo__DirInfo__scanDir&#45;&gt;backupy__dirinfo__DirInfo__scanFile</title>
<path fill="none" stroke="#000000" d="M1662,-391.93C1662,-360.97 1662,-295.3 1662,-258.13"/>
<polygon fill="#000000" stroke="#000000" points="1665.5,-258.02 1662,-248.02 1658.5,-258.02 1665.5,-258.02"/>
</g>
<!-- backupy__dirinfo__DirInfo__scanFile&#45;&gt;backupy__dirinfo__DirInfo__calcCrc -->
<g id="edge32" class="edge">
<title>backupy__dirinfo__DirInfo__scanFile&#45;&gt;backupy__dirinfo__DirInfo__calcCrc</title>
<path fill="none" stroke="#000000" d="M1656.92,-211.93C1647.66,-180.83 1627.98,-114.73 1616.94,-77.65"/>
<polygon fill="#000000" stroke="#000000" points="1620.27,-76.6 1614.07,-68.02 1613.57,-78.6 1620.27,-76.6"/>
</g>
<!-- backupy__dirinfo__DirInfo__scanFile&#45;&gt;backupy__dirinfo__DirInfo__timeMatch -->
<g id="edge31" class="edge">
<title>backupy__dirinfo__DirInfo__scanFile&#45;&gt;backupy__dirinfo__DirInfo__timeMatch</title>
<path fill="none" stroke="#000000" d="M1696.52,-217.04C1786.03,-186.05 2025.75,-103.03 2128.34,-67.5"/>
<polygon fill="#000000" stroke="#000000" points="2129.53,-70.8 2137.83,-64.22 2127.24,-64.18 2129.53,-70.8"/>
</g>
<!-- backupy__dirinfo__DirInfo__selfCompare&#45;&gt;backupy__dirinfo__DirInfo__pathMatch -->
<g id="edge34" class="edge">
<title>backupy__dirinfo__DirInfo__selfCompare&#45;&gt;backupy__dirinfo__DirInfo__pathMatch</title>
<path fill="none" stroke="#000000" d="M2226.02,-393.36C2170.5,-361.16 2043.43,-287.49 1981.39,-251.52"/>
<polygon fill="#000000" stroke="#000000" points="1982.77,-248.28 1972.37,-246.29 1979.26,-254.33 1982.77,-248.28"/>
</g>
<!-- backupy__dirinfo__DirInfo__selfCompare&#45;&gt;backupy__dirinfo__DirInfo__timeMatch -->
<g id="edge33" class="edge">
<title>backupy__dirinfo__DirInfo__selfCompare&#45;&gt;backupy__dirinfo__DirInfo__timeMatch</title>
<path fill="none" stroke="#000000" d="M2243.15,-391.84C2227.26,-363.16 2196.49,-303.17 2184,-248 2170.58,-188.75 2171.92,-116.97 2174.01,-78.51"/>
<polygon fill="#000000" stroke="#000000" points="2177.53,-78.33 2174.63,-68.14 2170.54,-77.91 2177.53,-78.33"/>
</g>
<!-- backupy__dirinfo__DirInfo__updateDictOnCopy -->
<g id="node32" class="node">
<title>backupy__dirinfo__DirInfo__updateDictOnCopy</title>
<ellipse fill="#b2ff65" fill-opacity="0.698039" stroke="black" cx="1397" cy="-410" rx="98.58" ry="18"/>
<text text-anchor="middle" x="1397" y="-406.3" font-family="Times,serif" font-size="14.00" fill="#000000">updateDictOnCopy</text>
</g>
<!-- backupy__dirinfo__DirInfo__updateDictOnMove -->
<g id="node33" class="node">
<title>backupy__dirinfo__DirInfo__updateDictOnMove</title>
<ellipse fill="#b2ff65" fill-opacity="0.698039" stroke="black" cx="989" cy="-410" rx="100.98" ry="18"/>
<text text-anchor="middle" x="989" y="-406.3" font-family="Times,serif" font-size="14.00" fill="#000000">updateDictOnMove</text>
</g>
<!-- backupy__dirinfo__DirInfo__updateDictOnRemove -->
<g id="node34" class="node">
<title>backupy__dirinfo__DirInfo__updateDictOnRemove</title>
<ellipse fill="#b2ff65" fill-opacity="0.698039" stroke="black" cx="762" cy="-410" rx="112.38" ry="18"/>
<text text-anchor="middle" x="762" y="-406.3" font-family="Times,serif" font-size="14.00" fill="#000000">updateDictOnRemove</text>
</g>
<!-- backupy__dirinfo__DirInfo__verifyCrcOnCopy -->
<g id="node35" class="node">
<title>backupy__dirinfo__DirInfo__verifyCrcOnCopy</title>
<ellipse fill="#b2ff65" fill-opacity="0.698039" stroke="black" cx="1194" cy="-410" rx="90.18" ry="18"/>
<text text-anchor="middle" x="1194" y="-406.3" font-family="Times,serif" font-size="14.00" fill="#000000">verifyCrcOnCopy</text>
</g>
<!-- backupy__dirinfo__DirInfo__verifyCrcOnCopy&#45;&gt;backupy__dirinfo__DirInfo__getCrc -->
<g id="edge26" class="edge">
<title>backupy__dirinfo__DirInfo__verifyCrcOnCopy&#45;&gt;backupy__dirinfo__DirInfo__getCrc</title>
<path fill="none" stroke="#000000" d="M1211.03,-392.25C1243.56,-360.26 1314.61,-290.39 1351.58,-254.03"/>
<polygon fill="#000000" stroke="#000000" points="1354.25,-256.31 1358.93,-246.8 1349.35,-251.32 1354.25,-256.31"/>
</g>
<!-- backupy__fileman__FileManager____init__&#45;&gt;backupy__dirinfo__DirInfo -->
<g id="edge37" class="edge">
<title>backupy__fileman__FileManager____init__&#45;&gt;backupy__dirinfo__DirInfo</title>
<path fill="none" stroke="#000000" d="M662.14,-931.95C650.81,-902.93 628.38,-841.84 618,-788 593.09,-658.81 590.02,-500.78 589.87,-438.29"/>
<polygon fill="#000000" stroke="#000000" points="593.37,-438.09 589.86,-428.09 586.37,-438.09 593.37,-438.09"/>
</g>
<!-- backupy__fileman__FileManager___archiveFile -->
<g id="node38" class="node">
<title>backupy__fileman__FileManager___archiveFile</title>
<ellipse fill="#65feff" fill-opacity="0.698039" stroke="black" cx="989" cy="-770" rx="66.89" ry="18"/>
<text text-anchor="middle" x="989" y="-766.3" font-family="Times,serif" font-size="14.00" fill="#000000">_archiveFile</text>
</g>
<!-- backupy__fileman__FileManager___moveFile -->
<g id="node40" class="node">
<title>backupy__fileman__FileManager___moveFile</title>
<ellipse fill="#65feff" fill-opacity="0.698039" stroke="black" cx="989" cy="-590" rx="57.69" ry="18"/>
<text text-anchor="middle" x="989" y="-586.3" font-family="Times,serif" font-size="14.00" fill="#000000">_moveFile</text>
</g>
<!-- backupy__fileman__FileManager___archiveFile&#45;&gt;backupy__fileman__FileManager___moveFile -->
<g id="edge48" class="edge">
<title>backupy__fileman__FileManager___archiveFile&#45;&gt;backupy__fileman__FileManager___moveFile</title>
<path fill="none" stroke="#000000" d="M989,-751.93C989,-720.97 989,-655.3 989,-618.13"/>
<polygon fill="#000000" stroke="#000000" points="992.5,-618.02 989,-608.02 985.5,-618.02 992.5,-618.02"/>
</g>
<!-- backupy__fileman__FileManager___copyFile -->
<g id="node39" class="node">
<title>backupy__fileman__FileManager___copyFile</title>
<ellipse fill="#65feff" fill-opacity="0.698039" stroke="black" cx="1124" cy="-770" rx="53.89" ry="18"/>
<text text-anchor="middle" x="1124" y="-766.3" font-family="Times,serif" font-size="14.00" fill="#000000">_copyFile</text>
</g>
<!-- backupy__fileman__FileManager___copyFile&#45;&gt;backupy__dirinfo__DirInfo__updateDictOnCopy -->
<g id="edge40" class="edge">
<title>backupy__fileman__FileManager___copyFile&#45;&gt;backupy__dirinfo__DirInfo__updateDictOnCopy</title>
<path fill="none" stroke="#000000" d="M1136.8,-752.21C1180.68,-694.68 1325.16,-505.21 1377.69,-436.32"/>
<polygon fill="#000000" stroke="#000000" points="1380.63,-438.24 1383.91,-428.17 1375.06,-434 1380.63,-438.24"/>
</g>
<!-- backupy__fileman__FileManager___copyFile&#45;&gt;backupy__dirinfo__DirInfo__verifyCrcOnCopy -->
<g id="edge39" class="edge">
<title>backupy__fileman__FileManager___copyFile&#45;&gt;backupy__dirinfo__DirInfo__verifyCrcOnCopy</title>
<path fill="none" stroke="#000000" d="M1127.38,-751.73C1138.65,-694.08 1175.05,-507.89 1188.74,-437.92"/>
<polygon fill="#000000" stroke="#000000" points="1192.17,-438.58 1190.66,-428.09 1185.3,-437.24 1192.17,-438.58"/>
</g>
<!-- backupy__fileman__FileManager___moveFile&#45;&gt;backupy__dirinfo__DirInfo__updateDictOnMove -->
<g id="edge41" class="edge">
<title>backupy__fileman__FileManager___moveFile&#45;&gt;backupy__dirinfo__DirInfo__updateDictOnMove</title>
<path fill="none" stroke="#000000" d="M989,-571.93C989,-540.97 989,-475.3 989,-438.13"/>
<polygon fill="#000000" stroke="#000000" points="992.5,-438.02 989,-428.02 985.5,-438.02 992.5,-438.02"/>
</g>
<!-- backupy__fileman__FileManager___moveFiles -->
<g id="node41" class="node">
<title>backupy__fileman__FileManager___moveFiles</title>
<ellipse fill="#65feff" fill-opacity="0.698039" stroke="black" cx="846" cy="-770" rx="62.29" ry="18"/>
<text text-anchor="middle" x="846" y="-766.3" font-family="Times,serif" font-size="14.00" fill="#000000">_moveFiles</text>
</g>
<!-- backupy__fileman__FileManager___moveFiles&#45;&gt;backupy__fileman__FileManager___moveFile -->
<g id="edge44" class="edge">
<title>backupy__fileman__FileManager___moveFiles&#45;&gt;backupy__fileman__FileManager___moveFile</title>
<path fill="none" stroke="#000000" d="M859.45,-752.25C884.75,-720.77 939.51,-652.6 969.09,-615.79"/>
<polygon fill="#000000" stroke="#000000" points="972.15,-617.56 975.69,-607.57 966.7,-613.18 972.15,-617.56"/>
</g>
<!-- backupy__fileman__FileManager___removeFile -->
<g id="node42" class="node">
<title>backupy__fileman__FileManager___removeFile</title>
<ellipse fill="#65feff" fill-opacity="0.698039" stroke="black" cx="697" cy="-590" rx="67.69" ry="18"/>
<text text-anchor="middle" x="697" y="-586.3" font-family="Times,serif" font-size="14.00" fill="#000000">_removeFile</text>
</g>
<!-- backupy__fileman__FileManager___removeFile&#45;&gt;backupy__dirinfo__DirInfo__updateDictOnRemove -->
<g id="edge38" class="edge">
<title>backupy__fileman__FileManager___removeFile&#45;&gt;backupy__dirinfo__DirInfo__updateDictOnRemove</title>
<path fill="none" stroke="#000000" d="M703.23,-571.93C714.59,-540.83 738.73,-474.73 752.27,-437.65"/>
<polygon fill="#000000" stroke="#000000" points="755.64,-438.61 755.79,-428.02 749.07,-436.21 755.64,-438.61"/>
</g>
<!-- backupy__fileman__FileManager___removeFiles -->
<g id="node43" class="node">
<title>backupy__fileman__FileManager___removeFiles</title>
<ellipse fill="#65feff" fill-opacity="0.698039" stroke="black" cx="697" cy="-770" rx="72.29" ry="18"/>
<text text-anchor="middle" x="697" y="-766.3" font-family="Times,serif" font-size="14.00" fill="#000000">_removeFiles</text>
</g>
<!-- backupy__fileman__FileManager___removeFiles&#45;&gt;backupy__fileman__FileManager___removeFile -->
<g id="edge42" class="edge">
<title>backupy__fileman__FileManager___removeFiles&#45;&gt;backupy__fileman__FileManager___removeFile</title>
<path fill="none" stroke="#000000" d="M697,-751.93C697,-720.97 697,-655.3 697,-618.13"/>
<polygon fill="#000000" stroke="#000000" points="700.5,-618.02 697,-608.02 693.5,-618.02 700.5,-618.02"/>
</g>
<!-- backupy__fileman__FileManager__copyFiles&#45;&gt;backupy__fileman__FileManager___copyFile -->
<g id="edge43" class="edge">
<title>backupy__fileman__FileManager__copyFiles&#45;&gt;backupy__fileman__FileManager___copyFile</title>
<path fill="none" stroke="#000000" d="M1212.78,-932.25C1195.63,-901.11 1158.74,-834.09 1138.32,-797.01"/>
<polygon fill="#000000" stroke="#000000" points="1141.16,-794.9 1133.27,-787.83 1135.02,-798.28 1141.16,-794.9"/>
</g>
<!-- backupy__fileman__FileManager__handleChangedFiles&#45;&gt;backupy__fileman__FileManager___archiveFile -->
<g id="edge50" class="edge">
<title>backupy__fileman__FileManager__handleChangedFiles&#45;&gt;backupy__fileman__FileManager___archiveFile</title>
<path fill="none" stroke="#000000" d="M1042.34,-931.93C1032.03,-900.83 1010.13,-834.73 997.83,-797.65"/>
<polygon fill="#000000" stroke="#000000" points="1001.11,-796.41 994.64,-788.02 994.46,-798.61 1001.11,-796.41"/>
</g>
<!-- backupy__fileman__FileManager__handleChangedFiles&#45;&gt;backupy__fileman__FileManager___copyFile -->
<g id="edge49" class="edge">
<title>backupy__fileman__FileManager__handleChangedFiles&#45;&gt;backupy__fileman__FileManager___copyFile</title>
<path fill="none" stroke="#000000" d="M1055.29,-931.93C1068.57,-900.83 1096.79,-834.73 1112.62,-797.65"/>
<polygon fill="#000000" stroke="#000000" points="1116.03,-798.59 1116.73,-788.02 1109.59,-795.84 1116.03,-798.59"/>
</g>
<!-- backupy__fileman__FileManager__handleDeletedFiles&#45;&gt;backupy__fileman__FileManager___moveFiles -->
<g id="edge46" class="edge">
<title>backupy__fileman__FileManager__handleDeletedFiles&#45;&gt;backupy__fileman__FileManager___moveFiles</title>
<path fill="none" stroke="#000000" d="M829.73,-931.93C832.86,-900.97 839.5,-835.3 843.26,-798.13"/>
<polygon fill="#000000" stroke="#000000" points="846.76,-798.32 844.28,-788.02 839.79,-797.61 846.76,-798.32"/>
</g>
<!-- backupy__fileman__FileManager__handleDeletedFiles&#45;&gt;backupy__fileman__FileManager___removeFiles -->
<g id="edge45" class="edge">
<title>backupy__fileman__FileManager__handleDeletedFiles&#45;&gt;backupy__fileman__FileManager___removeFiles</title>
<path fill="none" stroke="#000000" d="M815.44,-931.93C792.2,-900.35 742.4,-832.69 715.37,-795.96"/>
<polygon fill="#000000" stroke="#000000" points="718.08,-793.74 709.33,-787.76 712.44,-797.88 718.08,-793.74"/>
</g>
<!-- backupy__fileman__FileManager__handleMovedFiles&#45;&gt;backupy__fileman__FileManager___moveFile -->
<g id="edge47" class="edge">
<title>backupy__fileman__FileManager__handleMovedFiles&#45;&gt;backupy__fileman__FileManager___moveFile</title>
<path fill="none" stroke="#000000" d="M1259.76,-752.73C1205.37,-720.24 1083.39,-647.38 1023.5,-611.61"/>
<polygon fill="#000000" stroke="#000000" points="1025.17,-608.53 1014.79,-606.4 1021.58,-614.54 1025.17,-608.53"/>
</g>
</g>
</svg>
